<?xml version="1.0" encoding="utf-8" ?>
<svg baseProfile="full" height="200mm" version="1.1" viewBox="0,0,200,200" width="200mm" xmlns="http://www.w3.org/2000/svg" xmlns:ev="http://www.w3.org/2001/xml-events" xmlns:xlink="http://www.w3.org/1999/xlink"><defs /><rect fill="#1a1a1a" height="200" width="200" x="0" y="0" /><text alignment-baseline="middle" fill="#e1ed5e" style="dominant-baseline: central; font-size:9.0px; font-family:Arial;" text-anchor="middle" x="100.0" y="100.0">2021</text><line stroke="#e1ed5e" stroke-width="0.3" x1="100.0" x2="100.0" y1="15.0" y2="10.0" /><path d="M 100.0 14.0 a86.0,86.0 0 0,1 42.46469731375804,11.215312516191453" fill="none" id="id1" stroke="none" /><text fill="#e1ed5e" style="font-size:6.75px; font-family:Arial;" text-anchor="middle"><textPath startOffset="22.20632615414155" xlink:href="#id1">January</textPath></text><line stroke="#e1ed5e" stroke-width="0.3" x1="143.23703022742887" x2="145.7803849466894" y1="26.81831364943548" y2="22.513508569990506" /><path d="M 143.74570117128098 25.957352633546492 a86.0,86.0 0 0,1 28.547481713284135,27.462654790039103" fill="none" id="id2" stroke="none" /><text fill="#e1ed5e" style="font-size:6.75px; font-family:Arial;" text-anchor="middle"><textPath startOffset="19.985693538727396" xlink:href="#id2">February</textPath></text><line stroke="#e1ed5e" stroke-width="0.3" x1="172.23445277983987" x2="176.4835382374775" y1="55.19839476539836" y2="52.563006222186495" /><path d="M 173.08426987136738 54.67131705675599 a86.0,86.0 0 0,1 12.851231095245387,41.99856678651699" fill="none" id="id3" stroke="none" /><text fill="#e1ed5e" style="font-size:6.75px; font-family:Arial;" text-anchor="middle"><textPath startOffset="22.20632615414155" xlink:href="#id3">March</textPath></text><line stroke="#e1ed5e" stroke-width="0.3" x1="184.98032266829074" x2="189.97916517819016" y1="98.17113171792111" y2="98.06355123074" /><path d="M 185.9800911702706 98.14961562048488 a86.0,86.0 0 0,1 -9.607161424134198,41.387399972396054" fill="none" id="id4" stroke="none" /><text fill="#e1ed5e" style="font-size:6.75px; font-family:Arial;" text-anchor="middle"><textPath startOffset="21.466115282336823" xlink:href="#id4">April</textPath></text><line stroke="#e1ed5e" stroke-width="0.3" x1="174.80103733775053" x2="179.2010983576182" y1="140.37084112569926" y2="142.7455964860345" /><path d="M 175.68104954172406 140.8457921977663 a86.0,86.0 0 0,1 -30.038265399797805,32.042727171017184" fill="none" id="id5" stroke="none" /><text fill="#e1ed5e" style="font-size:6.75px; font-family:Arial;" text-anchor="middle"><textPath startOffset="22.206326154141568" xlink:href="#id5">May</textPath></text><line stroke="#e1ed5e" stroke-width="0.3" x1="143.8653032363475" x2="146.44561519142675" y1="172.8068346515853" y2="177.08958963109032" /><path d="M 144.38136562736335 173.6633856474863 a86.0,86.0 0 0,1 -40.68145358897372,12.25698825130547" fill="none" id="id6" stroke="none" /><text fill="#e1ed5e" style="font-size:6.75px; font-family:Arial;" text-anchor="middle"><textPath startOffset="21.466115282336833" xlink:href="#id6">June</textPath></text><line stroke="#e1ed5e" stroke-width="0.3" x1="102.19456741930631" x2="102.32365962044197" y1="184.97166512339345" y2="189.96999836594603" /><path d="M 102.22038585953345 185.97133177190398 a86.0,86.0 0 0,1 -42.740103519485714,-10.115201625700543" fill="none" id="id7" stroke="none" /><text fill="#e1ed5e" style="font-size:6.75px; font-family:Arial;" text-anchor="middle"><textPath startOffset="22.20632615414155" xlink:href="#id7">July</textPath></text><line stroke="#e1ed5e" stroke-width="0.3" x1="58.666819895761336" x2="56.23545636021788" y1="174.27360380694188" y2="178.64263932499728" /><path d="M 58.180547188652646 175.14741091055294 a86.0,86.0 0 0,1 -31.652253787137756,-30.449443065178592" fill="none" id="id8" stroke="none" /><text fill="#e1ed5e" style="font-size:6.75px; font-family:Arial;" text-anchor="middle"><textPath startOffset="22.20632615414155" xlink:href="#id8">August</textPath></text><path d="M 83.95833913139862 113.55231037782056 l -6.472656567432004 5.46822747902444 a29.47329893266363,29.47329893266363 0 0,0 -0.32407155332788556,-0.3903650625638756 l 6.565824120653426 -5.356001159346803" fill="#ff4a06" stroke="none" /><path d="M 83.50135304334701 112.99209946851258 l -5.91501483498526 4.657864447658073 a28.52881808193376,28.52881808193376 0 0,0 -0.30049428916903087,-0.3884293757887909 l 5.994315941372359 -4.55535707775603" fill="#ff3d05" stroke="none" /><path d="M 83.28015986056508 112.70617746262583 l -4.399258675833701 3.3431995146473046 a26.52543752943023,26.52543752943023 0 0,0 -0.2731346196058403,-0.36590845798364 l 4.456154562134626 -3.2669781771543587" fill="#ff1f03" stroke="none" /><path d="M 82.64656182679789 111.8261652097733 l -5.430780403030529 3.701013345206578 a27.571976534296027,27.571976534296027 0 0,0 -0.2638991267181738,-0.3944933881399627 l 5.493682635159436 -3.6069830428607923" fill="#ff2f04" stroke="none" /><line stroke="#e1ed5e" stroke-width="0.3" x1="26.63291911575756" x2="22.317208475507996" y1="142.92168965132927" y2="145.44649492493687" /><path d="M 25.769776987707644 143.4266507060508 a86.0,86.0 0 0,1 -11.730757126820373,-40.83630448921669" fill="none" id="id9" stroke="none" /><text fill="#e1ed5e" style="font-size:6.75px; font-family:Arial;" text-anchor="middle"><textPath startOffset="21.46611528233685" xlink:href="#id9">September</textPath></text><path d="M 81.87401531095188 110.60418214915194 l -4.193287660268532 2.453184580926278 a25.85816590802072,25.85816590802072 0 0,0 -0.22145426293896375,-0.3861241738694576 l 4.234893919359871 -2.3806405611985135" fill="#ff1502" stroke="none" /><path d="M 81.69416730710424 110.29060199501025 l -3.0218559477505047 1.6987327135696557 a24.466598650133417,24.466598650133417 0 0,0 -0.20321676119356627,-0.3688974498647752 l 3.05064911839559 -1.646464745307058" fill="#ff0000" stroke="none" /><path d="M 79.97269907076064 106.31721596034903 l -4.384646055348655 1.3830498747282736 a25.59760241720295,25.59760241720295 0 0,0 -0.12893052494154453,-0.42135241537921725 l 4.407803352796329 -1.3073704867970086" fill="#ff1101" stroke="none" /><path d="M 79.86692584326677 105.97154293290107 l -7.1591154468369576 2.1234196486622836 a28.46738541830168,28.46738541830168 0 0,0 -0.1352978415879839,-0.47098953597706616 l 7.194605925311046 -1.9998726371806212" fill="#ff3c05" stroke="none" /><path d="M 79.76711848015287 105.62410040840567 l -7.4284622764204045 2.064877297959772 a28.710108303249097,28.710108303249097 0 0,0 -0.12825478516018313,-0.47728376753221446 l 7.46290513792236 -1.9367025972520184" fill="#ff3f05" stroke="none" /><path d="M 79.50377843672027 104.57218783832718 l -36.094269223184476 8.05171715508834 a57.98143344843823,57.98143344843823 0 0,0 -0.20891528085766395,-0.975982640688777 l 36.22751854276658 -7.4292206949834" fill="#4fff2b" stroke="none" /><path d="M 79.4281124754447 104.21870165774334 l -61.715662573665874 12.656104973230022 a84.0,84.0 0 0,0 -0.2782802680973342,-1.4189450917281805 l 61.92437277473888 -11.591896154433886" fill="#4dd2ff" stroke="none" /><path d="M 79.35854240842038 103.8639653848113 l -24.69705366103178 4.623150280432839 a46.12604183016795,46.12604183016795 0 0,0 -0.1393743549969312,-0.7816853995358196 l 24.7729744583679 -4.1973461301638055" fill="#d5ff1c" stroke="none" /><path d="M 79.23777060512086 103.15116336523772 l -4.868459271837605 0.7389047780365247 a25.924213231831736,25.924213231831736 0 0,0 -0.06316366531689102,-0.44176652811221906 l 4.880456988171095 -0.654992777943905" fill="#ff1602" stroke="none" /><path d="M 79.07016306316243 101.71520430193888 l -6.433682727531423 0.5272415798017741 a27.455250353162768,27.455250353162768 0 0,0 -0.03454581890775155,-0.4713502522153323 l 6.4418051051035095 -0.41641819108968126" fill="#ff2d04" stroke="none" /><path d="M 79.0095281055655 100.63252640178507 l -8.516897973600571 0.2566480094733146 a29.52076400878983,29.52076400878983 0 0,0 -0.010933840569097871,-0.5080526075444223 l 8.520053876854675 -0.11000558613876352" fill="#ff4b07" stroke="none" /><line stroke="#e1ed5e" stroke-width="0.3" x1="15.007084014347285" x2="10.007500721073583" y1="101.09737516637583" y2="101.16192664675087" /><path d="M 14.007167355692545 101.11028546245083 a86.0,86.0 0 0,1 10.666146001902534,-42.60595125391555" fill="none" id="id10" stroke="none" /><text fill="#e1ed5e" style="font-size:6.75px; font-family:Arial;" text-anchor="middle"><textPath startOffset="22.20632615414155" xlink:href="#id10">October</textPath></text><path d="M 79.00019446554 99.90962569577889 l -24.639502641082046 -0.10603802515638418 a45.639730811489564,45.639730811489564 0 0,0 0.010142871373647621,-0.7855765657254186 l 24.634026762590683 0.5301508489422747" fill="#dbff1b" stroke="none" /><path d="M 79.05617556472873 98.46500227214037 l -32.63900754761257 -2.39215156620605 a53.72655195416731,53.72655195416731 0 0,0 0.07553829424025704,-0.9217585212142724 l 32.59299476955282 2.953624004628101" fill="#7dff26" stroke="none" /><path d="M 79.16333360222342 97.38593545837743 l -11.62770038100065 -1.4587534630697154 a32.71884711976142,32.71884711976142 0 0,0 0.07491681313015229,-0.5582172758000508 l 11.600867568812664 1.6586890809344257" fill="#ff790b" stroke="none" /><path d="M 79.26566170972629 96.67025291283419 l -7.822038069845707 -1.2561485258966032 a28.922259064511067,28.922259064511067 0 0,0 0.08316958978741329,-0.49087162688586244 l 7.79925661853807 1.3906059410982936" fill="#ff4206" stroke="none" /><path d="M 79.46518482838121 95.60439243477599 l -7.8998281658890415 -1.6910083757629542 a29.078786689687647,29.078786689687647 0 0,0 0.10898398722137412,-0.4885538451010418 l 7.86954979166563 1.8267403904139552" fill="#ff4506" stroke="none" /><path d="M 79.54389044137918 95.25157060432595 l -4.9358270944890705 -1.1457421265892216 a26.067061685763615,26.067061685763615 0 0,0 0.10522056307289461,-0.43620716398203974 l 4.915373731155361 1.230534522230658" fill="#ff1802" stroke="none" /><path d="M 80.02781315780177 93.51064311812611 l -6.536337808087494 -2.123784895079448 a27.872712290064356,27.872712290064356 0 0,0 0.15218860100474088,-0.4550245460734104 l 6.498811913310981 2.2359825440751804" fill="#ff3304" stroke="none" /><path d="M 80.2630227832202 92.82701384747504 l -6.743209054047121 -2.4506764453849113 a28.174725317846494,28.174725317846494 0 0,0 0.169578857162039,-0.45438702789086866 l 6.700025608383454 2.566386610305121" fill="#ff3705" stroke="none" /><path d="M 80.52162464483688 92.15188598940014 l -52.395713772724456 -21.110977063397634 a77.48879689216764,77.48879689216764 0 0,0 0.509132070495199,-1.2329036926976968 l 52.02456001534306 22.009755326548643" fill="#45ffec" stroke="none" /><path d="M 80.95270993114464 91.15688171328213 l -7.8882493730260554 -3.6622911725830356 a29.696945142049913,29.696945142049913 0 0,0 0.21925085772408767,-0.46179822230683104 l 7.824040321460216 3.7975318105303986" fill="#ff4e07" stroke="none" /><path d="M 81.26839172434947 90.50648371742162 l -6.923726938993789 -3.50906945437825 a28.762188039554232,28.762188039554232 0 0,0 0.22761925399280508,-0.43968794896068725 l 6.86229825184087 3.6277301255992724" fill="#ff4006" stroke="none" /><path d="M 81.43458229118936 90.18545643968196 l -28.065478327986934 -14.836717595665451 a52.745854261497406,52.745854261497406 0 0,0 0.43123980840485515,-0.7990218709979171 l 27.805930420363605 15.317620449995841" fill="#88ff25" stroke="none" /><line stroke="#e1ed5e" stroke-width="0.3" x1="26.266209847984257" x2="21.92892807433627" y1="57.711370442889674" y2="55.22380399835377" /><path d="M 25.39875349325466 57.213857153982495 a86.0,86.0 0 0,1 29.58750427330802,-30.492523968695096" fill="none" id="id11" stroke="none" /><text fill="#e1ed5e" style="font-size:6.75px; font-family:Arial;" text-anchor="middle"><textPath startOffset="21.46611528233685" xlink:href="#id11">November</textPath></text><path d="M 81.96595687620814 89.24020034530311 l -6.899061757108746 -4.116244028159061 a29.033711348296972,29.033711348296972 0 0,0 0.2597607466411006,-0.4269783679884565 l 6.827185212181426 4.234390169354592" fill="#ff4406" stroke="none" /><path d="M 82.7489923806493 88.02491185347247 l -16.247282476218064 -11.27833481309228 a40.77814511065767,40.77814511065767 0 0,0 0.40523258440002097,-0.5731727524900517 l 16.050737272014164 11.556334065914118" fill="#ffe615" stroke="none" /><path d="M 84.31358615837235 86.03803664274997 l -15.114146577910764 -13.452607002940047 a41.2338840056506,41.2338840056506 0 0,0 0.4764601988605461,-0.526119251874496 l 14.880342738434173 13.7107790420841" fill="#ffeb16" stroke="none" /><path d="M 85.83668400450813 84.49514656593479 l -4.727820920760104 -5.175636161914703 a28.009957228064668,28.009957228064668 0 0,0 0.3587795586788666,-0.32211583023370105 l 4.638030374485266 5.256251000917683" fill="#ff3505" stroke="none" /><path d="M 87.22198572758235 83.33499621200491 l -3.1671013361162013 -4.130513132801084 a26.20496586093235,26.20496586093235 0 0,0 0.36032308014163333,-0.27138787368182016 l 3.0955321022161777 4.184417595988758" fill="#ff1a02" stroke="none" /><path d="M 87.51073957382395 83.11751280151077 l -4.610327858426643 -6.232058456207341 a28.752011065766755,28.752011065766755 0 0,0 0.40041239525863415,-0.290916633895893 l 4.502370146814226 6.310494324919901" fill="#ff4006" stroke="none" /><path d="M 88.09926311788651 82.69761687909137 l -18.34702384192554 -26.674586522331737 a53.375096138753726,53.375096138753726 0 0,0 0.761472773274774,-0.5141498156563513 l 17.88514637424423 26.986448250286756" fill="#81ff25" stroke="none" /><line stroke="#e1ed5e" stroke-width="0.3" x1="56.762969772571076" x2="54.21961505331055" y1="26.818313649435495" y2="22.513508569990535" /><path d="M 56.25429882871897 25.957352633546506 a86.0,86.0 0 0,1 42.265352541879196,-11.944610805530505" fill="none" id="id12" stroke="none" /><text fill="#e1ed5e" style="font-size:6.75px; font-family:Arial;" text-anchor="middle"><textPath startOffset="22.20632615414155" xlink:href="#id12">December</textPath></text><path d="M 89.3179101791058 81.91981866633112 l -5.007617334398197 -8.475741261644243 a30.844512242975984,30.844512242975984 0 0,0 0.45944115310077566,-0.26613797075043044 l 4.8609794488321 8.560683389784721" fill="#ff5e08" stroke="none" /></svg>