<?xml version="1.0" encoding="utf-8" ?>
<svg baseProfile="full" height="200mm" version="1.1" viewBox="0,0,200,200" width="200mm" xmlns="http://www.w3.org/2000/svg" xmlns:ev="http://www.w3.org/2001/xml-events" xmlns:xlink="http://www.w3.org/1999/xlink"><defs /><rect fill="#1a1a1a" height="200" width="200" x="0" y="0" /><text alignment-baseline="middle" fill="#e1ed5e" style="dominant-baseline: central; font-size:9.0px; font-family:Arial;" text-anchor="middle" x="100.0" y="100.0">2026</text><line stroke="#e1ed5e" stroke-width="0.3" x1="100.0" x2="100.0" y1="15.0" y2="10.0" /><path d="M 100.0 14.0 a86.0,86.0 0 0,1 42.46469731375804,11.215312516191453" fill="none" id="id61" stroke="none" /><text fill="#e1ed5e" style="font-size:6.75px; font-family:Arial;" text-anchor="middle"><textPath startOffset="22.20632615414155" xlink:href="#id61">January</textPath></text><path d="M 100.72285384407766 79.0124445844662 l 0.8335091492270696 -24.20035474955314 a45.21470436544837,45.21470436544837 0 0,0 0.7776049996375138,0.03348530701995894 l -1.249954981253915 24.182421716008985" fill="#ffd714" stroke="none" /><path d="M 101.44485096284872 79.0497635885617 l 1.60813089768474 -23.31778387758972 a44.37317115724932,44.37317115724932 0 0,0 0.7615488673417453,0.05911084899954466 l -2.0092699543888264 23.28664776640171" fill="#ffca12" stroke="none" /><path d="M 101.80526077348638 79.07773832637324 l 0.9411758762603429 -10.907857885813895 a31.948386898861713,31.948386898861713 0 0,0 0.5474962702333127,0.05199136789938158 l -1.1287972735838998 10.890040973399335" fill="#ff0000" stroke="none" /><path d="M 102.52436894288641 79.15227682838746 l 3.2540345157392077 -26.87373054805324 a48.07002279642542,48.07002279642542 0 0,0 0.820590246324314,0.1065361650706578 l -3.7161394905713676 26.813736059818442" fill="#fdff18" stroke="none" /><path d="M 103.2404852339499 79.25152402106235 l 9.336044146798267 -59.777679493397706 a81.50233620221906,81.50233620221906 0 0,0 1.3842620454657983,0.22841509831674808 l -10.36363539840294 59.60811813214133" fill="#49edff" stroke="none" /><path d="M 103.59715602781102 79.31037775812273 l 2.198585780862443 -12.645520216727263 a33.835223449066575,33.835223449066575 0 0,0 0.5729509779553147,0.10470312901084743 l -2.4159318799206586 12.605801606365677" fill="#ff2103" stroke="none" /><path d="M 103.95276090670814 79.375362276772 l 4.283799033999835 -22.351921920048632 a43.75872025584146,43.75872025584146 0 0,0 0.7385504922572153,0.14814628082449802 l -4.667915935724176 22.274871683146923" fill="#ffc111" stroke="none" /><path d="M 104.307194497241 79.44645832069477 l 3.7365029734833826 -17.83025346302151 a39.217557273861956,39.217557273861956 0 0,0 0.6595221758185754,0.1441460028187739 l -4.042867873455486 17.763293962106864" fill="#ff7a0b" stroke="none" /><path d="M 104.66035177308747 79.52364482259891 l 3.222376547663498 -14.15827171809651 a35.520343269302664,35.520343269302664 0 0,0 0.5950102568143254,0.1408197037775728 l -3.465610491440347 14.100706102178068" fill="#ff3d05" stroke="none" /><path d="M 105.71112130821622 79.79150937346287 l 12.047421586763724 -42.62914287248731 a65.29880572805723,65.29880572805723 0 0,0 1.0790154456482557,0.31499419713643495 l -12.779427250135408 42.41545034643217" fill="#31ff43" stroke="none" /><path d="M 106.0581310904928 79.89281104454417 l 18.174393271478365 -60.321566866367476 a84.0,84.0 0 0,0 1.380858509157127,0.4290394604699177 l -19.21003715334621 59.99978727101504" fill="#4dd2ff" stroke="none" /><path d="M 106.40334571778207 80.00007090966166 l 7.89832688321824 -24.669287675348663 a46.90284389721093,46.90284389721093 0 0,0 0.7667881902664242,0.25279801058931983 l -8.321797895727082 24.529675940500105" fill="#fff016" stroke="none" /><path d="M 107.08798089147638 80.2323363322302 l 7.49331860268855 -20.898109653698064 a43.200919142670344,43.200919142670344 0 0,0 0.6978340626696959,0.2570181745451631 l -7.851934991130823 20.766028211346576" fill="#ffb811" stroke="none" /><path d="M 107.4271985657038 80.35727306442388 l 6.715754017114961 -17.76116811173301 a39.988429232341396,39.988429232341396 0 0,0 0.6417511360246901,0.24898947057548465 l -7.020488318139318 17.642935937266977" fill="#ff860c" stroke="none" /><path d="M 110.36928655335952 81.73862282372117 l 20.39352200664272 -35.91508397416097 a62.301198489952505,62.301198489952505 0 0,0 0.9280008789992046,0.5375580074284152 l -21.00871961810725 35.55872180934251" fill="#43ff2d" stroke="none" /><line stroke="#e1ed5e" stroke-width="0.3" x1="143.23703022742887" x2="145.7803849466894" y1="26.81831364943548" y2="22.513508569990506" /><path d="M 143.74570117128098 25.957352633546492 a86.0,86.0 0 0,1 28.547481713284135,27.462654790039103" fill="none" id="id62" stroke="none" /><text fill="#e1ed5e" style="font-size:6.75px; font-family:Arial;" text-anchor="middle"><textPath startOffset="19.985693538727396" xlink:href="#id62">February</textPath></text><path d="M 110.68208982089419 81.91981866633111 l 6.281602864903436 -10.632050541402483 a33.34904989330353,33.34904989330353 0 0,0 0.4917205191698772,0.2962561109014096 l -6.463685450290951 10.52234782104246" fill="#ff1802" stroke="none" /><path d="M 112.19680574252982 82.90503203632743 l 13.75073958955957 -19.272952092747516 a44.67550467528035,44.67550467528035 0 0,0 0.6221695517401881,0.45203263896927565 l -14.080454457653547 19.033400218961564" fill="#ffcf13" stroke="none" /><line stroke="#e1ed5e" stroke-width="0.3" x1="172.23445277983987" x2="176.4835382374775" y1="55.19839476539836" y2="52.563006222186495" /><path d="M 173.08426987136738 54.67131705675599 a86.0,86.0 0 0,1 12.851231095245387,41.99856678651699" fill="none" id="id63" stroke="none" /><text fill="#e1ed5e" style="font-size:6.75px; font-family:Arial;" text-anchor="middle"><textPath startOffset="22.20632615414155" xlink:href="#id63">March</textPath></text><line stroke="#e1ed5e" stroke-width="0.3" x1="184.98032266829074" x2="189.97916517819016" y1="98.17113171792111" y2="98.06355123074" /><path d="M 185.9800911702706 98.14961562048488 a86.0,86.0 0 0,1 -9.607161424134198,41.387399972396054" fill="none" id="id64" stroke="none" /><text fill="#e1ed5e" style="font-size:6.75px; font-family:Arial;" text-anchor="middle"><textPath startOffset="21.466115282336823" xlink:href="#id64">April</textPath></text><line stroke="#e1ed5e" stroke-width="0.3" x1="174.80103733775053" x2="179.2010983576182" y1="140.37084112569926" y2="142.7455964860345" /><path d="M 175.68104954172406 140.8457921977663 a86.0,86.0 0 0,1 -30.038265399797805,32.042727171017184" fill="none" id="id65" stroke="none" /><text fill="#e1ed5e" style="font-size:6.75px; font-family:Arial;" text-anchor="middle"><textPath startOffset="22.206326154141568" xlink:href="#id65">May</textPath></text><line stroke="#e1ed5e" stroke-width="0.3" x1="143.8653032363475" x2="146.44561519142675" y1="172.8068346515853" y2="177.08958963109032" /><path d="M 144.38136562736335 173.6633856474863 a86.0,86.0 0 0,1 -40.68145358897372,12.25698825130547" fill="none" id="id66" stroke="none" /><text fill="#e1ed5e" style="font-size:6.75px; font-family:Arial;" text-anchor="middle"><textPath startOffset="21.466115282336833" xlink:href="#id66">June</textPath></text><line stroke="#e1ed5e" stroke-width="0.3" x1="102.19456741930631" x2="102.32365962044197" y1="184.97166512339345" y2="189.96999836594603" /><path d="M 102.22038585953345 185.97133177190398 a86.0,86.0 0 0,1 -42.740103519485714,-10.115201625700543" fill="none" id="id67" stroke="none" /><text fill="#e1ed5e" style="font-size:6.75px; font-family:Arial;" text-anchor="middle"><textPath startOffset="22.20632615414155" xlink:href="#id67">July</textPath></text><line stroke="#e1ed5e" stroke-width="0.3" x1="58.666819895761336" x2="56.23545636021788" y1="174.27360380694188" y2="178.64263932499728" /><path d="M 58.180547188652646 175.14741091055294 a86.0,86.0 0 0,1 -31.652253787137756,-30.449443065178592" fill="none" id="id68" stroke="none" /><text fill="#e1ed5e" style="font-size:6.75px; font-family:Arial;" text-anchor="middle"><textPath startOffset="22.20632615414155" xlink:href="#id68">August</textPath></text><line stroke="#e1ed5e" stroke-width="0.3" x1="26.63291911575756" x2="22.317208475507996" y1="142.92168965132927" y2="145.44649492493687" /><path d="M 25.769776987707644 143.4266507060508 a86.0,86.0 0 0,1 -11.730757126820373,-40.83630448921669" fill="none" id="id69" stroke="none" /><text fill="#e1ed5e" style="font-size:6.75px; font-family:Arial;" text-anchor="middle"><textPath startOffset="21.46611528233685" xlink:href="#id69">September</textPath></text><line stroke="#e1ed5e" stroke-width="0.3" x1="15.007084014347285" x2="10.007500721073583" y1="101.09737516637583" y2="101.16192664675087" /><path d="M 14.007167355692545 101.11028546245083 a86.0,86.0 0 0,1 10.666146001902534,-42.60595125391555" fill="none" id="id70" stroke="none" /><text fill="#e1ed5e" style="font-size:6.75px; font-family:Arial;" text-anchor="middle"><textPath startOffset="22.20632615414155" xlink:href="#id70">October</textPath></text><line stroke="#e1ed5e" stroke-width="0.3" x1="26.266209847984243" x2="21.928928074336255" y1="57.711370442889674" y2="55.22380399835377" /><path d="M 25.398753493254645 57.213857153982495 a86.0,86.0 0 0,1 29.58750427330803,-30.492523968695096" fill="none" id="id71" stroke="none" /><text fill="#e1ed5e" style="font-size:6.75px; font-family:Arial;" text-anchor="middle"><textPath startOffset="21.46611528233685" xlink:href="#id71">November</textPath></text><line stroke="#e1ed5e" stroke-width="0.3" x1="56.762969772571076" x2="54.21961505331055" y1="26.818313649435495" y2="22.513508569990535" /><path d="M 56.25429882871897 25.957352633546506 a86.0,86.0 0 0,1 42.265352541879196,-11.944610805530505" fill="none" id="id72" stroke="none" /><text fill="#e1ed5e" style="font-size:6.75px; font-family:Arial;" text-anchor="middle"><textPath startOffset="22.20632615414155" xlink:href="#id72">December</textPath></text></svg>