<?xml version="1.0" encoding="utf-8" ?>
<svg baseProfile="full" height="200mm" version="1.1" viewBox="0,0,200,200" width="200mm" xmlns="http://www.w3.org/2000/svg" xmlns:ev="http://www.w3.org/2001/xml-events" xmlns:xlink="http://www.w3.org/1999/xlink"><defs /><rect fill="#1a1a1a" height="200" width="200" x="0" y="0" /><text alignment-baseline="middle" fill="#e1ed5e" style="dominant-baseline: central; font-size:9.0px; font-family:Arial;" text-anchor="middle" x="100.0" y="100.0">2025</text><line stroke="#e1ed5e" stroke-width="0.3" x1="100.0" x2="100.0" y1="15.0" y2="10.0" /><path d="M 100.0 14.0 a86.0,86.0 0 0,1 42.46469731375804,11.215312516191453" fill="none" id="id49" stroke="none" /><text fill="#e1ed5e" style="font-size:6.75px; font-family:Arial;" text-anchor="middle"><textPath startOffset="22.20632615414155" xlink:href="#id49">January</textPath></text><path d="M 100.36148047927253 79.00311137660856 l 0.07406689660694757 -4.302236131439469 a25.30287364860232,25.30287364860232 0 0,0 0.4354183137921206,0.011245570436096015 l -0.14811184559393595 4.300323768861013" fill="#ff3805" stroke="none" /><path d="M 101.08401301168833 79.027996857942 l 0.530919474178483 -10.271504825674779 a31.285216909327787,31.285216909327787 0 0,0 0.5375663605319128,0.032427470897337794 l -0.7076478835500075 10.260844085397137" fill="#ff890c" stroke="none" /><path d="M 101.44485096284872 79.0497635885617 l 0.7606545384651958 -11.029436819462399 a32.055635299764575,32.055635299764575 0 0,0 0.5501507356313334,0.04270228537586264 l -0.9503954634588704 11.014709271898072" fill="#ff930d" stroke="none" /><path d="M 101.80526077348638 79.07773832637324 l 0.7217680227884404 -8.36500724007446 a29.396088089415098,29.396088089415098 0 0,0 0.5037577840582022,0.047837871611410294 l -0.8656509339368867 8.351343823947872" fill="#ff700a" stroke="none" /><path d="M 102.16513564639614 79.11191278185805 l 0.44154395963155596 -4.259783332642176 a25.2826061118603,25.2826061118603 0 0,0 0.432493044639464,0.048595632832552436 l -0.5148037077807452 4.251551746339023" fill="#ff3705" stroke="none" /><path d="M 102.52436894288641 79.15227682838746 l 1.298074407483498 -10.720261782506288 a31.79856517565313,31.79856517565313 0 0,0 0.5428246319073792,0.07047421639282785 l -1.4824137678987233 10.696329242949323" fill="#ff900d" stroke="none" /><path d="M 102.88285421437855 79.19881850522331 l 0.5005525384764257 -3.6117276234739424 a24.64624865717355,24.64624865717355 0 0,0 0.4197268112320881,0.06185682137968373 l -0.5626483301371695 3.6025763179332895" fill="#ff2e04" stroke="none" /><path d="M 103.2404852339499 79.25152402106235 l 1.1472222080647896 -7.345539543632456 a28.43458606660419,28.43458606660419 0 0,0 0.4829422088327712,0.07968960246593024 l -1.273493623036436 7.324703678226901" fill="#ff6309" stroke="none" /><path d="M 103.59715602781102 79.31037775812273 l 1.834785131131345 -10.553062187080366 a31.711375168567578,31.711375168567578 0 0,0 0.5369866536418547,0.09813087862073842 l -2.0161669058761005 10.519915827108889" fill="#ff8f0d" stroke="none" /><path d="M 103.95276090670814 79.375362276772 l 2.472734235583982 -12.902183814911059 a34.13699972572056,34.13699972572056 0 0,0 0.5761571134669949,0.11557169675676933 l -2.6944577585181024 12.857708162077081" fill="#ffae10" stroke="none" /><path d="M 104.307194497241 79.44645832069477 l 0.8130517518311414 -3.879809253888551 a24.96408539233389,24.96408539233389 0 0,0 0.4198213519597782,0.09175668688905858 l -0.8797158279444476 3.865239068903622" fill="#ff3304" stroke="none" /><path d="M 104.66035177308747 79.52364482259891 l 2.020312185162806 -8.876718300863004 a30.103723914881947,30.103723914881947 0 0,0 0.5042750955940609,0.11934562265221978 l -2.1728109677193905 8.840626766069915" fill="#ff790b" stroke="none" /><path d="M 105.01212808612495 79.60689891045804 l 1.0613640322808553 -4.318425952246856 a25.4469423556033,25.4469423556033 0 0,0 0.4244684627291613,0.10820646233423366 l -1.1355413836950417 4.299516493743754" fill="#ff3a05" stroke="none" /><path d="M 106.0581310904928 79.89281104454417 l 2.670692010273899 -8.86413781581529 a30.257728394779548,30.257728394779548 0 0,0 0.49740049668686376,0.15454475554216102 l -2.822877879671481 8.81685292539061" fill="#ff7b0b" stroke="none" /><path d="M 106.40334571778207 80.00007090966166 l 4.41550723702437 -13.791201589057899 a35.480813009988346,35.480813009988346 0 0,0 0.5800558374825578,0.19123528975500095 l -4.652245896749346 13.713152575043662" fill="#ffbf11" stroke="none" /><path d="M 106.74666289553966 80.11325718540242 l 3.2915483418602602 -9.70230413908271 a31.24543781856415,31.24543781856415 0 0,0 0.5078395342094245,0.17717524179502198 l -3.4580698801329586 9.64420804411548" fill="#ff880c" stroke="none" /><path d="M 107.76421540070413 80.48803036053334 l 4.5872154428230445 -11.527965651485996 a33.4071164087678,33.4071164087678 0 0,0 0.5324714634549068,0.21720847950548391 l -4.784970775866339 11.447296285796932" fill="#ffa50f" stroke="none" /><path d="M 108.09893153111575 80.62456947434976 l 6.492635422495626 -15.53261761426563 a37.834979200475416,37.834979200475416 0 0,0 0.598722767237313,0.2563418428648397 l -6.759041947523254 15.418556243438001" fill="#ffdd14" stroke="none" /><path d="M 108.43124777332544 80.76684994638697 l 7.980976437731523 -18.206002424324144 a40.878493634431216,40.878493634431216 0 0,0 0.6420218176560626,0.2880564750954863 l -8.293180373854366 18.065925618712125" fill="#fcff18" stroke="none" /><path d="M 108.76106565485865 80.91482961587045 l 5.286796794748789 -11.516797338243272 a33.672286347740624,33.672286347740624 0 0,0 0.5246812270638007,0.24634487131361538 l -5.484256233112188 11.424087484289654" fill="#ffa80f" stroke="none" /><path d="M 109.41281617654863 81.2277094730956 l 1.655396832703767 -3.301412637617968 a24.693191584192363,24.693191584192363 0 0,0 0.37832263905597596,0.1937915498554932 l -1.7119799593484986 3.2724285624499743" fill="#ff2f04" stroke="none" /><path d="M 109.73455568895987 81.39251694778311 l 1.9302348344186206 -3.6896200623698796 a25.164024822289775,25.164024822289775 0 0,0 0.3820797125653157,0.2040937501939936 l -1.9934595935122474 3.655847585674132" fill="#ff3605" stroke="none" /><line stroke="#e1ed5e" stroke-width="0.3" x1="143.23703022742887" x2="145.7803849466894" y1="26.81831364943548" y2="22.513508569990506" /><path d="M 143.74570117128098 25.957352633546492 a86.0,86.0 0 0,1 28.547481713284135,27.462654790039103" fill="none" id="id50" stroke="none" /><text fill="#e1ed5e" style="font-size:6.75px; font-family:Arial;" text-anchor="middle"><textPath startOffset="19.985693538727396" xlink:href="#id50">February</textPath></text><path d="M 110.99172775467656 82.1063720568725 l 5.876721679210279 -9.566819120711976 a32.22763936824301,32.22763936824301 0 0,0 0.4701872126992054,0.2944311894571846 l -6.040528044281747 9.464243589931847" fill="#ff950d" stroke="none" /><path d="M 111.2981086023043 82.29822771554956 l 6.983698416470411 -10.941994224274211 a33.98072729766177,33.98072729766177 0 0,0 0.4903467075725594,0.31893513848623 l -7.17101214982725 10.820160161628452" fill="#ffac0f" stroke="none" /><path d="M 111.60114157652 82.49532879139004 l 8.440134771333957 -12.735107416288889 a36.27805078741057,36.27805078741057 0 0,0 0.5175587481899651,0.3494579771103338 l -8.658098213930463 12.587937526879886" fill="#ffc912" stroke="none" /><path d="M 112.77801427241765 83.33499621200491 l 4.960136524664804 -6.4689780595206745 a29.15172567484172,29.15172567484172 0 0,0 0.39558537039299413,0.30876065626290433 l -5.070754450217229 6.382639014034546" fill="#ff6d0a" stroke="none" /><path d="M 113.06298171725822 83.55741782278167 l 2.5439538096398975 -3.2021149899328747 a25.089650522273775,25.089650522273775 0 0,0 0.3358388330007523,0.27155831359460353 l -2.598696041205141 3.1578505790741414" fill="#ff3505" stroke="none" /><path d="M 113.34407831869373 83.78471172551755 l 5.350265974556455 -6.501468520388631 a29.419883545518957,29.419883545518957 0 0,0 0.3882618565800504,0.32515813907255087 l -5.461385368095623 6.408409223922261" fill="#ff700a" stroke="none" /><path d="M 113.6212207817346 84.01681056812373 l 2.2753067643617824 -2.6698531367459912 a24.50786782016411,24.50786782016411 0 0,0 0.31872622303010606,0.2763962398313521 l -2.320926786038653 2.630291903494968" fill="#ff2d04" stroke="none" /><path d="M 114.16331599549186 84.49514656593476 l 4.838936032091011 -5.297276003604609 a28.174708006674134,28.174708006674134 0 0,0 0.3552590741214056,0.3301745918632672 l -4.929402990007264 5.213196825666702" fill="#ff5f08" stroke="none" /><path d="M 114.68862486808459 84.99185889309783 l 9.208373831683515 -9.408680191111259 a34.16500708555233,34.16500708555233 0 0,0 0.4167548429689652,0.4149651652290035 l -9.368964474819803 9.248779175232135" fill="#ffaf10" stroke="none" /><path d="M 115.4437574822437 85.77008943001954 l 3.159191070528914 -2.9108852854490803 a25.29578181070147,25.29578181070147 0 0,0 0.2922943962836154,0.32275877285786186 l -3.2088291074285653 2.8560737253216693" fill="#ff3805" stroke="none" /><path d="M 115.68641384162765 86.03803664274999 l 3.1750816798762074 -2.826036245012621 a25.25060284336358,25.25060284336358 0 0,0 0.2861832822040406,0.32715696334175454 l -3.2232568256580962 2.7709637254679187" fill="#ff3705" stroke="none" /><path d="M 116.38621287248628 86.86637796730983 l 12.842751923328713 -10.293522422366252 a37.458823798313176,37.458823798313176 0 0,0 0.3989291946782119,0.5065995653473275 l -13.01803519860089 10.070930463065885" fill="#ffd814" stroke="none" /><path d="M 116.60985879189232 87.15038557335679 l 13.6473256533784 -10.557758184334956 a38.25444161276313,38.25444161276313 0 0,0 0.39843651304776967,0.5242957469677779 l -13.827038106650283 10.321277661486144" fill="#ffe215" stroke="none" /><path d="M 117.04232023915458 87.72973835380427 l 6.55943913001334 -4.722715759831942 a29.082715252222805,29.082715252222805 0 0,0 0.2890093169036207,0.40878318289774007 l -6.639761066720843 4.609106076602409" fill="#ff6c09" stroke="none" /><path d="M 117.2510076193507 88.02491185347247 l 3.2876021714660872 -2.282146449802769 a25.002064524239447,25.002064524239447 0 0,0 0.24237184023365957,0.3556507684286501 l -3.32639847736848 2.225217658103712" fill="#ff3304" stroke="none" /><line stroke="#e1ed5e" stroke-width="0.3" x1="172.23445277983987" x2="176.4835382374775" y1="55.19839476539836" y2="52.563006222186495" /><path d="M 173.08426987136738 54.67131705675599 a86.0,86.0 0 0,1 12.851231095245387,41.99856678651699" fill="none" id="id51" stroke="none" /><text fill="#e1ed5e" style="font-size:6.75px; font-family:Arial;" text-anchor="middle"><textPath startOffset="22.20632615414155" xlink:href="#id51">March</textPath></text><path d="M 117.84615892207809 88.93136811851018 l 17.015821621084843 -10.553636023709245 a41.02292233320381,41.02292233320381 0 0,0 0.3670266197400111,0.6032952597007754 l -17.194964039111078 10.259172990801389" fill="#faff18" stroke="none" /><path d="M 118.03404312379186 89.2402003453031 l 10.397696955493725 -6.203663556940688 a33.107747251491396,33.107747251491396 0 0,0 0.2877856648019698,0.49191898824043107 l -10.502942294766022 6.023765156346362" fill="#ffa10e" stroke="none" /><path d="M 118.21658344932153 89.55222093294921 l 6.017674362473898 -3.4513240318356537 a27.937149436584306,27.937149436584306 0 0,0 0.23565964508392004,0.419212212994457 l -6.076191648850251 3.3472283089064025" fill="#ff5c08" stroke="none" /><path d="M 118.56541770881063 90.18545643968196 l 3.5611370274862857 -1.8825827152781447 a25.028127928504492,25.028127928504492 0 0,0 0.19806851273234688,0.3826053226575063 l -3.5930149733787493 1.8210046703602936" fill="#ff3404" stroke="none" /><path d="M 119.04729006885535 91.15688171328212 l 10.698933925421754 -4.967212548465648 a32.795778382208404,32.795778382208404 0 0,0 0.23331491922311848,0.5140784974436318 l -10.78285116160822 4.782312042179953" fill="#ff9d0e" stroke="none" /><path d="M 119.196687751892 91.48605970444005 l 12.759395680205317 -5.6589310839827975 a34.95799696006948,34.95799696006948 0 0,0 0.23922804421206234,0.5521713092949517 l -12.85491443426006 5.438460630101243" fill="#ffb911" stroke="none" /><path d="M 119.34039704204932 91.81776055985345 l 1.2214010428831876 -0.516731676375967 a22.326209686635735,22.326209686635735 0 0,0 0.1466920357517637,0.35522640008079953 l -1.2301147655211488 0.49563070584186436" fill="#ff0e01" stroke="none" /><path d="M 119.47837535516314 92.15188598940014 l 3.1977641385567113 -1.2884245775533012 a24.44756919841832,24.44756919841832 0 0,0 0.1539107779878271,0.3916861421279531 l -3.219468466426239 1.2331894305295636" fill="#ff2c04" stroke="none" /><path d="M 119.61058180528143 92.48833698450437 l 5.725845241370636 -2.1932352828242996 a27.13152385088341,27.13152385088341 0 0,0 0.16330000579573228,0.4375628278776675 l -5.762749835667993 2.094349317917299" fill="#ff5107" stroke="none" /><path d="M 119.7369772167798 92.82701384747503 l 3.5240525976002837 -1.2807422436433618 a24.749566295627528,24.749566295627528 0 0,0 0.14207066515387012,0.4016529018315106 l -3.5455763435639636 1.2198917153852364" fill="#ff3004" stroke="none" /><path d="M 119.97218684219823 93.5106431181261 l 13.732869920837162 -4.462079923084428 a35.43959395213824,35.43959395213824 0 0,0 0.18351721427507042,0.5817997198530924 l -13.807642618880438 4.225030036804916" fill="#ffbf11" stroke="none" /><path d="M 120.08093135843002 93.85539295169968 l 14.153049692862437 -4.330721884630072 a35.80080969577838,35.80080969577838 0 0,0 0.1752434340643909,0.5908337414874616 l -14.22549902403853 4.08645875639608" fill="#ffc312" stroke="none" /><path d="M 120.18372546131832 94.20196356495316 l 1.8798115545589091 -0.5400002048800517 a22.955835295193253,22.955835295193253 0 0,0 0.10582993091782497,0.3807265692329561 l -1.8888282560430971 0.5075623322281437" fill="#ff1702" stroke="none" /><path d="M 120.28053869075195 94.5502522615342 l 3.5111415588223163 -0.9435072737170829 a24.63570089826518,24.63570089826518 0 0,0 0.10652438135755035,0.4104818954005897 l -3.526862272050169 0.8829289527676427" fill="#ff2e04" stroke="none" /><path d="M 120.37134235888165 94.90015583598534 l 7.407234918775706 -1.854357121220048 a28.635821466937898,28.635821466937898 0 0,0 0.11558944752302093,0.47919288414507555 l -7.438057166559546 1.7265790054155663" fill="#ff6609" stroke="none" /><path d="M 120.45610955862082 95.25157060432595 l 3.734089780261719 -0.8667856235257795 a24.833372380059885,24.833372380059885 0 0,0 0.09307265695139438,0.41722647139905233 l -3.7484568242151504 0.8023809825767633" fill="#ff3104" stroke="none" /><path d="M 120.98425023603335 99.18683210126433 l 3.7387323673148467 -0.14488090395738323 a24.74153847912048,24.74153847912048 0 0,0 0.012828258599908502,0.4257074500542531 l -3.7406723203704 0.08050330647813105" fill="#ff3004" stroke="none" /><line stroke="#e1ed5e" stroke-width="0.3" x1="184.98032266829074" x2="189.97916517819016" y1="98.17113171792111" y2="98.06355123074" /><path d="M 185.9800911702706 98.14961562048488 a86.0,86.0 0 0,1 -9.607161424134198,41.387399972396054" fill="none" id="id52" stroke="none" /><text fill="#e1ed5e" style="font-size:6.75px; font-family:Arial;" text-anchor="middle"><textPath startOffset="21.466115282336823" xlink:href="#id52">April</textPath></text><path d="M 120.99513854157772 99.54816195383933 l 3.7557164929213913 -0.08082707331196652 a24.756586135174054,24.756586135174054 0 0,0 0.005501848156310437,0.42612420295564196 l -3.7565513481954174 0.016166612295861863" fill="#ff3004" stroke="none" /><path d="M 120.99980553446 99.90962569577887 l 2.0205791036382683 -0.008695720077760183 a23.020597814907088,23.020597814907088 0 0,0 -0.0017053907818053318,0.39627275791304184 l -2.02042941556696 -0.026086516038966376" fill="#ff1702" stroke="none" /><path d="M 120.99824983174949 100.27111621757518 l 3.6514161928004585 0.04714479325262719 a24.651720532102125,24.651720532102125 0 0,0 -0.009130454143114523,0.4242563265998875 l -3.6500636759723366 -0.10999093564262952" fill="#ff2f04" stroke="none" /><path d="M 120.9764740272857 100.99374915477107 l 7.999189538409091 0.37895729436260145 a29.008160956321,29.008160956321 0 0,0 -0.02792194223662596,0.49856503553479636 l -7.991481245284936 -0.5165940462328211" fill="#ff6b09" stroke="none" /><path d="M 120.92983693683757 101.71520430193887 l 3.6629128180819017 0.30017643434877117 a24.675191995611527,24.675191995611527 0 0,0 -0.03833514765702405,0.42302515997892803 l -3.6572030741478025 -0.36318298287626977" fill="#ff2f04" stroke="none" /><path d="M 120.89721153311464 102.0752229133903 l 3.637715377168281 0.3612477335135964 a24.655608443235582,24.655608443235582 0 0,0 -0.04557495118369707,0.42196744574606 l -3.630958124483532 -0.4238115011444478" fill="#ff2f04" stroke="none" /><path d="M 120.81339534386255 102.79330883721812 l 3.695161428623005 0.49591750423189934 a24.728290781924983,24.728290781924983 0 0,0 -0.0602498316473629,0.4213871822141409 l -3.6860775459590407 -0.5594501584264496" fill="#ff3004" stroke="none" /><path d="M 120.70491114924044 103.5080841355445 l 3.4196396132397893 0.5793979694004203 a24.468376722817766,24.468376722817766 0 0,0 -0.07393359777370333,0.41465887979269656 l -3.4091595731268973 -0.6381755999263352" fill="#ff2c04" stroke="none" /><path d="M 120.64145759157962 103.86396538481128 l 5.314086665266542 0.9947672946727097 a26.406392425315993,26.406392425315993 0 0,0 -0.08748069004286423,0.4460621538351355 l -5.296176042248014 -1.08609317557579" fill="#ff4706" stroke="none" /><path d="M 120.5718875245553 104.21870165774334 l 8.020842633735391 1.6448438226705402 a29.187760851180542,29.187760851180542 0 0,0 -0.10516761820407824,0.4913081001465751 l -7.991340976806869 -1.7826657422332841" fill="#ff6d0a" stroke="none" /><path d="M 120.49622156327973 104.57218783832717 l 6.2546948260762125 1.3952639772136333 a27.408429521610934,27.408429521610934 0 0,0 -0.10668331037280031,0.4595889089243852 l -6.229750949772859 -1.5027215434865833" fill="#ff5507" stroke="none" /><path d="M 120.41448212921028 104.9243191809786 l 3.1312183524566692 0.7553029508777976 a24.221026376539964,24.221026376539964 0 0,0 -0.10125390819148132,0.40445903102256814 l -3.117753129970127 -0.8090898212977617" fill="#ff2803" stroke="none" /><path d="M 120.32669344350535 105.2749913415812 l 3.678826735991686 0.9546943399067201 a24.80068512719709,24.80068512719709 0 0,0 -0.11079047522972545,0.4122925733982303 l -3.6618481844201836 -1.0178778464804987" fill="#ff3104" stroke="none" /><path d="M 120.23288151984713 105.62410040840565 l 7.439125209949233 2.0678412558495736 a28.721175515988207,28.721175515988207 0 0,0 -0.13650403779915743,0.4751884632262349 l -7.402428535263976 -2.1955871945803906" fill="#ff6709" stroke="none" /><path d="M 120.02730092923936 106.31721596034902 l 8.12693873517351 2.5634820821842346 a29.521653219354988,29.521653219354988 0 0,0 -0.15703797273395767,0.4833131833946813 l -8.081608511423305 -2.7029941655567113" fill="#ff720a" stroke="none" /><path d="M 119.79798401119884 107.00284435728193 l 7.091373966060141 2.5083255009959533 a28.52192007039839,28.52192007039839 0 0,0 -0.16770310277344272,0.46144691321585224 l -7.0471466022814715 -2.6300202112179365" fill="#ff6409" stroke="none" /><path d="M 119.54520255179757 107.68017299344265 l 3.434627860365653 1.3496169234265605 a24.690275650842267,24.690275650842267 0 0,0 -0.15883769969967373,0.39422214446964765 l -3.4108875464085866 -1.4085384357390216" fill="#ff2f04" stroke="none" /><path d="M 119.41010516605496 108.01547362559984 l 7.231440954405142 2.986249881143626 a28.823773170898953,28.823773170898953 0 0,0 -0.1933238175931699,0.45696039785773546 l -7.178966155619663 -3.110284804667525" fill="#ff6809" stroke="none" /><path d="M 119.26925614724726 108.34839909993367 l 2.9836054471508575 1.2926461114644388 a24.251589677950218,24.251589677950218 0 0,0 -0.16925174651155442,0.38161800722740064 l -2.96091261590803 -1.3438124551845272" fill="#ff2904" stroke="none" /><path d="M 119.12269723197855 108.67885076344098 l 7.000615733531191 3.177234804612751 a28.687876277113666,28.687876277113666 0 0,0 -0.20795347420643526,0.4479132830311076 l -6.944887642484924 -3.297268154922689" fill="#ff6609" stroke="none" /><path d="M 118.97047184881838 109.00673069616215 l 5.940310297026794 2.8203186258802466 a27.575825695412675,27.575825695412675 0 0,0 -0.20727401343719867,0.4270458602154638 l -5.890883026974881 -2.922153442060986" fill="#ff5708" stroke="none" /><line stroke="#e1ed5e" stroke-width="0.3" x1="174.80103733775053" x2="179.2010983576182" y1="140.37084112569926" y2="142.7455964860345" /><path d="M 175.68104954172406 140.8457921977663 a86.0,86.0 0 0,1 -30.038265399797805,32.042727171017184" fill="none" id="id53" stroke="none" /><text fill="#e1ed5e" style="font-size:6.75px; font-family:Arial;" text-anchor="middle"><textPath startOffset="22.206326154141568" xlink:href="#id53">May</textPath></text><path d="M 118.48025628344425 109.97397251340804 l 43.680941757848 23.575025463410697 a70.63674544581838,70.63674544581838 0 0,0 -0.5867007031104462,1.065032194884556 l -43.26866464528604 -24.32342817669306" fill="#3dffa9" stroke="none" /><path d="M 118.12598468904814 110.60418214915192 l 6.327398401470187 3.701696008823348 a28.330656442138466,28.330656442138466 0 0,0 -0.24987520843367925,0.41880522212998195 l -6.262742317338281 -3.810063324839434" fill="#ff6109" stroke="none" /><path d="M 117.75023020441432 111.22182372390056 l 6.204902504606693 3.922784173997297 a28.34091620762954,28.34091620762954 0 0,0 -0.26423874099487593,0.41010439399688703 l -6.136458900234767 -4.029010167915637" fill="#ff6209" stroke="none" /><path d="M 117.55443506779139 111.5257021239791 l 3.1279181805869105 2.0536948684705933 a24.74186247171493,24.74186247171493 0 0,0 -0.23681131062712965,0.3540007784070005 l -3.09210376454906 -2.107232561083401" fill="#ff3004" stroke="none" /><path d="M 117.35343817320211 111.8261652097733 l 5.153942579292672 3.5123516052584827 a27.236965440789923,27.236965440789923 0 0,0 -0.2673620641724134,0.38515499424536875 l -5.092719607958123 -3.600547861690871" fill="#ff5207" stroke="none" /><path d="M 117.14729908036423 112.12312394758627 l 3.0563137217678533 2.1608108599522566 a24.743014445384105,24.743014445384105 0 0,0 -0.24886784040035664,0.34565566371966255 l -3.018666088991894 -2.2131001291230508" fill="#ff3004" stroke="none" /><path d="M 116.71984013943494 112.70617746262583 l 5.757178160969346 4.375145144162996 a28.230974720577816,28.230974720577816 0 0,0 -0.29735710245146946,0.3843741390593174 l -5.681014241299808 -4.473597277335566" fill="#ff6008" stroke="none" /><path d="M 116.498646956653 112.99209946851258 l 5.376720152124765 4.2339764717853035 a27.84365957349546,27.84365957349546 0 0,0 -0.29975965201950994,0.3739962560478836 l -5.303042588050402 -4.325900561411437" fill="#ff5b08" stroke="none" /><path d="M 116.0416608686014 113.55231037782055 l 6.590936967742864 5.568153085840068 a29.628138785399187,29.628138785399187 0 0,0 -0.33248061105980226,0.38675006429992703 l -6.494113847112283 -5.680780249301523" fill="#ff730a" stroke="none" /><path d="M 115.80600337817218 113.82643327865902 l 1.7027282764241307 1.4894757607211662 a23.262260291193343,23.262260291193343 0 0,0 -0.2662323046745328,0.29911481661112166 l -1.6768371221012597 -1.5185647470731543" fill="#ff1b02" stroke="none" /><path d="M 115.56566222782051 114.09645910891815 l 16.410947312630533 14.861959892566553 a43.14039393385294,43.14039393385294 0 0,0 -0.5032092597417545,0.546134266413853 l -16.152691644893057 -15.14224541378174" fill="#e1ff1b" stroke="none" /><path d="M 115.07121518719521 114.62390073753431 l 4.910554721377483 4.764809202158245 a27.842291604763318,27.842291604763318 0 0,0 -0.3367052844270096,0.341080675461319 l -4.827808811894938 -4.848630371600229" fill="#ff5b08" stroke="none" /><path d="M 114.55890576462653 115.13401014063108 l 2.6760736965076455 2.781783680365879 a24.860011771159517,24.860011771159517 0 0,0 -0.31094448804315783,0.2940174216211763 l -2.62779337407368 -2.827435738732977" fill="#ff3104" stroke="none" /><path d="M 114.29624159901734 115.38237550388516 l 2.5783131705553335 2.7741963565319807 a24.787329432470116,24.787329432470116 0 0,0 -0.3150356853828351,0.2877776291732145 l -2.5301779357056344 -2.818166752291778" fill="#ff3004" stroke="none" /><path d="M 114.0293411484842 115.62618273729858 l 4.524647703456561 5.0396501936763896 a27.772777193664147,27.772777193664147 0 0,0 -0.35847731616019934,0.3163145520685152 l -4.437228034389774 -5.1167878875171935" fill="#ff5a08" stroke="none" /><path d="M 113.48314897796784 116.09983520530334 l 4.960375652262253 5.923039987789107 a28.7257834106649,28.7257834106649 0 0,0 -0.38182020147009227,0.3142120316229151 l -4.85768532224747 -6.0075471382692" fill="#ff6709" stroke="none" /><path d="M 112.92097659922987 116.55440617244103 l 4.489198416462909 5.751578714199939 a28.29613323124043,28.29613323124043 0 0,0 -0.3865403675601642,0.2963826709182872 l -4.389529320409251 -5.828000726945597" fill="#ff6108" stroke="none" /><path d="M 112.63410532772338 116.77436683061366 l 3.8883422080195107 5.162572011898116 a27.46307627254234,27.46307627254234 0 0,0 -0.3800563201591485,0.28115657979035763 l -3.798900917441798 -5.228738540428243" fill="#ff5607" stroke="none" /><path d="M 112.34349029814194 116.9893568818739 l 2.129986320983916 2.9316746630531707 a24.62374917144751,24.62374917144751 0 0,0 -0.3450522127171749,0.24618559206924076 l -2.0792067804178562 -2.9679045169666307" fill="#ff2e04" stroke="none" /><path d="M 112.04921762599082 117.19931262002967 l 4.255700162887809 6.0746780239683575 a28.417054467326462,28.417054467326462 0 0,0 -0.40303923963760596,0.277214064130744 l -4.15050403862732 -6.147032877464195" fill="#ff6309" stroke="none" /><line stroke="#e1ed5e" stroke-width="0.3" x1="143.8653032363475" x2="146.44561519142675" y1="172.8068346515853" y2="177.08958963109032" /><path d="M 144.38136562736335 173.6633856474863 a86.0,86.0 0 0,1 -40.68145358897372,12.25698825130547" fill="none" id="id54" stroke="none" /><text fill="#e1ed5e" style="font-size:6.75px; font-family:Arial;" text-anchor="middle"><textPath startOffset="21.466115282336833" xlink:href="#id54">June</textPath></text><path d="M 108.2653958097858 119.30500536409082 l 3.7503872179287554 8.759561795433067 a30.528658202098235,30.528658202098235 0 0,0 -0.4848656577926994,0.20267388428111754 l -3.599050100638595 -8.822820722734157" fill="#ff7f0b" stroke="none" /><path d="M 107.93186726928326 119.44442032107085 l 1.3753135562950458 3.371485421273832 a24.641208772370916,24.641208772370916 0 0,0 -0.39411727083293663,0.1568273957179157 l -1.317075209420243 -3.394659661397817" fill="#ff2e04" stroke="none" /><path d="M 107.59598834532513 119.57807347666477 l 2.952797016858448 7.610606326602628 a29.163353409064936,29.163353409064936 0 0,0 -0.4695713452427245,0.17755170314798588 l -2.8213554508554486 -7.660306279857245" fill="#ff6d0a" stroke="none" /><path d="M 106.91757812671514 119.82793768551818 l 2.6530282160396514 7.604406799888954 a29.053915910493473,29.053915910493473 0 0,0 -0.4736207044218372,0.160677857750372 l -2.5217377786805875 -7.648947644537449" fill="#ff6b09" stroke="none" /><path d="M 106.2309692047433 120.05430185196036 l 5.7600931628834005 18.538792792611076 a40.41302427373088,40.41302427373088 0 0,0 -0.6660932885567651,0.20068844379558942 l -5.440124899886389 -18.63519660551239" fill="#fffc17" stroke="none" /><path d="M 105.53697534728816 120.25689768951611 l 1.0110412448443007 3.6988712739569563 a24.83456035290622,24.83456035290622 0 0,0 -0.4133293424721617,0.1091640360388325 l -0.9472214595606415 -3.715726659299373" fill="#ff3104" stroke="none" /><path d="M 105.18746579009965 120.34920634021253 l 2.0074944823819005 7.874927970954901 a29.126778245068685,29.126778245068685 0 0,0 -0.4868980870925838,0.119667703635753 l -1.8716431105461058 -7.908316932904684" fill="#ff6c0a" stroke="none" /><path d="M 104.83641907484287 120.43548508189849 l 0.9026541513698698 3.8140151130373323 a24.919374414299103,24.919374414299103 0 0,0 -0.4182655890845468,0.09519588631979768 l -0.8368684128924609 -3.8289877329348143" fill="#ff3204" stroke="none" /><path d="M 104.13013068566511 120.58985236759428 l 9.471353211495444 47.21733504048348 a69.15789924801719,69.15789924801719 0 0,0 -1.1692044733920608,0.2240808200556885 l -8.657181123531679 -47.37337305888764" fill="#3bff99" stroke="none" /><path d="M 103.41894727170886 120.7198165907248 l 0.6233028217623007 3.7773967016873753 a24.828476491965898,24.828476491965898 0 0,0 -0.4222781601985349,0.06595116403402149 l -0.5581887979552486 -3.787566173068502" fill="#ff3104" stroke="none" /><path d="M 103.06178313531738 120.77559828337769 l 0.4623536771561356 3.1372810669174562 a24.17116751617106,24.17116751617106 0 0,0 -0.412143047865452,0.05711927097814662 l -0.4082820381038532 -3.144774903388205" fill="#ff2803" stroke="none" /><path d="M 102.70371172650421 120.8252237178851 l 0.08282901921845806 0.6379869712617856 a21.643341295056114,21.643341295056114 0 0,0 -0.3698667459207268,0.04478571202825914 l -0.07183485024635092 -0.6393182120153956" fill="#ff0400" stroke="none" /><path d="M 102.34483914955558 120.86867818915974 l 0.43837708762893896 3.901483122611319 a24.92603426207401,24.92603426207401 0 0,0 -0.4267899722158921,0.04423852565909059 l -0.3711545188074442 -3.9084510167261683" fill="#ff3204" stroke="none" /><path d="M 101.62511606390274 120.93702456842531 l 0.28005588616034005 3.6080727397339367 a24.618925281707845,24.618925281707845 0 0,0 -0.42278577362785297,0.029157782285045467 l -0.21790735175355677 -3.6123588665352675" fill="#ff2e04" stroke="none" /><path d="M 100.90346689309514 120.98055641714683 l 0.15635092305045745 3.630824092175849 a24.634188932824394,24.634188932824394 0 0,0 -0.42380148163957,0.014596579928610645 l -0.09382908973623517 -3.632977470530553" fill="#ff2e04" stroke="none" /><line stroke="#e1ed5e" stroke-width="0.3" x1="102.19456741930631" x2="102.32365962044197" y1="184.97166512339345" y2="189.96999836594603" /><path d="M 102.22038585953345 185.97133177190398 a86.0,86.0 0 0,1 -42.740103519485714,-10.115201625700543" fill="none" id="id55" stroke="none" /><text fill="#e1ed5e" style="font-size:6.75px; font-family:Arial;" text-anchor="middle"><textPath startOffset="22.20632615414155" xlink:href="#id55">July</textPath></text><path d="M 100.54218724476979 120.99299961872073 l 0.0996083638465045 3.8567457357631283 a24.858031816415625,24.858031816415625 0 0,0 -0.42784260611348524,0.007365698465381824 l -0.033206067840351294 -3.8578889115076698" fill="#ff3104" stroke="none" /><path d="M 100.18074693466247 120.99922214144158 l 0.05641902100320879 6.554775367347284 a27.555018171013234,27.555018171013234 0 0,0 -0.47433191133132396,0.0 l 0.05641902100320427 -6.554775367347284" fill="#ff5708" stroke="none" /><path d="M 99.81925306533755 120.99922214144158 l -0.03303689257636775 3.8382340888363684 a24.838376265685355,24.838376265685355 0 0,0 -0.4275043057158053,-0.007359874317238503 l 0.09910088818484097 -3.8370967372399702" fill="#ff3104" stroke="none" /><path d="M 99.09653310690486 120.98055641714683 l -1.4933021648416729 34.677873153686285 a55.71001062832849,55.71001062832849 0 0,0 -0.9577132640779966,-0.04950283636211409 l 2.0900034973331585 -34.64703051056197" fill="#58ff2a" stroke="none" /><path d="M 98.37488393609728 120.93702456842531 l -0.6261336214185768 8.0667315436386 a29.090995062969988,29.090995062969988 0 0,0 -0.4989184368800666,-0.04304878207330969 l 0.764896376040185 -8.054758509286627" fill="#ff6c09" stroke="none" /><path d="M 98.01472825383883 120.90594882070398 l -2.7385948196743706 28.83883440716095 a49.96857386116889,49.96857386116889 0 0,0 -0.8555747787896247,-0.08868382405574908 l 3.2346021950695887 -28.78742121464944" fill="#94ff23" stroke="none" /><path d="M 97.2962882734958 120.8252237178851 l -0.5091498096472055 3.92170459146219 a24.95461760874037,24.95461760874037 0 0,0 -0.4255016706455037,-0.05897065437141113 l 0.5765800714795403 -3.912359371598174" fill="#ff3304" stroke="none" /><path d="M 96.58105272829116 120.7198165907248 l -8.102274399119155 49.10214348920505 a70.7661264885374,70.7661264885374 0 0,0 -1.2001632730396001,-0.20866376879678633 l 8.946286643630804 -48.95540114188726" fill="#3dffab" stroke="none" /><path d="M 96.22490169976321 120.6578951692458 l -0.9947329229521007 5.443325394322317 a26.53346952069667,26.53346952069667 0 0,0 -0.44858290369629344,-0.08597198112970142 l 1.0882834412200892 -5.425396214844147" fill="#ff4906" stroke="none" /><path d="M 95.86986931433489 120.58985236759428 l -1.515933358380057 7.557350220536752 a28.70789181961555,28.70789181961555 0 0,0 -0.48367129762578287,-0.101358023065426 l 1.6457961174352265 -7.5301362167447845" fill="#ff6709" stroke="none" /><path d="M 95.51606077576429 120.51570834832081 l -0.7727777316765819 3.535748762039922 a24.61921327512514,24.61921327512514 0 0,0 -0.41322745796577914,-0.09404922407991026 l 0.8335253390352237 -3.521922804382325" fill="#ff2e04" stroke="none" /><path d="M 95.16358092515715 120.4354850818985 l -1.8279422266631655 7.7236661102948805 a28.937026582249548,28.937026582249548 0 0,0 -0.4837261014760526,-0.11888810674523607 l 1.9606216128824285 -7.691056745235614" fill="#ff6a09" stroke="none" /><path d="M 94.81253420990036 120.34920634021253 l -0.9679145286794505 3.7969006950134268 a24.918330438161412,24.918330438161412 0 0,0 -0.4147235541580373,-0.1095322600168653 l 1.033128525648977 -3.7796770856929798" fill="#ff3204" stroke="none" /><path d="M 94.11515582081647 120.15858648285463 l -2.2618167451296025 7.747873533567327 a29.071267513885395,29.071267513885395 0 0,0 -0.4791568195856206,-0.14436601915782138 l 2.394848539155469 -7.70779214530378" fill="#ff6b09" stroke="none" /><path d="M 93.76903079525671 120.05430185196036 l -0.8182820201314951 2.633631156330676 a23.75782496400082,23.75782496400082 0 0,0 -0.3894910486748134,-0.12470273406375094 l 0.8634944138972488 -2.6191555756072185" fill="#ff2203" stroke="none" /><path d="M 92.7421414339146 119.70592522655815 l -2.861281055079182 7.768708911886274 a29.27887476857672,29.27887476857672 0 0,0 -0.4714314029469604,-0.178255017812918 l 2.9945826787864256 -7.718305643966723" fill="#ff6e0a" stroke="none" /><path d="M 92.40401165467489 119.57807347666478 l -2.915360501419694 7.5141165985185685 a29.05985577472515,29.05985577472515 0 0,0 -0.46479014704730853,-0.18494959168555264 l 3.0442717245088606 -7.46282016242695" fill="#ff6b09" stroke="none" /><path d="M 92.06813273071674 119.44442032107085 l -2.9059612506971484 7.12376166632526 a28.693672144636693,28.693672144636693 0 0,0 -0.4557218377170951,-0.19049176512588184 l 3.0281545479117056 -7.072684858179405" fill="#ff6609" stroke="none" /><path d="M 91.7346041902142 119.30500536409082 l -0.7120452121522509 1.6630826830821344 a22.809102649082305,22.809102649082305 0 0,0 -0.3596010627009738,-0.1576385381870121 l 0.740566949510968 -1.65057959160067" fill="#ff1402" stroke="none" /><path d="M 91.40352486487194 119.15986991738527 l -3.4063220800833944 7.592028933396418 a29.321173801741676,29.321173801741676 0 0,0 -0.4587116188351441,-0.21057200582306898 l 3.536501694685958 -7.532269857239275" fill="#ff6f0a" stroke="none" /><path d="M 90.42595943632237 118.69057910512821 l -2.843457879371233 5.551039195312692 a27.236929441612766,27.236929441612766 0 0,0 -0.4154398232091669,-0.21733848060441913 l 2.9385886051068955 -5.501271295763556" fill="#ff5207" stroke="none" /><path d="M 90.10565033884886 118.52300852407294 l -1.7295662887086742 3.2378854806888553 a24.67087209435213,24.67087209435213 0 0,0 -0.372855810193043,-0.2033107164365124 l 1.7850449107703579 -3.207634112492577" fill="#ff2f04" stroke="none" /><line stroke="#e1ed5e" stroke-width="0.3" x1="58.666819895761336" x2="56.23545636021788" y1="174.27360380694188" y2="178.64263932499728" /><path d="M 58.180547188652646 175.14741091055294 a86.0,86.0 0 0,1 -31.652253787137756,-30.449443065178592" fill="none" id="id56" stroke="none" /><text fill="#e1ed5e" style="font-size:6.75px; font-family:Arial;" text-anchor="middle"><textPath startOffset="22.20632615414155" xlink:href="#id56">August</textPath></text><path d="M 89.7882731507175 118.34994917583269 l -1.4028316287415452 2.5208164563730624 a23.884866060204338,23.884866060204338 0 0,0 -0.35753509990224003,-0.20301776081741374 l 1.4460154955649924 -2.4962955297610154" fill="#ff2403" stroke="none" /><path d="M 89.4739219176387 118.17145234162733 l -1.8639754506889916 3.2178310671015002 a24.718715000799982,24.718715000799982 0 0,0 -0.36634563310198315,-0.21644345740052434 l 1.9190889548193568 -3.185269037407226" fill="#ff2f04" stroke="none" /><path d="M 89.1626897886671 117.98757091392108 l -4.23583617757587 7.03056405492773 a29.2079923887454,29.2079923887454 0 0,0 -0.4284128182834474,-0.26316614384474185 l 4.356228195791626 -6.95660944425461" fill="#ff6d0a" stroke="none" /><path d="M 88.8546689885994 117.79835938074946 l -4.145968371249679 6.6208383561906565 a28.81182144408128,28.81182144408128 0 0,0 -0.41807077667553594,-0.2668325500085102 l 4.259320949972138 -6.548491377358342" fill="#ff6809" stroke="none" /><path d="M 88.54995079064634 117.60387380957326 l -2.099354523157696 3.2276518145471838 a24.85032799250303,24.85032799250303 0 0,0 -0.3565729794643684,-0.23631712745869807 l 2.1546022013620263 -3.1910366659971676" fill="#ff3104" stroke="none" /><path d="M 88.24862548938628 117.40417183066458 l -2.1406418875363036 3.1703609824493886 a24.825380562729993,24.825380562729993 0 0,0 -0.35209850891551653,-0.2421765650377061 l 2.1948972810747103 -3.1330436280465817" fill="#ff3104" stroke="none" /><path d="M 87.95078237400918 117.19931262002967 l -1.7539473064233007 2.5036221420021616 a24.056870128682775,24.056870128682775 0 0,0 -0.3371085455409415,-0.24051799645644492 l 1.796783179813129 -2.4730598837014974" fill="#ff2603" stroke="none" /><path d="M 87.36589467227662 116.77436683061367 l -4.385934097183948 5.823227330519433 a28.290157367831593,28.290157367831593 0 0,0 -0.3864587340585335,-0.296320077830267 l 4.485521559735968 -5.7468679108618" fill="#ff6108" stroke="none" /><path d="M 87.07902340077011 116.55440617244103 l -1.3110873697657466 1.6797703083800315 a23.13086329455327,23.13086329455327 0 0,0 -0.31176274011916133,-0.2476831759394563 l 1.3398076026022658 -1.6569532184354447" fill="#ff1902" stroke="none" /><path d="M 86.24171649860922 115.8653595955263 l -1.5989039908969813 1.8437755532322349 a23.440492217320745,23.440492217320745 0 0,0 -0.3025583174827811,-0.2669725373261853 l 1.6304046612863503 -1.8159798741337607" fill="#ff1d03" stroke="none" /><path d="M 85.44109423537348 115.13401014063109 l -22.846868434789418 23.749363047177972 a53.95469074992572,53.95469074992572 0 0,0 -0.6637712821329811,-0.6496399049030143 l 23.252289669298193 -23.35257303935239" fill="#6aff28" stroke="none" /><path d="M 85.18274418774928 114.88116024355367 l -15.859723301352435 15.928123726575361 a43.47745422961761,43.47745422961761 0 0,0 -0.5257860523966833,-0.532618495147128 l 16.131549978804653 -15.65276473744757" fill="#ddff1b" stroke="none" /><path d="M 84.9287848128048 114.62390073753433 l -6.112460966475035 5.931042807465844 a29.51700932550113,29.51700932550113 0 0,0 -0.35068097379041663,-0.367687599015194 l 6.213648491644409 -5.8249480918681495" fill="#ff710a" stroke="none" /><path d="M 84.67929136418377 114.36230785411682 l -5.384694536296641 5.047850100737392 a28.3807672967475,28.3807672967475 0 0,0 -0.33104623300836405,-0.35928530350549387 l 5.470787177300735 -4.9544135424305535" fill="#ff6209" stroke="none" /><path d="M 84.43433777217949 114.09645910891817 l -2.753004621090247 2.493155543263722 a24.71414310530045,24.71414310530045 0 0,0 -0.28284883732778565,-0.31778366719770723 l 2.795512308066371 -2.44539770632515" fill="#ff2f04" stroke="none" /><path d="M 84.19399662182784 113.82643327865904 l -2.709619932962707 2.370262634852472 a24.600025713697974,24.600025713697974 0 0,0 -0.27605620591354174,-0.32111573377808733 l 2.7500186484470275 -2.323269801912854" fill="#ff2e04" stroke="none" /><path d="M 83.72743513129214 113.27417163493432 l -5.715361360177387 4.6622452122810705 a28.37576341112203,28.37576341112203 0 0,0 -0.30548818281065476,-0.38114347901171164 l 5.794767455042903 -4.563173899691099" fill="#ff6209" stroke="none" /><path d="M 83.50135304334701 112.99209946851258 l -2.302922781957218 1.813470033639752 a23.931233000388563,23.931233000388563 0 0,0 -0.2520678854881876,-0.32583172108639147 l 2.333797484663474 -1.773560318440108" fill="#ff2403" stroke="none" /><path d="M 83.28015986056508 112.70617746262583 l -5.907853916288666 4.489650598188664 a28.42022239491669,28.42022239491669 0 0,0 -0.2926453757581315,-0.39204630425183307 l 5.984260558741882 -4.387291414427523" fill="#ff6309" stroke="none" /><path d="M 82.85270091963577 112.12312394758628 l -6.730503994933255 4.758459847110062 a29.242731594706406,29.242731594706406 0 0,0 -0.28705096014447545,-0.41351831736038014 l 6.811415862239864 -4.6419002675626695" fill="#ff6e0a" stroke="none" /><path d="M 82.6465618267979 111.8261652097733 l -6.414338607886991 4.371296761551287 a28.762214577952506,28.762214577952506 0 0,0 -0.2752912291275559,-0.4115230355412349 l 6.488632942425277 -4.260236811804232" fill="#ff6709" stroke="none" /><path d="M 82.24976979558568 111.22182372390057 l -28.285968172508966 17.882593354356494 a54.46465509359786,54.46465509359786 0 0,0 -0.4941639373151986,-0.7967496121751816 l 28.589596749492124 -17.39304741081605" fill="#65ff29" stroke="none" /><line stroke="#e1ed5e" stroke-width="0.3" x1="26.63291911575756" x2="22.317208475507996" y1="142.92168965132927" y2="145.44649492493687" /><path d="M 25.769776987707644 143.4266507060508 a86.0,86.0 0 0,1 -11.730757126820373,-40.83630448921669" fill="none" id="id57" stroke="none" /><text fill="#e1ed5e" style="font-size:6.75px; font-family:Arial;" text-anchor="middle"><textPath startOffset="21.46611528233685" xlink:href="#id57">September</textPath></text><path d="M 81.69416730710424 110.29060199501025 l -3.1903512832094236 1.7934521652500146 a24.65989234531782,24.65989234531782 0 0,0 -0.20482223644806652,-0.37181185379349935 l 3.2207499291090067 -1.7382697930586928" fill="#ff2f04" stroke="none" /><path d="M 81.35079622478065 109.6543875284942 l -3.4460383305612083 1.7839576360622278 a24.880423304610183,24.880423304610183 0 0,0 -0.1936186606057222,-0.38202798598218657 l 3.4762356609531975 -1.7243754383773562" fill="#ff3204" stroke="none" /><path d="M 81.02952815118164 109.00673069616217 l -6.58524823736947 3.126519883850849 a28.289761376882815,28.289761376882815 0 0,0 -0.20506760786218375,-0.44169738366430344 l 6.63809046207148 -3.012702432907718" fill="#ff6108" stroke="none" /><path d="M 80.58989483394504 108.01547362559985 l -5.200147783659342 2.1474199677205887 a26.626095403533633,26.626095403533633 0 0,0 -0.1712912324547989,-0.42513079146107624 l 5.2363416303715296 -2.057589808416707" fill="#ff4a06" stroke="none" /><path d="M 79.50377843672027 104.57218783832718 l -3.6980897213406294 0.8249501400418483 a24.78898539461955,24.78898539461955 0 0,0 -0.0893182099490327,-0.41726494131869357 l 3.7117419700141028 -0.7611713793069909" fill="#ff3004" stroke="none" /><path d="M 79.23777060512086 103.15116336523772 l -3.7493593747128338 0.5690546848316658 a24.792297318918425,24.792297318918425 0 0,0 -0.060405781895289966,-0.4224778978849111 l 3.7585992076247225 -0.5044313149663541" fill="#ff3104" stroke="none" /><path d="M 79.0235259727143 100.99374915477108 l -3.734649978285981 0.1769270304656513 a24.738838540833353,24.738838540833353 0 0,0 -0.01649004644334177,-0.42553482682838395 l 3.7371421575805237 -0.11261495662327062" fill="#ff3004" stroke="none" /><line stroke="#e1ed5e" stroke-width="0.3" x1="15.007084014347285" x2="10.007500721073583" y1="101.09737516637583" y2="101.16192664675087" /><path d="M 14.007167355692545 101.11028546245083 a86.0,86.0 0 0,1 10.666146001902534,-42.60595125391555" fill="none" id="id58" stroke="none" /><text fill="#e1ed5e" style="font-size:6.75px; font-family:Arial;" text-anchor="middle"><textPath startOffset="22.20632615414155" xlink:href="#id58">October</textPath></text><path d="M 79.00175016825051 100.2711162175752 l -3.7020268175806446 0.04779824586270352 a24.702335375191424,24.702335375191424 0 0,0 -0.0018299757189900428,-0.42522190973170265 l 3.7023010905891374 0.01593314207267453" fill="#ff2f04" stroke="none" /><path d="M 79.00486145842228 99.54816195383935 l -4.457861857269015 -0.09593799953516041 a25.458894082420972,25.458894082420972 0 0,0 0.013200200837655685,-0.4380504021678025 l 4.455549961975715 0.1726585491279573" fill="#ff3a05" stroke="none" /><path d="M 79.01574976396665 99.18683210126434 l -0.38947077319181295 -0.015092515896112551 a21.389763091129346,21.389763091129346 0 0,0 0.01742388891569077,-0.3677907563891381 l 0.38915327604262334 0.021794378908259734" fill="#ff0000" stroke="none" /><path d="M 79.03285615573316 98.82574320788736 l -4.024521318785671 -0.22539176192461793 a25.030827866791615,25.030827866791615 0 0,0 0.027795433929706938,-0.42998306034229505 l 4.020045293851551 0.2946338865199248" fill="#ff3404" stroke="none" /><path d="M 79.05617556472873 98.46500227214037 l -1.2819481759602003 -0.09395550193873754 a22.285386619734407,22.285386619734407 0 0,0 0.03133274015379674,-0.38233879279687133 l 1.2801409519869063 0.11600821194338728" fill="#ff0d01" stroke="none" /><path d="M 79.08570108090925 98.10471618934814 l -2.887577225507685 -0.2616763960715945 a23.899409727777652,23.899409727777652 0 0,0 0.040655029046396306,-0.4093905943239139 l 2.88264507077906 0.3113425210999387" fill="#ff2403" stroke="none" /><path d="M 79.46518482838121 95.60439243477599 l -3.5581914428479826 -0.7616534696798519 a24.638796827501086,24.638796827501086 0 0,0 0.09234340989717736,-0.4139573998459805 l 3.5445536459487674 0.8227890390757917" fill="#ff2e04" stroke="none" /><path d="M 79.62865764111835 94.90015583598534 l -3.5324846340300913 -0.8843364775849162 a24.64149676578821,24.64149676578821 0 0,0 0.10654944259712036,-0.41057846657978125 l 3.5167388595626634 0.9450113697135614" fill="#ff2e04" stroke="none" /><path d="M 79.81627453868168 94.20196356495316 l -7.279157641444094 -2.0910322676766073 a28.573542890448216,28.573542890448216 0 0,0 0.13986627179827563,-0.47155953725555727 l 7.242085472534112 2.216021191678704" fill="#ff6509" stroke="none" /><path d="M 79.91906864156998 93.8553929516997 l -6.454644091495816 -1.9750703227330755 a27.750061712875134,27.750061712875134 0 0,0 0.14369843030329024,-0.4555632931985919 l 6.4196901774243225 2.085883782358082" fill="#ff5908" stroke="none" /><path d="M 80.14247586403 93.16781622104843 l -3.6391201648348694 -1.2520764214911955 a24.84849203446778,24.84849203446778 0 0,0 0.1426385314893847,-0.40325833643171755 l 3.6170285525356753 1.314532384349524" fill="#ff3104" stroke="none" /><path d="M 80.38941819471856 92.48833698450439 l -3.3828488935713343 -1.2957708839625823 a24.62252519942401,24.62252519942401 0 0,0 0.15501222140783116,-0.3944891954916833 l 3.360043122281812 1.353809084350029" fill="#ff2e04" stroke="none" /><path d="M 80.65960295795068 91.81776055985345 l -6.9139454962491005 -2.925046337127243 a28.507232406116433,28.507232406116433 0 0,0 0.1950835301634629,-0.45027968450368755 l 6.862571256242957 3.04362516621753" fill="#ff6409" stroke="none" /><path d="M 80.803312248108 91.48605970444005 l -57.59006325567602 -25.54182088667983 a84.0,84.0 0 0,0 0.5975907321465934,-1.3167119646317162 l 57.141870206566075 26.529354860153617" fill="#4dd2ff" stroke="none" /><path d="M 81.10775173730289 90.83032412892265 l -3.2474060897988024 -1.5761840968400733 a24.60970949235446,24.60970949235446 0 0,0 0.18825254352724263,-0.3795056404250039 l 3.219793533318147 1.6318493257640387" fill="#ff2e04" stroke="none" /><line stroke="#e1ed5e" stroke-width="0.3" x1="26.266209847984243" x2="21.928928074336255" y1="57.711370442889674" y2="55.22380399835377" /><path d="M 25.398753493254645 57.213857153982495 a86.0,86.0 0 0,1 29.58750427330803,-30.492523968695096" fill="none" id="id59" stroke="none" /><text fill="#e1ed5e" style="font-size:6.75px; font-family:Arial;" text-anchor="middle"><textPath startOffset="21.46611528233685" xlink:href="#id59">November</textPath></text><path d="M 81.78341655067845 89.55222093294921 l -7.786068634864754 -4.465553330802564 a29.975746840072226,29.975746840072226 0 0,0 0.260561075532472,-0.445383340198586 l 7.708047884861957 4.598916083355042" fill="#ff780b" stroke="none" /><path d="M 81.96595687620814 89.24020034530311 l -51.60143153312586 -30.787387020246374 a81.08802655939293,81.08802655939293 0 0,0 0.7254837685075037,-1.1925045623133907 l 51.06383196633214 31.67105935576684" fill="#49edff" stroke="none" /><path d="M 82.15384107792192 88.93136811851018 l -6.683713042574034 -4.145405159327685 a28.864884231217573,28.864884231217573 0 0,0 0.2655190033822051,-0.4199872988240656 l 6.611366442945866 4.259840105865965" fill="#ff6909" stroke="none" /><path d="M 82.34701348167596 88.62581576622439 l -3.219861406372764 -2.074623282881463 a24.830348449178306,24.830348449178306 0 0,0 0.23459165131201062,-0.3572991793562778 l 3.183673119702833 2.1297405262154077" fill="#ff3104" stroke="none" /><path d="M 82.54541684631803 88.32363383020206 l -4.891141156430326 -3.2719632790888022 a26.88464149390871,26.88464149390871 0 0,0 0.26062167892508664,-0.38243015479650533 l 4.8340950118364985 3.3556714571557236" fill="#ff4e07" stroke="none" /><path d="M 82.7489923806493 88.02491185347247 l -2.9702894613183783 -2.061878291682541 a24.615793353294784,24.615793353294784 0 0,0 0.24461930601658075,-0.3459966605334085 l 2.9343575354979197 2.1127014525477357" fill="#ff2e04" stroke="none" /><path d="M 83.39014120810768 87.1503855733568 l -6.924159666657406 -5.3566248250401625 a29.754279902173664,29.754279902173664 0 0,0 0.31687729928504565,-0.4024019906984423 l 6.83092828677839 5.475019209691652" fill="#ff750a" stroke="none" /><path d="M 83.84228863543731 86.58626213691792 l -6.090080763552481 -5.055836503334066 a28.91521108088958,28.91521108088958 0 0,0 0.32121961209290656,-0.3802227028367941 l 6.00215053797245 5.159918155799976" fill="#ff6909" stroke="none" /><path d="M 84.07557802195018 86.31012108654704 l -2.7376731507497243 -2.3535180108913933 a24.610249480011888,24.610249480011888 0 0,0 0.2789256959819988,-0.31886028768932584 l 2.696755591189882 2.4002938547836625" fill="#ff2e04" stroke="none" /><line stroke="#e1ed5e" stroke-width="0.3" x1="56.762969772571076" x2="54.21961505331055" y1="26.818313649435495" y2="22.513508569990535" /><path d="M 56.25429882871897 25.957352633546506 a86.0,86.0 0 0,1 42.265352541879196,-11.944610805530505" fill="none" id="id60" stroke="none" /><text fill="#e1ed5e" style="font-size:6.75px; font-family:Arial;" text-anchor="middle"><textPath startOffset="22.20632615414155" xlink:href="#id60">December</textPath></text></svg>