<?xml version="1.0" encoding="utf-8" ?>
<svg baseProfile="full" height="200mm" version="1.1" viewBox="0,0,200,200" width="200mm" xmlns="http://www.w3.org/2000/svg" xmlns:ev="http://www.w3.org/2001/xml-events" xmlns:xlink="http://www.w3.org/1999/xlink"><defs /><rect fill="#1a1a1a" height="200" width="200" x="0" y="0" /><text alignment-baseline="middle" fill="#e1ed5e" style="dominant-baseline: central; font-size:9.0px; font-family:Arial;" text-anchor="middle" x="100.0" y="100.0">2025</text><line stroke="#e1ed5e" stroke-width="0.3" x1="100.0" x2="100.0" y1="15.0" y2="10.0" /><path d="M 100.0 14.0 a86.0,86.0 0 0,1 42.46469731375804,11.215312516191453" fill="none" id="id49" stroke="none" /><text fill="#e1ed5e" style="font-size:6.75px; font-family:Arial;" text-anchor="middle"><textPath startOffset="22.20632615414155" xlink:href="#id49">January</textPath></text><path d="M 100.36148047927253 79.00311137660856 l 0.09376286272375373 -5.446292396156554 a26.44709944271801,26.44709944271801 0 0,0 0.4551084435690926,0.011754108396693889 l -0.1874979414877141 5.4438714956175005" fill="#ff4606" stroke="none" /><path d="M 101.08401301168833 79.027996857942 l 0.6721022758511951 -13.00291683674755 a34.02027525563793,34.02027525563793 0 0,0 0.584562210531278,0.03526238890939892 l -0.895826535222085 12.989421178457848" fill="#ffac0f" stroke="none" /><path d="M 101.44485096284872 79.0497635885617 l 0.962928789210569 -13.962399098635428 a34.995564313119566,34.995564313119566 0 0,0 0.6006068908214016,0.046618654106011785 l -1.2031258693943119 13.94375518234095" fill="#ffb811" stroke="none" /><path d="M 101.80526077348638 79.07773832637324 l 0.9137015203734037 -10.589440917128108 a31.628786826617592,31.628786826617592 0 0,0 0.5420193161675602,0.05147126511643622 l -1.0958459636312081 10.572144107496495" fill="#ff8c0c" stroke="none" /><path d="M 102.16513564639614 79.11191278185805 l 0.5589599074622608 -5.392550493522331 a26.421442336070555,26.421442336070555 0 0,0 0.4519743727816348,0.050784587039380436 l -0.6517009837536208 5.38212995301235" fill="#ff4606" stroke="none" /><path d="M 102.52436894288641 79.15227682838746 l 1.6432600534079411 -13.571007831068684 a34.6701337650388,34.6701337650388 0 0,0 0.5918443959728202,0.07683838864517087 l -1.8766191778886074 13.540711119259377" fill="#ffb410" stroke="none" /><path d="M 102.88285421437855 79.19881850522331 l 0.6336601248497451 -4.572162961713873 a25.61586387389108,25.61586387389108 0 0,0 0.4362394054485919,0.0642903485302776 l -0.7122685107269927 4.560578129022626" fill="#ff3b05" stroke="none" /><path d="M 103.2404852339499 79.25152402106235 l 1.4522930396186007 -9.2988750361239 a30.411600927067237,30.411600927067237 0 0,0 0.5165204688211805,0.08523030307365152 l -1.6121427145786564 9.272498470110623" fill="#ff7c0b" stroke="none" /><path d="M 103.59715602781102 79.31037775812273 l 2.3226935953695094 -13.359346300323288 a34.55975807711672,34.55975807711672 0 0,0 0.5852199326536255,0.10694520206077886 l -2.5523086491260356 13.317385616911771" fill="#ffb310" stroke="none" /><path d="M 103.95276090670814 79.375362276772 l 3.130286960904464 -16.333149426982573 a37.6304078922241,37.6304078922241 0 0,0 0.6351181229741719,0.12739872058753005 l -3.4109714933457616 16.276846750317834" fill="#ffd914" stroke="none" /><path d="M 104.307194497241 79.44645832069477 l 1.0292595381551326 -4.911533210270599 a26.01822016978872,26.01822016978872 0 0,0 0.43754875035887225,0.09563120955606935 l -1.1136510126675327 4.893088502618658" fill="#ff4006" stroke="none" /><path d="M 104.66035177308747 79.52364482259891 l 2.557556246507813 -11.237226853152356 a32.52459809725526,32.52459809725526 0 0,0 0.5448277715084846,0.1289431308367536 l -2.7506077049788216 11.191537810174733" fill="#ff980e" stroke="none" /><path d="M 105.01212808612495 79.60689891045804 l 1.343603345321542 -5.466787435309344 a26.629479088904706,26.629479088904706 0 0,0 0.4441938011329198,0.11323489029633224 l -1.4375060351394868 5.442849548844144" fill="#ff4906" stroke="none" /><path d="M 106.0581310904928 79.89281104454417 l 3.380885926213473 -11.221300949049924 a32.71955565007552,32.71955565007552 0 0,0 0.5378699623243682,0.1671188155109982 l -3.5735412612485598 11.161441998656406" fill="#ff9b0e" stroke="none" /><path d="M 106.40334571778207 80.00007090966166 l 5.5896847024372605 -17.45857597156508 a39.331569764413814,39.331569764413814 0 0,0 0.6430096918235245,0.21199018574628714 l -5.889377216503203 17.359772061559557" fill="#ffee16" stroke="none" /><path d="M 106.74666289553966 80.11325718540242 l 4.166841186343069 -12.282353558358583 a33.96991805697818,33.96991805697818 0 0,0 0.5521211596829813,0.1926242314302374 l -4.377644350089324 12.208808473756138" fill="#ffab0f" stroke="none" /><path d="M 107.76421540070413 80.48803036053334 l 5.807053779128576 -14.593497370362895 a36.70643304803736,36.70643304803736 0 0,0 0.5850588205262856,0.23866018284479998 l -6.0573964692432485 14.491376301334515" fill="#ffce13" stroke="none" /><path d="M 108.09893153111575 80.62456947434976 l 8.219165534441132 -19.663071626121532 a42.311758910435586,42.311758910435586 0 0,0 0.6695659391618143,0.2866731919286365 l -8.556415231393261 19.518678906230104" fill="#ecff1a" stroke="none" /><path d="M 108.43124777332544 80.76684994638697 l 10.103288141038984 -23.047366424963855 a46.16460868734919,46.16460868734919 0 0,0 0.7250434970986468,0.3253058826375049 l -10.498513756604412 22.87004021180982" fill="#bfff1e" stroke="none" /><path d="M 108.76106565485865 80.91482961587045 l 6.692668720075874 -14.579359164640698 a37.042117324352006,37.042117324352006 0 0,0 0.5771898994345054,0.27099839705608897 l -6.942636830809977 14.461995784944607" fill="#ffd213" stroke="none" /><path d="M 109.41281617654863 81.2277094730956 l 2.095602125762356 -4.1793286085433605 a25.675289925522126,25.675289925522126 0 0,0 0.3933692981740393,0.2014990330711761 l -2.1672319115251506 4.142637050159683" fill="#ff3c05" stroke="none" /><path d="M 109.73455568895987 81.39251694778311 l 2.443525408721177 -4.670768659940646 a26.27132775472648,26.27132775472648 0 0,0 0.39889252327965713,0.213074571413087 l -2.5235629785291454 4.628015362025804" fill="#ff4406" stroke="none" /><line stroke="#e1ed5e" stroke-width="0.3" x1="143.23703022742887" x2="145.7803849466894" y1="26.81831364943548" y2="22.513508569990506" /><path d="M 143.74570117128098 25.957352633546492 a86.0,86.0 0 0,1 28.547481713284135,27.462654790039103" fill="none" id="id50" stroke="none" /><text fill="#e1ed5e" style="font-size:6.75px; font-family:Arial;" text-anchor="middle"><textPath startOffset="19.985693538727396" xlink:href="#id50">February</textPath></text><path d="M 110.99172775467656 82.1063720568725 l 7.439467202164572 -12.110840186520768 a35.21330792868179,35.21330792868179 0 0,0 0.5137468157602872,0.3217082088978684 l -7.646833170297122 11.980987636299954" fill="#ffbb11" stroke="none" /><path d="M 111.2981086023043 82.29822771554956 l 8.840812642691297 -13.851703654051747 a37.43257929549834,37.43257929549834 0 0,0 0.5401574207847922,0.3513334119345953 l -9.077937089260368 13.697471317957625" fill="#ffd714" stroke="none" /><path d="M 111.60114157652 82.49532879139004 l 10.68454645985984 -16.12164385369627 a40.340810055380985,40.340810055380985 0 0,0 0.5755198722109293,0.3885935867821714 l -10.960471026477313 15.935338354615428" fill="#fffb17" stroke="none" /><path d="M 112.77801427241765 83.33499621200491 l 6.279142523295597 -8.189217174530794 a31.319443238832662,31.319443238832662 0 0,0 0.4250010339809238,0.33172004827680784 l -6.419176112435951 8.079918737030763" fill="#ff880c" stroke="none" /><path d="M 113.06298171725822 83.55741782278167 l 3.2204453373365958 -4.053625600381741 a26.177175743476674,26.177175743476674 0 0,0 0.35039595888911107,0.2833291636827415 l -3.289744694790198 3.9975903394348697" fill="#ff4306" stroke="none" /><path d="M 113.34407831869373 83.78471172551755 l 6.773015707274166 -8.23034754129046 a31.65891000156247,31.65891000156247 0 0,0 0.4178108711915551,0.34990458902551835 l -6.9136841154248385 8.112541794871122" fill="#ff8d0d" stroke="none" /><path d="M 113.6212207817346 84.01681056812373 l 2.8803593180556017 -3.379823978338743 a25.440684623530842,25.440684623530842 0 0,0 0.33085755892181834,0.286916414772476 l -2.938110675624184 3.3297425701465957" fill="#ff3805" stroke="none" /><path d="M 114.16331599549186 84.49514656593476 l 6.1257122370564705 -6.705934573870398 a30.08261575319873,30.08261575319873 0 0,0 0.37931616601314144,0.35253303694004673 l -6.240236286864459 6.599496950855711" fill="#ff780b" stroke="none" /><path d="M 114.68862486808459 84.99185889309783 l 11.657076656944193 -11.910648745719364 a37.665863005850596,37.665863005850596 0 0,0 0.4594593170429031,0.45748625271983073 l -11.86037177415442 11.708226642349414" fill="#ffda14" stroke="none" /><path d="M 115.4437574822437 85.77008943001954 l 3.999287296132317 -3.6849517115930492 a26.438121733997676,26.438121733997676 0 0,0 0.3054942080439018,0.33733433468823976 l -4.062125144792255 3.6155645896352606" fill="#ff4606" stroke="none" /><path d="M 115.68641384162765 86.03803664274999 l 4.019403557121808 -3.5775395032362627 a26.38092871651534,26.38092871651534 0 0,0 0.2989940800430212,0.3418019198420361 l -4.080389500742677 3.507822027191279" fill="#ff4506" stroke="none" /><path d="M 116.38621287248628 86.86637796730983 l 16.257913328980248 -13.030789381577462 a41.83557577125397,41.83557577125397 0 0,0 0.445540752725856,0.5657915105900053 l -16.479808162300067 12.749005477034418" fill="#f2ff19" stroke="none" /><path d="M 116.60985879189232 87.15038557335679 l 17.276440358702065 -13.365291063315995 a42.842765316574365,42.842765316574365 0 0,0 0.44622588390793755,0.5871809572126729 l -17.503942182834116 13.065925330222289" fill="#e6ff1a" stroke="none" /><path d="M 117.04232023915458 87.72973835380427 l 8.303733771323808 -5.978586517838443 a31.23208147427996,31.23208147427996 0 0,0 0.3103686314732937,0.43899441860408495 l -8.405415022600986 5.834765598902565" fill="#ff870c" stroke="none" /><path d="M 117.2510076193507 88.02491185347247 l 4.161845645151207 -2.889017821603819 a26.06629876217427,26.06629876217427 0 0,0 0.25268860469276483,0.37078934725051693 l -4.210958715512705 2.8169504510828958" fill="#ff4106" stroke="none" /><line stroke="#e1ed5e" stroke-width="0.3" x1="172.23445277983987" x2="176.4835382374775" y1="55.19839476539836" y2="52.563006222186495" /><path d="M 173.08426987136738 54.67131705675599 a86.0,86.0 0 0,1 12.851231095245387,41.99856678651699" fill="none" id="id51" stroke="none" /><text fill="#e1ed5e" style="font-size:6.75px; font-family:Arial;" text-anchor="middle"><textPath startOffset="22.20632615414155" xlink:href="#id51">March</textPath></text><path d="M 117.84615892207809 88.93136811851018 l 21.54069118429897 -13.36007273233981 a46.347444054790714,46.347444054790714 0 0,0 0.41466440608134525,0.6815992549333919 l -21.76747138866654 12.987305704199336" fill="#bdff1f" stroke="none" /><path d="M 118.03404312379186 89.2402003453031 l 13.162666142943289 -7.8533498920652995 a36.327455252512976,36.327455252512976 0 0,0 0.31577264321230175,0.539757806456032 l -13.295898460625919 7.625612673255372" fill="#ffc912" stroke="none" /><path d="M 118.21658344932153 89.55222093294921 l 7.617902207502056 -4.369104636980889 a29.78188529713026,29.78188529713026 0 0,0 0.25122063849008874,0.4468934839217264 l -7.691980487284578 4.2373276431243685" fill="#ff740a" stroke="none" /><path d="M 118.56541770881063 90.18545643968196 l 4.508119248206121 -2.3832015756709692 a26.099292981024636,26.099292981024636 0 0,0 0.20654553783984195,0.3989802369822871 l -4.54847421920608 2.3052486164283374" fill="#ff4106" stroke="none" /><path d="M 119.04729006885535 91.15688171328212 l 13.544008442305033 -6.288100212609754 a35.93252721306922,35.93252721306922 0 0,0 0.2556303005373345,0.5632474821536209 l -13.650241059805715 6.054030721614071" fill="#ffc412" stroke="none" /><path d="M 119.196687751892 91.48605970444005 l 16.15239088455244 -7.163761446714798 a38.66972578601066,38.66972578601066 0 0,0 0.26462851634694173,0.6107991010391066 l -16.27331011074206 6.884663201089088" fill="#ffe615" stroke="none" /><path d="M 119.34039704204932 91.81776055985345 l 1.546197607309545 -0.6541416402818497 a22.678877102828075,22.678877102828075 0 0,0 0.1490092002839743,0.36083759779138946 l -1.5572284944797166 0.6274294720371572" fill="#ff1101" stroke="none" /><path d="M 119.47837535516314 92.15188598940014 l 4.048117764911334 -1.631044128068797 a25.364351313345253,25.364351313345253 0 0,0 0.15968242127099072,0.40637434474037754 l -4.075593736064025 1.561120778432635" fill="#ff3705" stroke="none" /><path d="M 119.61058180528143 92.48833698450437 l 7.2484695044416645 -2.7764632806966865 a28.762026700925333,28.762026700925333 0 0,0 0.17311372382812854,0.4638587131308546 l -7.295187816771419 2.6512814305364985" fill="#ff6609" stroke="none" /><path d="M 119.7369772167798 92.82701384747503 l 4.461173278172545 -1.6213188978675352 a25.746655874029965,25.746655874029965 0 0,0 0.14779428786020632,0.41783435397364566 l -4.488420646842561 1.544286917467275" fill="#ff3d05" stroke="none" /><path d="M 119.97218684219823 93.5106431181261 l 17.38473266976113 -5.64864205814907 a39.27938968073471,39.27938968073471 0 0,0 0.2034008680338862,0.6448363359669105 l -17.479389021563225 5.34855555575574" fill="#ffee16" stroke="none" /><path d="M 120.08093135843002 93.85539295169968 l 17.916647196878074 -5.48235311813019 a39.73666038784049,39.73666038784049 0 0,0 0.19450925506404854,0.6557885123456548 l -18.008362349053826 5.173135219038005" fill="#fff316" stroke="none" /><path d="M 120.18372546131832 94.20196356495316 l 2.3796935042651706 -0.6835977663497493 a23.475933577542058,23.475933577542058 0 0,0 0.10822766398149522,0.3893524907973993 l -2.391107938813029 0.6425339721333982" fill="#ff1c02" stroke="none" /><path d="M 120.28053869075195 94.5502522615342 l 4.4448289190591375 -1.1944059632181185 a25.602511241124287,25.602511241124287 0 0,0 0.11070485400123307,0.4265909618188155 l -4.464730104930673 1.1177185758504526" fill="#ff3b05" stroke="none" /><path d="M 120.37134235888165 94.90015583598534 l 9.376976526199076 -2.3474701946869643 a30.666349108522418,30.666349108522418 0 0,0 0.12378574000731246,0.5131718079915801 l -9.41599506646721 2.185713155035978" fill="#ff800b" stroke="none" /><path d="M 120.45610955862082 95.25157060432595 l 4.727063823435659 -1.097282391361156 a25.85274778215656,25.85274778215656 0 0,0 0.09689316008934977,0.4343530378411233 l -4.745251370527045 1.0157511839700688" fill="#ff3e05" stroke="none" /><path d="M 120.98425023603335 99.18683210126433 l 4.732940973316198 -0.18340782362110236 a25.736493290047047,25.736493290047047 0 0,0 0.01334413345629871,0.4428268250614381 l -4.735396801228141 0.10191085113466518" fill="#ff3c05" stroke="none" /><line stroke="#e1ed5e" stroke-width="0.3" x1="184.98032266829074" x2="189.97916517819016" y1="98.17113171792111" y2="98.06355123074" /><path d="M 185.9800911702706 98.14961562048488 a86.0,86.0 0 0,1 -9.607161424134198,41.387399972396054" fill="none" id="id52" stroke="none" /><text fill="#e1ed5e" style="font-size:6.75px; font-family:Arial;" text-anchor="middle"><textPath startOffset="21.466115282336823" xlink:href="#id52">April</textPath></text><path d="M 120.99513854157772 99.54816195383933 l 4.7544415398402755 -0.10232071446884163 a25.755542438499333,25.755542438499333 0 0,0 0.005723853963802449,0.44331879740488206 l -4.755498400921794 0.02046565900349683" fill="#ff3d05" stroke="none" /><path d="M 120.99980553446 99.90962569577887 l 2.557894144293728 -0.011008097345592539 a23.55791783128765,23.55791783128765 0 0,0 -0.0017451960297047377,0.40552209567937586 l -2.5577046509745207 -0.033023476537468024" fill="#ff1e03" stroke="none" /><path d="M 120.99824983174949 100.27111621757518 l 4.6224055673574185 0.05968159839805128 a25.622790836964636,25.622790836964636 0 0,0 -0.009490117188813157,0.4409684550647022 l -4.620693387483598 -0.13923986925286835" fill="#ff3b05" stroke="none" /><path d="M 120.9764740272857 100.99374915477107 l 10.126344493293985 0.4797301142242372 a31.137701602402736,31.137701602402736 0 0,0 -0.029971741636180264,0.5351655807911885 l -10.116586400770275 -0.653967411350849" fill="#ff860c" stroke="none" /><path d="M 120.92983693683757 101.71520430193887 l 4.63695939028551 0.3799997447727498 a25.65250386278016,25.65250386278016 0 0,0 -0.0398534902393851,0.43977994385383545 l -4.6297313037690495 -0.4597610771751558" fill="#ff3b05" stroke="none" /><path d="M 120.89721153311464 102.0752229133903 l 4.605061412894729 0.4573112037682612 a25.627712626516903,25.627712626516903 0 0,0 -0.047371848664467565,0.43860448474522606 l -4.59650726272921 -0.5365120103982787" fill="#ff3b05" stroke="none" /><path d="M 120.81339534386255 102.79330883721812 l 4.6777835935627605 0.6277925362305584 a25.71972274786896,25.71972274786896 0 0,0 -0.0626654296183153,0.43828186879682746 l -4.666284112927844 -0.7082198770077952" fill="#ff3c05" stroke="none" /><path d="M 120.70491114924044 103.5080841355445 l 4.328994656309611 0.7334722359923663 a25.390692001874967,25.390692001874967 0 0,0 -0.07672046376137491,0.4302891042559688 l -4.315727750209048 -0.8078800909815534" fill="#ff3805" stroke="none" /><path d="M 120.64145759157962 103.86396538481128 l 6.727215548690607 1.2592971160577577 a27.84406737730248,27.84406737730248 0 0,0 -0.09224350636519323,0.47034765165206205 l -6.70454210934975 -1.3749084947777648" fill="#ff5a08" stroke="none" /><path d="M 120.5718875245553 104.21870165774334 l 10.153755608078484 2.082242845484709 a31.365060936442077,31.365060936442077 0 0,0 -0.11301273743915757,0.5279578854381918 l -10.116408831914883 -2.2567145503390695" fill="#ff890c" stroke="none" /><path d="M 120.49622156327973 104.57218783832717 l 7.917951463101345 1.7662944007648498 a29.11256749014774,29.11256749014774 0 0,0 -0.11331641861682201,0.4881641656350592 l -7.886374478553971 -1.9023272237484739" fill="#ff6b09" stroke="none" /><path d="M 120.41448212921028 104.9243191809786 l 3.9638760362473984 0.9561541004454363 a25.07756592767487,25.07756592767487 0 0,0 -0.1048345977842638,0.41876210602438063 l -3.946830124168074 -1.0242440458672128" fill="#ff3304" stroke="none" /><path d="M 120.32669344350535 105.2749913415812 l 4.657105158080946 1.20856790869542 a25.81136829221715,25.81136829221715 0 0,0 -0.11530543389255939,0.4290944141884844 l -4.635611647846609 -1.2885532560594526" fill="#ff3d05" stroke="none" /><path d="M 120.23288151984713 105.62410040840565 l 9.417347125353404 2.617724309898401 a30.774400618044826,30.774400618044826 0 0,0 -0.14626246557608794,0.5091588305031832 l -9.370892022891216 -2.779440615906166" fill="#ff810b" stroke="none" /><path d="M 120.02730092923936 106.31721596034902 l 10.288064923715917 3.2451665936830514 a31.787742400305554,31.787742400305554 0 0,0 -0.16909224518159693,0.5204124192594062 l -10.230680427518072 -3.421777912920253" fill="#ff8e0d" stroke="none" /><path d="M 119.79798401119884 107.00284435728193 l 8.977121415400696 3.175342702212171 a30.52215890349126,30.52215890349126 0 0,0 -0.17946410125354675,0.49380812988524214 l -8.921133053141922 -3.3293986291035442" fill="#ff7e0b" stroke="none" /><path d="M 119.54520255179757 107.68017299344265 l 4.347968597734345 1.7085088226719278 a25.671598583357927,25.671598583357927 0 0,0 -0.165150755068823,0.4098906301659736 l -4.31791522840813 -1.783098820680715" fill="#ff3b05" stroke="none" /><path d="M 119.41010516605496 108.01547362559984 l 9.154435200667216 3.7803573592447695 a30.904281175674036,30.904281175674036 0 0,0 -0.2072779847881279,0.4899439271122635 l -9.088006234686778 -3.9373758120231965" fill="#ff830c" stroke="none" /><path d="M 119.26925614724726 108.34839909993367 l 3.777009713902453 1.6363882578045705 a25.116256662210724,25.116256662210724 0 0,0 -0.17528625390593067,0.3952242283382928 l -3.7482823752652497 -1.701160822635551" fill="#ff3404" stroke="none" /><path d="M 119.12269723197855 108.67885076344098 l 8.862228634853654 4.022129243607243 a30.73224640197219,30.73224640197219 0 0,0 -0.222772761138711,0.47983270869757344 l -8.791681256875112 -4.174082019583648" fill="#ff810b" stroke="none" /><path d="M 118.97047184881838 109.00673069616215 l 7.519965388483398 3.5703014473384926 a29.32447787364803,29.32447787364803 0 0,0 -0.2204177778013909,0.45412590786010737 l -7.457394354067293 -3.6992163111638754" fill="#ff6e0a" stroke="none" /><line stroke="#e1ed5e" stroke-width="0.3" x1="174.80103733775053" x2="179.2010983576182" y1="140.37084112569926" y2="142.7455964860345" /><path d="M 175.68104954172406 140.8457921977663 a86.0,86.0 0 0,1 -30.038265399797805,32.042727171017184" fill="none" id="id53" stroke="none" /><text fill="#e1ed5e" style="font-size:6.75px; font-family:Arial;" text-anchor="middle"><textPath startOffset="22.206326154141568" xlink:href="#id53">May</textPath></text><path d="M 118.48025628344425 109.97397251340804 l 55.29663497877952 29.84412709992539 a83.83621378101074,83.83621378101074 0 0,0 -0.6963339726511776,1.2640484242367724 l -54.77472459667683 -30.79154604255997" fill="#4dd3ff" stroke="none" /><path d="M 118.12598468904814 110.60418214915192 l 8.009988468450267 4.6860558578852896 a30.28003420079513,30.28003420079513 0 0,0 -0.2670686389761431,0.4476224006834283 l -7.928138953775896 -4.823240352454822" fill="#ff7a0b" stroke="none" /><path d="M 117.75023020441432 111.22182372390056 l 7.854918302316726 4.965936077398996 a30.293022256558046,30.293022256558046 0 0,0 -0.28243935387832564,0.43835214937460365 l -7.76827408506135 -5.100409826695053" fill="#ff7b0b" stroke="none" /><path d="M 117.55443506779139 111.5257021239791 l 3.9596982783533248 2.5998160966666357 a25.7369034391764,25.7369034391764 0 0,0 -0.24633512702945665,0.3682375917201011 l -3.914360045913147 -2.6675906025925435" fill="#ff3c05" stroke="none" /><path d="M 117.35343817320211 111.8261652097733 l 6.524485737708076 4.446360742627845 a28.89550745646777,28.89550745646777 0 0,0 -0.2836425568650474,0.4086082582256301 l -6.446982273680893 -4.558010263040495" fill="#ff6809" stroke="none" /><path d="M 117.14729908036423 112.12312394758627 l 3.8690526680979307 2.7354165128432717 a25.738361747191888,25.738361747191888 0 0,0 -0.25887914819779584,0.35956049463658135 l -3.821393727524532 -2.8016106129309843" fill="#ff3c05" stroke="none" /><path d="M 116.71984013943494 112.70617746262583 l 7.28813451504227 5.538589468998665 a30.153844985330117,30.153844985330117 0 0,0 -0.31761071168657884,0.41055465920969636 l -7.191716986137623 -5.663222122321614" fill="#ff790b" stroke="none" /><path d="M 116.498646956653 112.99209946851258 l 6.806504614376215 5.359881038439113 a29.663534487248484,29.663534487248484 0 0,0 -0.3193520863195231,0.39844083031164124 l -6.713234616001838 -5.476249702329004" fill="#ff720a" stroke="none" /><path d="M 116.0416608686014 113.55231037782055 l 8.343607555300492 7.048843644456084 a31.922544747487024,31.922544747487024 0 0,0 -0.35822794206225284,0.41670002706319387 l -8.22103710366746 -7.191420770680805" fill="#ff900d" stroke="none" /><path d="M 115.80600337817218 113.82643327865902 l 2.155520008964896 1.8855591050882152 a23.86384350966129,23.86384350966129 0 0,0 -0.27311731432971575,0.30685019794620594 l -2.122743844986842 -1.9223834727752875" fill="#ff2203" stroke="none" /><path d="M 115.56566222782051 114.09645910891815 l 20.774967907816947 18.81407172501864 a49.02799647575563,49.02799647575563 0 0,0 -0.5718849450242584,0.6206681591754387 l -20.448036554796968 -19.168891138995413" fill="#9fff22" stroke="none" /><path d="M 115.07121518719521 114.62390073753431 l 6.216375861963805 6.03187350345843 a29.661802746480095,29.661802746480095 0 0,0 -0.35870918501057536,0.3633705105810683 l -6.111626051897694 -6.137984508020163" fill="#ff720a" stroke="none" /><path d="M 114.55890576462653 115.13401014063108 l 3.387698717496396 3.521519238661583 a25.886471155014668,25.886471155014668 0 0,0 -0.3237832545951597,0.30615727675149734 l -3.3265796285104288 -3.579311152159002" fill="#ff3e05" stroke="none" /><path d="M 114.29624159901734 115.38237550388516 l 3.2639415844911945 3.511914283740174 a25.79446103366261,25.79446103366261 0 0,0 -0.3278358700544749,0.2994702943813081 l -3.203006164969856 -3.567577344708065" fill="#ff3d05" stroke="none" /><path d="M 114.0293411484842 115.62618273729858 l 5.727847944593787 6.379800571272945 a29.573802972170625,29.573802972170625 0 0,0 -0.3817240690114635,0.33682710860614845 l -5.617181522675735 -6.477450821651382" fill="#ff710a" stroke="none" /><path d="M 113.48314897796784 116.09983520530334 l 6.279445240016835 7.498102536002303 a30.780233850106768,30.780233850106768 0 0,0 -0.4091277484735547,0.33668428371843 l -6.149447362998589 -7.605081938577912" fill="#ff810b" stroke="none" /><path d="M 112.92097659922987 116.55440617244103 l 5.682971936791279 7.28104605605694 a30.236330532456034,30.236330532456034 0 0,0 -0.4130445040731743,0.3167049126021035 l -5.556798704224612 -7.377790310486415" fill="#ff7a0b" stroke="none" /><path d="M 112.63410532772338 116.77436683061366 l 4.922335258735717 6.535409920329927 a29.18174597663235,29.18174597663235 0 0,0 -0.40384066524937867,0.2987516696847251 l -4.809109623067774 -6.619171538754421" fill="#ff6c09" stroke="none" /><path d="M 112.34349029814194 116.9893568818739 l 2.696395072115858 3.711269427707832 a25.587381295463622,25.587381295463622 0 0,0 -0.35855557462693094,0.2558198822553563 l -2.6321121696400422 -3.7571335718074073" fill="#ff3a05" stroke="none" /><path d="M 112.04921762599082 117.19931262002967 l 5.387381521921047 7.690064357292398 a30.389407301956567,30.389407301956567 0 0,0 -0.431013130727564,0.2964547615019746 l -5.2542115065706 -7.781659908159467" fill="#ff7c0b" stroke="none" /><line stroke="#e1ed5e" stroke-width="0.3" x1="143.8653032363475" x2="146.44561519142675" y1="172.8068346515853" y2="177.08958963109032" /><path d="M 144.38136562736335 173.6633856474863 a86.0,86.0 0 0,1 -40.68145358897372,12.25698825130547" fill="none" id="id54" stroke="none" /><text fill="#e1ed5e" style="font-size:6.75px; font-family:Arial;" text-anchor="middle"><textPath startOffset="21.466115282336833" xlink:href="#id54">June</textPath></text><path d="M 108.2653958097858 119.30500536409082 l 4.747695097064317 11.088915936412917 a33.0625314664676,33.0625314664676 0 0,0 -0.5251094221585811,0.21949578104992204 l -4.556114215408274 -11.168996760482813" fill="#ff9f0e" stroke="none" /><path d="M 107.93186726928326 119.44442032107085 l 1.741038737795773 4.268035238570845 a25.60948377632333,25.60948377632333 0 0,0 -0.4096040882816554,0.16298991999224743 l -1.6673135734722513 -4.297372002969161" fill="#ff3b05" stroke="none" /><path d="M 107.59598834532513 119.57807347666477 l 3.738008665491166 9.634428725056615 a31.33416303536397,31.33416303536397 0 0,0 -0.5045244585623417,0.1907679797864479 l -3.571613986168549 -9.697344954949696" fill="#ff890c" stroke="none" /><path d="M 106.91757812671514 119.82793768551818 l 3.35852495269037 9.626580612082593 a31.195623773892812,31.195623773892812 0 0,0 -0.5085336294145961,0.17252221747380067 l -3.192321590338547 -9.682965816454516" fill="#ff870c" stroke="none" /><path d="M 106.2309692047433 120.05430185196036 l 7.2918246780817375 23.468652843686954 a45.57536110484193,45.57536110484193 0 0,0 -0.7511796679670686,0.22632427193770055 l -6.886770035674424 -23.590692484730383" fill="#c6ff1e" stroke="none" /><path d="M 105.53697534728816 120.25689768951611 l 1.2798986563654273 4.682479965824979 a25.85425166229753,25.85425166229753 0 0,0 -0.4303003833299865,0.11364624217677409 l -1.1991078302239433 -4.703817557305337" fill="#ff3e05" stroke="none" /><path d="M 105.18746579009965 120.34920634021253 l 2.541330043422005 9.969039127134595 a31.287861755872296,31.287861755872296 0 0,0 -0.523023861752737,0.12854654011148797 l -2.3693528969260567 -10.011306925560113" fill="#ff880c" stroke="none" /><path d="M 104.83641907484287 120.43548508189849 l 1.142689125089934 4.82824300534413 a25.961619589937676,25.961619589937676 0 0,0 -0.4357594187895513,0.09917742500563703 l -1.0594095569075206 -4.847197163927452" fill="#ff4006" stroke="none" /><path d="M 104.13013068566511 120.58985236759428 l 11.989987857737919 59.773430593108706 a81.9641108661308,81.9641108661308 0 0,0 -1.3857101809672239,0.2655746542003955 l -10.959310062198991 -59.97096244565757" fill="#4ae4ff" stroke="none" /><path d="M 103.41894727170886 120.7198165907248 l 0.7890523241761549 4.781886978105831 a25.846549973090745,25.846549973090745 0 0,0 -0.4395933666589648,0.06865544317793427 l -0.706623093908673 -4.79476072863087" fill="#ff3e05" stroke="none" /><path d="M 103.06178313531738 120.77559828337769 l 0.5853033723158185 3.9715509556751196 a25.01444853387962,25.01444853387962 0 0,0 -0.42652184891479994,0.059112041783652695 l -0.5168529322141882 -3.981037562951375" fill="#ff3204" stroke="none" /><path d="M 102.70371172650421 120.8252237178851 l 0.10485502045180807 0.8076413019355676 a21.81441945452336,21.81441945452336 0 0,0 -0.3727903297277572,0.045139717312368155 l -0.09093726767267057 -0.8093265479732867" fill="#ff0500" stroke="none" /><path d="M 102.34483914955558 120.86867818915974 l 0.5549508967105234 4.938970622540347 a25.970050433152203,25.970050433152203 0 0,0 -0.4446658857271467,0.04609143718473274 l -0.4698524143777741 -4.947791428180838" fill="#ff4006" stroke="none" /><path d="M 101.62511606390274 120.93702456842531 l 0.3545287140674941 4.567536166504616 a25.58127463064877,25.58127463064877 0 0,0 -0.4393123932644362,0.030297554735609085 l -0.2758535600241275 -4.57296206575651" fill="#ff3a05" stroke="none" /><path d="M 100.90346689309514 120.98055641714683 l 0.19792796520837497 4.596337588374784 a25.600597211853962,25.600597211853962 0 0,0 -0.44042736941035604,0.015169209119975251 l -0.11878024412336664 -4.599063595920853" fill="#ff3a05" stroke="none" /><line stroke="#e1ed5e" stroke-width="0.3" x1="102.19456741930631" x2="102.32365962044197" y1="184.97166512339345" y2="189.96999836594603" /><path d="M 102.22038585953345 185.97133177190398 a86.0,86.0 0 0,1 -42.740103519485714,-10.115201625700543" fill="none" id="id55" stroke="none" /><text fill="#e1ed5e" style="font-size:6.75px; font-family:Arial;" text-anchor="middle"><textPath startOffset="22.20632615414155" xlink:href="#id55">July</textPath></text><path d="M 100.54218724476979 120.99299961872073 l 0.12609635037147554 4.88233661120966 a25.883964688113053,25.883964688113053 0 0,0 -0.44550039160375304,0.007669693256057739 l -0.04203626887505452 -4.883783781744878" fill="#ff3e05" stroke="none" /><path d="M 100.18074693466247 120.99922214144158 l 0.07142204093422531 8.297829814783627 a29.298137185118314,29.298137185118314 0 0,0 -0.5043379511933558,0.0 l 0.0714220409342196 -8.297829814783627" fill="#ff6d0a" stroke="none" /><path d="M 99.81925306533755 120.99922214144158 l -0.04182210630338204 4.8589023228960135 a25.859082307598825,25.859082307598825 0 0,0 -0.4450721299214068,-0.007662320342814959 l 0.1254539261174568 -4.857462525274038" fill="#ff3e05" stroke="none" /><path d="M 99.09653310690486 120.98055641714683 l -1.8904030316021143 43.899458584252834 a64.94014209822745,64.94014209822745 0 0,0 -1.1163888636373143,-0.05770455240204724 l 2.6457799636529176 -43.86041422508859" fill="#36ff6a" stroke="none" /><path d="M 98.37488393609728 120.93702456842531 l -0.7926358937832143 10.211847356982588 a31.242563063141265,31.242563063141265 0 0,0 -0.535818410262312,-0.046232667043720324 l 0.968298621787068 -10.196690437660203" fill="#ff870c" stroke="none" /><path d="M 98.01472825383883 120.90594882070398 l -3.466845539590557 36.507695009568664 a57.67193494904603,57.67193494904603 0 0,0 -0.987473709445696,-0.10235568752043953 l 4.094751845641846 -36.442609953592466" fill="#45ff2d" stroke="none" /><path d="M 97.2962882734958 120.8252237178851 l -0.64454359362612 4.964569410862723 a26.006234700786443,26.006234700786443 0 0,0 -0.44343281415412017,-0.06145574747275349 l 0.7299049989670712 -4.952739097897365" fill="#ff4006" stroke="none" /><path d="M 96.58105272829116 120.7198165907248 l -10.256841815126537 62.1594497721744 a84.0,84.0 0 0,0 -1.4246041141118002,-0.24768568591597528 l 11.325294900710388 -61.97368550773742" fill="#4dd2ff" stroke="none" /><path d="M 96.22490169976321 120.6578951692458 l -1.259253604164203 6.890821609780954 a28.00493698026076,28.00493698026076 0 0,0 -0.4734599799938728,-0.09073973201007299 l 1.3776811987297708 -6.8681246794224124" fill="#ff5c08" stroke="none" /><path d="M 95.86986931433489 120.58985236759428 l -1.9190523417558112 9.567010685540863 a30.757584503741256,30.757584503741256 0 0,0 -0.5182045725348016,-0.10859480658335381 l 2.0834483757199997 -9.532559898230968" fill="#ff810b" stroke="none" /><path d="M 95.51606077576429 120.51570834832081 l -0.9782757978328541 4.475979701973017 a25.581639207652646,25.581639207652646 0 0,0 -0.4293815412475758,-0.09772584084166727 l 1.0551774884732927 -4.458477127553663" fill="#ff3a05" stroke="none" /><path d="M 95.16358092515715 120.4354850818985 l -2.3140310167861715 9.77755351445031 a31.047651082446485,31.047651082446485 0 0,0 -0.5190083775681782,-0.12755963179516802 l 2.4819926790975604 -9.736272624341112" fill="#ff850c" stroke="none" /><path d="M 94.81253420990036 120.34920634021253 l -1.2253036273749494 4.806577498872489 a25.960297998298643,25.960297998298643 0 0,0 -0.432065345612721,-0.11411238475713706 l 1.3078594157991594 -4.784773764811771" fill="#ff3f06" stroke="none" /><path d="M 94.11515582081647 120.15858648285463 l -2.863282015247573 9.808198207412609 a31.21758953837607,31.21758953837607 0 0,0 -0.5145328084230634,-0.1550245144008815 l 3.031689798110882 -9.757458323906002" fill="#ff870c" stroke="none" /><path d="M 93.76903079525671 120.05430185196036 l -1.0358806462495749 3.3339698014682457 a24.491189389073106,24.491189389073106 0 0,0 -0.40151398761872015,-0.12855209944169183 l 1.0931159789592355 -3.3156448553668474" fill="#ff2b04" stroke="none" /><path d="M 92.7421414339146 119.70592522655815 l -3.6221566593395162 9.834574156812565 a31.48040398604191,31.48040398604191 0 0,0 -0.5068791452465456,-0.1916583208078846 l 3.7909060253463447 -9.770767585898046" fill="#ff8a0c" stroke="none" /><path d="M 92.40401165467489 119.57807347666478 l -3.6906169828536837 9.512280322152563 a31.203143174597663,31.203143174597663 0 0,0 -0.49907038826646205,-0.19859040713020396 l 3.8538084471620038 -9.447343070616292" fill="#ff870c" stroke="none" /><path d="M 92.06813273071674 119.44442032107085 l -3.678718271073157 9.018121695323476 a30.739583514175102,30.739583514175102 0 0,0 -0.48821563929231865,-0.20407417681965065 l 3.833405369862938 -8.953462475483851" fill="#ff810b" stroke="none" /><path d="M 91.7346041902142 119.30500536409082 l -0.9013932072033807 2.1053318075359377 a23.290181594069548,23.290181594069548 0 0,0 -0.3671856004411043,-0.16096337664326718 l 0.9374994823022282 -2.089503877598218" fill="#ff1a02" stroke="none" /><path d="M 91.40352486487194 119.15986991738527 l -4.3121357073004685 9.610911207126806 a31.53395123348553,31.53395123348553 0 0,0 -0.49332915238616465,-0.22646321759354202 l 4.476932855454053 -9.53526091919919" fill="#ff8b0c" stroke="none" /><path d="M 90.42595943632237 118.69057910512821 l -3.599593921412555 7.027178805753531 a28.895461884342286,28.895461884342286 0 0,0 -0.4407371103454154,-0.23057282561047743 l 3.7200219342844663 -6.964176561198337" fill="#ff6809" stroke="none" /><path d="M 90.10565033884886 118.52300852407294 l -2.189494820613451 4.098908226871586 a25.64703520772209,25.64703520772209 0 0,0 -0.38760875800632444,-0.21135519987346305 l 2.2597263904884155 -4.060612375238357" fill="#ff3b05" stroke="none" /><line stroke="#e1ed5e" stroke-width="0.3" x1="58.666819895761336" x2="56.23545636021788" y1="174.27360380694188" y2="178.64263932499728" /><path d="M 58.180547188652646 175.14741091055294 a86.0,86.0 0 0,1 -31.652253787137756,-30.449443065178592" fill="none" id="id56" stroke="none" /><text fill="#e1ed5e" style="font-size:6.75px; font-family:Arial;" text-anchor="middle"><textPath startOffset="22.20632615414155" xlink:href="#id56">August</textPath></text><path d="M 89.7882731507175 118.34994917583269 l -1.7758744520949106 3.191155268796777 a24.652013419905906,24.652013419905906 0 0,0 -0.36901861030582706,-0.2095383977257821 l 1.8305418293219449 -3.1601137052763617" fill="#ff2d04" stroke="none" /><path d="M 89.4739219176387 118.17145234162733 l -2.3596462429209586 4.07352091736711 a25.707600562490235,25.707600562490235 0 0,0 -0.38100148827694275,-0.2251023949682244 l 2.429415602226283 -4.032299950105136" fill="#ff3c05" stroke="none" /><path d="M 89.1626897886671 117.98757091392108 l -5.362235279628305 8.900140853085398 a31.39067247096405,31.39067247096405 0 0,0 -0.46042762138900944,-0.2828322507390158 l 5.514642100949622 -8.806520135518005" fill="#ff890c" stroke="none" /><path d="M 88.8546689885994 117.79835938074946 l -5.2484697085856356 8.381460360112307 a30.88915123001337,30.88915123001337 0 0,0 -0.44821364281474907,-0.2860711533389067 l 5.391965153447308 -8.289874777949596" fill="#ff830c" stroke="none" /><path d="M 88.54995079064634 117.60387380957326 l -2.657617626507421 4.0859532108312315 a25.874212253259493,25.874212253259493 0 0,0 -0.37126451438474234,-0.24605387569900847 l 2.7275568396321255 -4.039601314040905" fill="#ff3e05" stroke="none" /><path d="M 88.24862548938628 117.40417183066458 l -2.7098841808765144 4.013427525654742 a25.842630770299127,25.842630770299127 0 0,0 -0.3665261741983928,-0.25210004477774417 l 2.7785672396977974 -3.9661866915118966" fill="#ff3e05" stroke="none" /><path d="M 87.95078237400918 117.19931262002967 l -2.220359270479267 3.1693886198369383 a24.869757035468133,24.869757035468133 0 0,0 -0.34849951707505483,-0.24864515219698252 l 2.274586115403209 -3.1306992057957364" fill="#ff3004" stroke="none" /><path d="M 87.36589467227662 116.77436683061367 l -5.55224743453224 7.371747566233103 a30.228765559625703,30.228765559625703 0 0,0 -0.4129411624839106,-0.31662567467816655 l 5.678317325509637 -7.2750825497275695" fill="#ff7a0b" stroke="none" /><path d="M 87.07902340077011 116.55440617244103 l -1.6597334396573311 2.1264570280010977 a23.697505251644937,23.697505251644937 0 0,0 -0.3194000620366265,-0.2537507263704885 l 1.6960909944113156 -2.0975723876254784" fill="#ff2003" stroke="none" /><path d="M 86.24171649860922 115.8653595955263 l -2.0240866334998198 2.334074762286058 a24.08947110293224,24.08947110293224 0 0,0 -0.3109350169945505,-0.27436400070316996 l 2.0639640034009576 -2.2988876198105994" fill="#ff2503" stroke="none" /><path d="M 85.44109423537348 115.13401014063109 l -28.92233760092336 30.064824762217192 a62.71804525963091,62.71804525963091 0 0,0 -0.7715814276058447,-0.7551548232759664 l 29.435568980905 -29.562519836018655" fill="#33ff50" stroke="none" /><path d="M 85.18274418774928 114.88116024355367 l -20.07716168577717 20.163751241627715 a49.45468828666169,49.45468828666169 0 0,0 -0.5980705583501926,-0.6058423180460379 l 20.421272869182896 -19.815168429601012" fill="#9bff22" stroke="none" /><path d="M 84.9287848128048 114.62390073753433 l -7.73789458933726 7.5082334759650635 a31.781863596118125,31.781863596118125 0 0,0 -0.3775888929618609,-0.39590044469001007 l 7.865990033678078 -7.3739259146925535" fill="#ff8e0d" stroke="none" /><path d="M 84.67929136418377 114.36230785411682 l -6.816599557227434 6.390181008355229 a30.34347059946876,30.34347059946876 0 0,0 -0.35394010081980304,-0.3841320754210036 l 6.925586066042966 -6.271897678132881" fill="#ff7b0b" stroke="none" /><path d="M 84.43433777217949 114.09645910891817 l -3.4850872142647815 3.1561387294587218 a25.701812902553776,25.701812902553776 0 0,0 -0.2941525371010931,-0.33048349372271685 l 3.5388986010142127 -3.0956810659951404" fill="#ff3c05" stroke="none" /><path d="M 84.19399662182784 113.82643327865904 l -3.4301656130695455 3.0005659779468656 a25.55734926476971,25.55734926476971 0 0,0 -0.2867990852266063,-0.33361212943812396 l 3.481307207866931 -2.941076749347211" fill="#ff3a05" stroke="none" /><path d="M 83.72743513129214 113.27417163493432 l -7.2351977358356345 5.902035563112598 a30.337136074026496,30.337136074026496 0 0,0 -0.32660395551865284,-0.40748865216341834 l 7.3357196034091485 -5.77661907737092" fill="#ff7b0b" stroke="none" /><path d="M 83.50135304334701 112.99209946851258 l -2.915319023205911 2.2957103592464474 a24.71071031752921,24.71071031752921 0 0,0 -0.2602781268541238,-0.3364445648035378 l 2.9544039672781035 -2.2451878003296573" fill="#ff2e04" stroke="none" /><path d="M 83.28015986056508 112.70617746262583 l -7.478878164486306 5.683544363273561 a30.39341764899915,30.39341764899915 0 0,0 -0.3129635301536582,-0.4192657924099782 l 7.57560296133505 -5.553965691354275" fill="#ff7c0b" stroke="none" /><path d="M 82.85270091963577 112.12312394758628 l -8.520288429087598 6.023835719603027 a31.434649572056042,31.434649572056042 0 0,0 -0.3085671498314214,-0.44451399335768227 l 8.622716486081154 -5.876280464058332" fill="#ff8a0c" stroke="none" /><path d="M 82.6465618267979 111.8261652097733 l -8.120047928382714 5.533717719444405 a30.826352841096508,30.826352841096508 0 0,0 -0.29504767583683367,-0.4410562427817151 l 8.21409870963028 -5.393124562456869" fill="#ff820b" stroke="none" /><path d="M 82.24976979558568 111.22182372390057 l -35.80780986196535 22.637955991691435 a63.3636199892363,63.3636199892363 0 0,0 -0.5749052460281834,-0.926930310412889 l 36.19217974766149 -22.01822934991328" fill="#34ff58" stroke="none" /><line stroke="#e1ed5e" stroke-width="0.3" x1="26.63291911575756" x2="22.317208475507996" y1="142.92168965132927" y2="145.44649492493687" /><path d="M 25.769776987707644 143.4266507060508 a86.0,86.0 0 0,1 -11.730757126820373,-40.83630448921669" fill="none" id="id57" stroke="none" /><text fill="#e1ed5e" style="font-size:6.75px; font-family:Arial;" text-anchor="middle"><textPath startOffset="21.46611528233685" xlink:href="#id57">September</textPath></text><path d="M 81.69416730710424 110.29060199501025 l -4.038733673364916 2.270369313086388 a25.63313570944949,25.63313570944949 0 0,0 -0.21290588416470133,-0.38648602245339314 l 4.077215966981135 -2.200512772235172" fill="#ff3b05" stroke="none" /><path d="M 81.35079622478065 109.6543875284942 l -4.362413355103309 2.258349986266399 a25.91231055016406,25.91231055016406 0 0,0 -0.2016487742390079,-0.3978721619977373 l 4.400640799128583 -2.182923612565977" fill="#ff3f05" stroke="none" /><path d="M 81.02952815118164 109.00673069616217 l -8.336406070298304 3.957928144718507 a30.228264266245375,30.228264266245375 0 0,0 -0.2191194814379132,-0.47196386923306516 l 8.403300168576044 -3.8138442082066146" fill="#ff7a0b" stroke="none" /><path d="M 80.58989483394504 108.01547362559985 l -6.582977890513474 2.7184646970175144 a28.12219405913092,28.12219405913092 0 0,0 -0.18091594755880985,-0.4490185450320905 l 6.628796452329672 -2.604746784142619" fill="#ff5d08" stroke="none" /><path d="M 79.50377843672027 104.57218783832718 l -4.681490581713682 1.0443219613366348 a25.79655735143487,25.79655735143487 0 0,0 -0.09294863379030543,-0.4342250728747902 l 4.698773254228428 -0.9635830690456808" fill="#ff3d05" stroke="none" /><path d="M 79.23777060512086 103.15116336523772 l -4.746393928434722 0.7203784516492824 a25.80074998697939,25.80074998697939 0 0,0 -0.06286285036034625,-0.4396626290067712 l 4.7580908298116675 -0.6385703506621107" fill="#ff3d05" stroke="none" /><path d="M 79.0235259727143 100.99374915477108 l -4.727772990051966 0.22397569804640866 a25.733075380635754,25.733075380635754 0 0,0 -0.017152770024198717,-0.4426367777042662 l 4.730927892927365 -0.1425616733281457" fill="#ff3c05" stroke="none" /><line stroke="#e1ed5e" stroke-width="0.3" x1="15.007084014347285" x2="10.007500721073583" y1="101.09737516637583" y2="101.16192664675087" /><path d="M 14.007167355692545 101.11028546245083 a86.0,86.0 0 0,1 10.666146001902534,-42.60595125391555" fill="none" id="id58" stroke="none" /><text fill="#e1ed5e" style="font-size:6.75px; font-family:Arial;" text-anchor="middle"><textPath startOffset="22.20632615414155" xlink:href="#id58">October</textPath></text><path d="M 79.00175016825051 100.2711162175752 l -4.686474635740434 0.0605088179817232 a25.686865245395047,25.686865245395047 0 0,0 -0.001902910756496758,-0.4421694438509396 l 4.686821843786434 0.02017010407289178" fill="#ff3c05" stroke="none" /><path d="M 79.00486145842228 99.54816195383935 l -5.643302318749582 -0.12144995797708388 a26.644609034565374,26.644609034565374 0 0,0 0.01381498306086799,-0.45845203116086514 l 5.640375641233069 0.21857213656294344" fill="#ff4906" stroke="none" /><path d="M 79.01574976396665 99.18683210126434 l -0.4930393511083434 -0.01910593748287994 a21.49340940261454,21.49340940261454 0 0,0 0.01750831817328213,-0.36957292457565216 l 0.49263742470156247 0.027589968681541177" fill="#ff0000" stroke="none" /><path d="M 79.03285615573316 98.82574320788736 l -5.094727296927482 -0.28532823434674054 a26.10271089043593,26.10271089043593 0 0,0 0.02898570434036351,-0.448396016768998 l 5.089061001582706 0.3729833153687503" fill="#ff4106" stroke="none" /><path d="M 79.05617556472873 98.46500227214037 l -1.6228455132849149 -0.11894027202426173 a22.627198312529295,22.627198312529295 0 0,0 0.03181331951885867,-0.3882030783135213 l 1.6205577099465591 0.1468572675455614" fill="#ff1001" stroke="none" /><path d="M 79.08570108090925 98.10471618934814 l -3.655445541836274 -0.3312617259112495 a24.670424558601415,24.670424558601415 0 0,0 0.0419665940891894,-0.42259787531615634 l 3.649201822064856 0.3941351319318362" fill="#ff2d04" stroke="none" /><path d="M 79.46518482838121 95.60439243477599 l -4.504390369844335 -0.9641933575216636 a25.606430443915905,25.606430443915905 0 0,0 0.09596999070371848,-0.43021465050066954 l 4.487125992138578 1.0415861775722923" fill="#ff3b05" stroke="none" /><path d="M 79.62865764111835 94.90015583598534 l -4.471847572769294 -1.1195003915099173 a25.609848353327198,25.609848353327198 0 0,0 0.11073657955844184,-0.42671321333241574 l 4.4519146613405445 1.1963100303911969" fill="#ff3b05" stroke="none" /><path d="M 79.81627453868168 94.20196356495316 l -9.214840771595998 -2.647082305953001 a30.587509331435218,30.587509331435218 0 0,0 0.14972455149105598,-0.5047967555662599 l 9.167910322993235 2.8053084482657997" fill="#ff7f0b" stroke="none" /><path d="M 79.91906864156998 93.8553929516997 l -8.171071498962212 -2.5002836087884694 a29.54504696099026,29.54504696099026 0 0,0 0.15299342089612308,-0.4850309534631029 l 8.126822594297886 2.6405647286779867" fill="#ff710a" stroke="none" /><path d="M 80.14247586403 93.16781622104843 l -4.606839763536815 -1.5850302227583233 a25.87188807485981,25.87188807485981 0 0,0 0.14851316195513226,-0.41986670784463237 l 4.578873520771873 1.6640945570295669" fill="#ff3e05" stroke="none" /><line stroke="#e1ed5e" stroke-width="0.3" x1="26.266209847984243" x2="21.928928074336255" y1="57.711370442889674" y2="55.22380399835377" /><path d="M 25.398753493254645 57.213857153982495 a86.0,86.0 0 0,1 29.58750427330803,-30.492523968695096" fill="none" id="id59" stroke="none" /><text fill="#e1ed5e" style="font-size:6.75px; font-family:Arial;" text-anchor="middle"><textPath startOffset="21.46611528233685" xlink:href="#id59">November</textPath></text><line stroke="#e1ed5e" stroke-width="0.3" x1="56.762969772571076" x2="54.21961505331055" y1="26.818313649435495" y2="22.513508569990535" /><path d="M 56.25429882871897 25.957352633546506 a86.0,86.0 0 0,1 42.265352541879196,-11.944610805530505" fill="none" id="id60" stroke="none" /><text fill="#e1ed5e" style="font-size:6.75px; font-family:Arial;" text-anchor="middle"><textPath startOffset="22.20632615414155" xlink:href="#id60">December</textPath></text></svg>