<?xml version="1.0" encoding="utf-8" ?>
<svg baseProfile="full" height="200mm" version="1.1" viewBox="0,0,200,200" width="200mm" xmlns="http://www.w3.org/2000/svg" xmlns:ev="http://www.w3.org/2001/xml-events" xmlns:xlink="http://www.w3.org/1999/xlink"><defs /><rect fill="#1a1a1a" height="200" width="200" x="0" y="0" /><text alignment-baseline="middle" fill="#e1ed5e" style="dominant-baseline: central; font-size:9.0px; font-family:Arial;" text-anchor="middle" x="100.0" y="100.0">2025</text><line stroke="#e1ed5e" stroke-width="0.3" x1="100.0" x2="100.0" y1="15.0" y2="10.0" /><path d="M 100.0 14.0 a86.0,86.0 0 0,1 42.46469731375804,11.215312516191453" fill="none" id="id49" stroke="none" /><text fill="#e1ed5e" style="font-size:6.75px; font-family:Arial;" text-anchor="middle"><textPath startOffset="22.20632615414155" xlink:href="#id49">January</textPath></text><path d="M 100.36148047927253 79.00311137660856 l 0.06767539196480092 -3.9309803685359768 a24.9315628720005,24.9315628720005 0 0,0 0.42902870309073937,0.011080545642867128 l -0.1353307302504081 3.92923303075075" fill="#ff3304" stroke="none" /><path d="M 101.08401301168833 79.027996857942 l 0.4851044820663452 -9.385138935072934 a30.397667752647077,30.397667752647077 0 0,0 0.5223158167580653,0.03150751644947078 l -0.6465823476640223 9.375398149243159" fill="#ff7e0b" stroke="none" /><path d="M 101.44485096284872 79.0497635885617 l 0.6950148635714302 -10.077666192350096 a31.10160390952948,31.10160390952948 0 0,0 0.5337772940743328,0.04143139118511019 l -0.8683823470081042 10.06420953897652" fill="#ff870c" stroke="none" /><path d="M 101.80526077348638 79.07773832637324 l 0.6594840082078621 -7.643160030919069 a28.671558799573962,28.671558799573962 0 0,0 0.4913415990057748,0.04665880523221384 l -0.7909507343038811 7.6306756811716765" fill="#ff6609" stroke="none" /><path d="M 102.16513564639614 79.11191278185805 l 0.40344150904998016 -3.8921909777254515 a24.913044295470208,24.913044295470208 0 0,0 0.4261711918033332,0.04788529900625439 l -0.4703794043630386 3.8846697252485964" fill="#ff3304" stroke="none" /><path d="M 102.52436894288641 79.15227682838746 l 1.186058797523349 -9.795171005292747 a30.866717310945432,30.866717310945432 0 0,0 0.5269173112040876,0.06840898962237951 l -1.3544908372352826 9.77330369250623" fill="#ff840c" stroke="none" /><path d="M 102.88285421437855 79.19881850522331 l 0.45735802081912375 -3.300058376764373 a24.3316004636301,24.3316004636301 0 0,0 0.4143683372195535,0.061067121601182446 l -0.514095338467333 3.2916967710022216" fill="#ff2a04" stroke="none" /><path d="M 103.2404852339499 79.25152402106235 l 1.0482241886482175 -6.711665947694662 a27.793028319027627,27.793028319027627 0 0,0 0.472045784492967,0.07789159908569607 l -1.1635991792800597 6.692628085669342" fill="#ff5a08" stroke="none" /><path d="M 103.59715602781102 79.31037775812273 l 1.676454780864345 -9.642399677274875 a30.78705124992168,30.78705124992168 0 0,0 0.5213345538727231,0.09527055743363352 l -1.842184455839969 9.612113638490504" fill="#ff830c" stroke="none" /><path d="M 103.95276090670814 79.375362276772 l 2.2593529131640624 -11.788806968781692 a33.003359751895246,33.003359751895246 0 0,0 0.5570237760243998,0.11173372926287807 l -2.4619430986555875 11.748169283441605" fill="#ffa00e" stroke="none" /><path d="M 104.307194497241 79.44645832069477 l 0.7428905288800678 -3.545006258314602 a24.62200989912913,24.62200989912913 0 0,0 0.4140686638972053,0.09049937209345832 l -0.803801916930801 3.5316933881252734" fill="#ff2f04" stroke="none" /><path d="M 104.66035177308747 79.52364482259891 l 1.8459720237465886 -8.110713664161752 a29.31813012969112,29.31813012969112 0 0,0 0.4911154153416997,0.1162311515087024 l -1.9853111260508118 8.07773660051218" fill="#ff6f0a" stroke="none" /><path d="M 105.01212808612495 79.60689891045804 l 0.9697750303097065 -3.9457731102218343 a25.063199360942296,25.063199360942296 0 0,0 0.41806742653586887,0.10657469568354729 l -1.0375513455306005 3.9284954183694194" fill="#ff3505" stroke="none" /><path d="M 106.0581310904928 79.89281104454417 l 2.440228184146635 -8.099218795391574 a29.458844997180627,29.458844997180627 0 0,0 0.48426781886068726,0.15046436861496798 l -2.579281375718041 8.056014291894085" fill="#ff710a" stroke="none" /><path d="M 106.40334571778207 80.00007090966166 l 4.034476894243326 -12.601108132800203 a34.23121045047303,34.23121045047303 0 0,0 0.5596267887182031,0.18450015357082644 l -4.250786505203947 12.52979425497014" fill="#ffb010" stroke="none" /><path d="M 106.74666289553966 80.11325718540242 l 3.0075085417523595 -8.865056667063625 a30.36132134578034,30.36132134578034 0 0,0 0.4934697788444141,0.1721619163057128 l -3.159660324660047 8.811973897585705" fill="#ff7d0b" stroke="none" /><path d="M 107.76421540070413 80.48803036053334 l 4.191367768079506 -10.53317513978163 a32.33646074807343,32.33646074807343 0 0,0 0.5154064291810541,0.21024722354768657 l -4.372058066848948 10.459467030050364" fill="#ff970d" stroke="none" /><path d="M 108.09893153111575 80.62456947434976 l 5.932362056880441 -14.192250970944505 a36.38222699079005,36.38222699079005 0 0,0 0.5757335693713865,0.24649906809592861 l -6.175779384042143 14.088032374885785" fill="#ffcb12" stroke="none" /><path d="M 108.43124777332544 80.76684994638697 l 7.292268657502492 -16.63493958328855 a39.163105381868306,39.163105381868306 0 0,0 0.6150805929195259,0.2759687328740537 l -7.577531368888798 16.506950519897963" fill="#ffed16" stroke="none" /><path d="M 108.76106565485865 80.91482961587045 l 4.830579674770886 -10.522970581322838 a32.57874819873442,32.57874819873442 0 0,0 0.5076417266290417,0.2383445973847398 l -5.010999612699525 10.438261001298095" fill="#ff9a0e" stroke="none" /><path d="M 109.41281617654863 81.2277094730956 l 1.5125465578101314 -3.016521611186094 a24.37449251300044,24.37449251300044 0 0,0 0.373439873162109,0.19129040751699833 l -1.564246918560996 2.9900386783565955" fill="#ff2b04" stroke="none" /><path d="M 109.73455568895987 81.39251694778311 l 1.7636677785570898 -3.3712291909183785 a24.804695821063845,24.804695821063845 0 0,0 0.37662381580498605,0.2011793990942958 l -1.821436640890387 3.3403710653223286" fill="#ff3104" stroke="none" /><line stroke="#e1ed5e" stroke-width="0.3" x1="143.23703022742887" x2="145.7803849466894" y1="26.81831364943548" y2="22.513508569990506" /><path d="M 143.74570117128098 25.957352633546492 a86.0,86.0 0 0,1 28.547481713284135,27.462654790039103" fill="none" id="id50" stroke="none" /><text fill="#e1ed5e" style="font-size:6.75px; font-family:Arial;" text-anchor="middle"><textPath startOffset="19.985693538727396" xlink:href="#id50">February</textPath></text><path d="M 110.99172775467656 82.1063720568725 l 5.369597773471355 -8.741263148722295 a31.258765114967733,31.258765114967733 0 0,0 0.4560517596057211,0.2855795700268337 l -5.519268685449339 8.647539237372516" fill="#ff890c" stroke="none" /><path d="M 111.2981086023043 82.29822771554956 l 6.381049420859113 -9.997769339979135 a32.8605726458242,32.8605726458242 0 0,0 0.4741827172998016,0.3084216295821874 l -6.552199163943194 9.88644878623742" fill="#ff9e0e" stroke="none" /><path d="M 111.60114157652 82.49532879139004 l 7.711804531475305 -11.636148206462739 a34.95965165089907,34.95965165089907 0 0,0 0.49874988189485475,0.3367581466269054 l -7.910959107776702 11.501678147537165" fill="#ffb911" stroke="none" /><path d="M 112.77801427241765 83.33499621200491 l 4.532108119595884 -5.910746174677628 a28.44828331558173,28.44828331558173 0 0,0 0.3860397431686636,0.3013101428040842 l -4.633180417923978 5.83185764265032" fill="#ff6309" stroke="none" /><path d="M 113.06298171725822 83.55741782278167 l 2.32442668850229 -2.9257927223556006 a24.736739552659607,24.736739552659607 0 0,0 0.331114924707045,0.2677385749468938 l -2.3744450117738265 2.885348050144577" fill="#ff3004" stroke="none" /><path d="M 113.34407831869373 83.78471172551755 l 4.8885718658567665 -5.940432914302009 a28.69330085834221,28.69330085834221 0 0,0 0.3786729558406682,0.3171277104653408 l -4.990102358656552 5.855404046442849" fill="#ff6709" stroke="none" /><path d="M 113.6212207817346 84.01681056812373 l 2.078962183814557 -2.4394617000976124 a24.20516101748011,24.20516101748011 0 0,0 0.3147895037441627,0.272982355659658 l -2.120645486205484 2.403314351018283" fill="#ff2904" stroke="none" /><path d="M 114.16331599549186 84.49514656593476 l 4.421366462836787 -4.840154594192203 a27.555576091723577,27.555576091723577 0 0,0 0.3474523479323624,0.3229190906783073 l -4.504026694563995 4.763330917439255" fill="#ff5708" stroke="none" /><path d="M 114.68862486808459 84.99185889309783 l 8.413749420670916 -8.596770608385203 a33.0289502537435,33.0289502537435 0 0,0 0.4028968863363578,0.4011667190662206 l -8.560482107174597 8.450668038668864" fill="#ffa00e" stroke="none" /><path d="M 115.4437574822437 85.77008943001954 l 2.8865728656665324 -2.6596942990974406 a24.925083014848695,24.925083014848695 0 0,0 0.28801094770125096,0.31802888194780066 l -2.931927453983819 2.609612629880091" fill="#ff3304" stroke="none" /><path d="M 115.68641384162765 86.03803664274999 l 2.901092215948539 -2.5821671941095405 a24.88380270659733,24.88380270659733 0 0,0 0.2820260718711299,0.32240455328476747 l -2.945110151397517 2.531847084621825" fill="#ff3204" stroke="none" /><path d="M 116.38621287248628 86.86637796730983 l 11.734503673486515 -9.405256552449638 a36.03853142033707,36.03853142033707 0 0,0 0.38380335683545713,0.48739128733991144 l -11.894661110915935 9.201872871156688" fill="#ffc712" stroke="none" /><path d="M 116.60985879189232 87.15038557335679 l 12.469647780234292 -9.64669043967251 a36.76549245034772,36.76549245034772 0 0,0 0.38292846516189327,0.5038889737829046 l -12.633852185620299 9.430616690008572" fill="#ffd013" stroke="none" /><path d="M 117.04232023915458 87.72973835380427 l 5.993401027028668 -4.315175264883306 a28.385228055886223,28.385228055886223 0 0,0 0.28207804186915325,0.3989793859112432 l -6.066791688701704 4.21136937864027" fill="#ff6309" stroke="none" /><path d="M 117.2510076193507 88.02491185347247 l 3.003902900900378 -2.085211647668712 a24.65671167220099,24.65671167220099 0 0,0 0.2390239644533474,0.35073817382721534 l -3.0393513310224587 2.0331954505710903" fill="#ff2f04" stroke="none" /><line stroke="#e1ed5e" stroke-width="0.3" x1="172.23445277983987" x2="176.4835382374775" y1="55.19839476539836" y2="52.563006222186495" /><path d="M 173.08426987136738 54.67131705675599 a86.0,86.0 0 0,1 12.851231095245387,41.99856678651699" fill="none" id="id51" stroke="none" /><text fill="#e1ed5e" style="font-size:6.75px; font-family:Arial;" text-anchor="middle"><textPath startOffset="22.20632615414155" xlink:href="#id51">March</textPath></text><path d="M 117.84615892207809 88.93136811851018 l 15.54746385448036 -9.642923995432685 a39.295070797569075,39.295070797569075 0 0,0 0.35156776228988473,0.5778849626856497 l -15.711147415056468 9.373871259539955" fill="#ffef16" stroke="none" /><path d="M 118.03404312379186 89.2402003453031 l 9.500441482359209 -5.668326635334296 a32.06292525530982,32.06292525530982 0 0,0 0.27870365778751516,0.47639489427690007 l -9.596604814617052 5.503952328703501" fill="#ff940d" stroke="none" /><path d="M 118.21658344932153 89.55222093294921 l 5.498387131812867 -3.153496600397671 a27.338517323475973,27.338517323475973 0 0,0 0.23060997344039122,0.4102294105981229 l -5.551854746545692 3.0583836798647543" fill="#ff5407" stroke="none" /><path d="M 118.56541770881063 90.18545643968196 l 3.2538334291826407 -1.720127735858949 a24.68052596955078,24.68052596955078 0 0,0 0.19531764765648157,0.3772915269137024 l -3.282960509999239 1.6638634866849018" fill="#ff2f04" stroke="none" /><path d="M 119.04729006885535 91.15688171328212 l 9.775683607358086 -4.538573527304485 a31.777877325982082,31.777877325982082 0 0,0 0.22607339258689113,0.4981227534014354 l -9.852359316908325 4.369628765060987" fill="#ff900d" stroke="none" /><path d="M 119.196687751892 91.48605970444005 l 11.658340546846748 -5.170601128904441 a33.75351011841363,33.75351011841363 0 0,0 0.23098537997310076,0.5331461037848838 l -11.745616636662529 4.969155880532956" fill="#ffaa0f" stroke="none" /><path d="M 119.34039704204932 91.81776055985345 l 1.116001859264921 -0.4721410014645047 a22.211766180063904,22.211766180063904 0 0,0 0.14594009660968707,0.3534055198049832 l -1.1239636427608055 0.4528609112062184" fill="#ff0c01" stroke="none" /><path d="M 119.47837535516314 92.15188598940014 l 2.921817321930429 -1.177241686872888 a24.150065785351796,24.150065785351796 0 0,0 0.1520378317907031,0.3869196983482801 l -2.9416487036028323 1.1267729836288236" fill="#ff2803" stroke="none" /><path d="M 119.61058180528143 92.48833698450437 l 5.2317410177976855 -2.0039729519630325 a26.602412129565817,26.602412129565817 0 0,0 0.16011537276027749,0.4290295946425793 l -5.265460979059588 1.91362022029112" fill="#ff4a06" stroke="none" /><path d="M 119.7369772167798 92.82701384747503 l 3.219949151005787 -1.170222289782193 a24.426002443455925,24.426002443455925 0 0,0 0.14021330203288931,0.3964018861732901 l -3.239615533848486 1.1146227771822883" fill="#ff2c04" stroke="none" /><path d="M 119.97218684219823 93.5106431181261 l 12.54781011855035 -4.0770306521075685 a34.19354833657039,34.19354833657039 0 0,0 0.1770648034337526,0.5613438142058492 l -12.61613040575231 3.8604366714753002" fill="#ffaf10" stroke="none" /><path d="M 120.08093135843002 93.85539295169968 l 12.931731034238133 -3.957007981422431 a34.52359344652591,34.52359344652591 0 0,0 0.16899151508647356,0.5697553786893317 l -12.997928446436308 3.733823215986569" fill="#ffb310" stroke="none" /><path d="M 120.18372546131832 94.20196356495316 l 1.7175957087798772 -0.49340160315158094 a22.787059081511185,22.787059081511185 0 0,0 0.10505184661791342,0.3779273860197555 l -1.7258343259641538 0.4637629137128735" fill="#ff1502" stroke="none" /><path d="M 120.28053869075195 94.5502522615342 l 3.2081522532012445 -0.862088564467475 a24.32196290959213,24.32196290959213 0 0,0 0.10516778325263862,0.40525436951116994 l -3.222516368324186 0.8067377694074546" fill="#ff2a04" stroke="none" /><path d="M 120.37134235888165 94.90015583598534 l 6.768037402237867 -1.6943378320175906 a27.976898377294653,27.976898377294653 0 0,0 0.11292968251575679,0.46816644105453986 l -6.796199885014443 1.5775861593036444" fill="#ff5d08" stroke="none" /><path d="M 120.45610955862082 95.25157060432595 l 3.4118614534642853 -0.7919875073591119 a24.502576592945303,24.502576592945303 0 0,0 0.0918328719417755,0.4116687582983415 l -3.4249887124080987 0.7331405795108066" fill="#ff2d04" stroke="none" /><path d="M 120.98425023603335 99.18683210126433 l 3.416103414622972 -0.13237859843868324 a24.41866737673078,24.41866737673078 0 0,0 0.012660852923038894,0.42015207063391036 l -3.417875962001656 0.07355638037977381" fill="#ff2c04" stroke="none" /><line stroke="#e1ed5e" stroke-width="0.3" x1="184.98032266829074" x2="189.97916517819016" y1="98.17113171792111" y2="98.06355123074" /><path d="M 185.9800911702706 98.14961562048488 a86.0,86.0 0 0,1 -9.607161424134198,41.387399972396054" fill="none" id="id52" stroke="none" /><text fill="#e1ed5e" style="font-size:6.75px; font-family:Arial;" text-anchor="middle"><textPath startOffset="21.466115282336823" xlink:href="#id52">April</textPath></text><path d="M 120.99513854157772 99.54816195383933 l 3.431621917628466 -0.0738522081839452 a24.432416515255937,24.432416515255937 0 0,0 0.005429805427319451,0.4205444142014172 l -3.4323847301735007 0.014771535922065294" fill="#ff2c04" stroke="none" /><path d="M 120.99980553446 99.90962569577887 l 1.8462159088460994 -0.007945334442747642 a22.846233005450785,22.846233005450785 0 0,0 -0.0016924736481535954,0.39327127096288594 l -1.846079137908443 -0.023835414723823" fill="#ff1502" stroke="none" /><path d="M 120.99824983174949 100.27111621757518 l 3.336322073621385 0.0430764958251507 a24.336600150366518,24.336600150366518 0 0,0 -0.00901374049664709,0.41883310206601343 l -3.33508627043973 -0.10049941368127897" fill="#ff2b04" stroke="none" /><path d="M 120.9764740272857 100.99374915477107 l 7.308910082804673 0.34625567708076305 a28.3171073241025,28.3171073241025 0 0,0 -0.02725676530140867,0.4866878545159014 l -7.301866966615735 -0.47201524793208777" fill="#ff6209" stroke="none" /><path d="M 120.92983693683757 101.71520430193887 l 3.3468266128668094 0.2742731069313347 a24.35804617505169,24.35804617505169 0 0,0 -0.03784243287441439,0.41758809341009107 l -3.3416095837153197 -0.3318425888899963" fill="#ff2b04" stroke="none" /><path d="M 120.89721153311464 102.0752229133903 l 3.3238035517091564 0.33007433930525165 a24.34015255936345,24.34015255936345 0 0,0 -0.0449918430222748,0.4165685883676444 l -3.31762940718583 -0.38723924955768746" fill="#ff2b04" stroke="none" /><path d="M 120.81339534386255 102.79330883721812 l 3.3762923723176335 0.4531229607094344 a24.406562872000503,24.406562872000503 0 0,0 -0.059465950036613785,0.41590471605429546 l -3.3679923712644184 -0.5111731487441392" fill="#ff2c04" stroke="none" /><path d="M 120.70491114924044 103.5080841355445 l 3.1245463466961945 0.5293995898176339 a24.16907775202055,24.16907775202055 0 0,0 -0.07302923660697462,0.40958674209595486 l -3.1149706677500313 -0.583105082646807" fill="#ff2803" stroke="none" /><path d="M 120.64145759157962 103.86396538481128 l 4.855514602094198 0.9089251698771114 a25.93985495896247,25.93985495896247 0 0,0 -0.08593511657602716,0.4381813080257349 l -4.839149552542507 -0.9923702049707912" fill="#ff4106" stroke="none" /><path d="M 120.5718875245553 104.21870165774334 l 7.328694652978241 1.5029042057861621 a28.481208884155127,28.481208884155127 0 0,0 -0.10262181183378712,0.4794149403271557 l -7.301738802420011 -1.6288329655294869" fill="#ff6409" stroke="none" /><path d="M 120.49622156327973 104.57218783832717 l 5.714954228758856 1.274861522191042 a26.855422592569386,26.855422592569386 0 0,0 -0.10453081163868892,0.4503160007139591 l -5.6921628511896145 -1.3730461802535658" fill="#ff4e07" stroke="none" /><path d="M 120.41448212921028 104.9243191809786 l 2.861014016213098 0.6901250841395595 a23.943072175928826,23.943072175928826 0 0,0 -0.10009194466968042,0.39981756435224064 l -2.8487107572483565 -0.7392704878891961" fill="#ff2503" stroke="none" /><path d="M 120.32669344350535 105.2749913415812 l 3.3613672603298115 0.8723102576124917 a24.472710043230375,24.472710043230375 0 0,0 -0.1093253336326357,0.40684023646940687 l -3.3458538503553985 -0.9300414272574468" fill="#ff2c04" stroke="none" /><path d="M 120.23288151984713 105.62410040840565 l 6.7971757630158685 1.8893996362941894 a28.05488691184763,28.05488691184763 0 0,0 -0.1333373469109616,0.4641647968136096 l -6.763645779218807 -2.006121908612381" fill="#ff5e08" stroke="none" /><path d="M 120.02730092923936 106.31721596034902 l 7.425635332008777 2.3422697946586983 a28.786288453104444,28.786288453104444 0 0,0 -0.1531262611758714,0.4712741731301809 l -7.384216819816658 -2.4697428677666746" fill="#ff6809" stroke="none" /><path d="M 119.79798401119884 107.00284435728193 l 6.479433251657106 2.291872877515485 a27.872825950754965,27.872825950754965 0 0,0 -0.16388656105438873,0.4509454295444608 l -6.4390224295974905 -2.4030661040660766" fill="#ff5c08" stroke="none" /><path d="M 119.54520255179757 107.68017299344265 l 3.138241202908289 1.233153520390022 a24.37182820625274,24.37182820625274 0 0,0 -0.156789060782509,0.3891375906848996 l -3.1165495278683877 -1.286990478917735" fill="#ff2b04" stroke="none" /><path d="M 119.41010516605496 108.01547362559984 l 6.607413344948713 2.72855540692761 a28.148631038155504,28.148631038155504 0 0,0 -0.18879557440494862,0.446256968582194 l -6.559466789351456 -2.8418869011759673" fill="#ff5f08" stroke="none" /><path d="M 119.26925614724726 108.34839909993367 l 2.726139170860163 1.1810989291122251 a23.970998057765804,23.970998057765804 0 0,0 -0.1672934987264248,0.3772026754342506 l -2.7054045874024655 -1.2278499410391635" fill="#ff2503" stroke="none" /><path d="M 119.12269723197855 108.67885076344098 l 6.396506880473719 2.9030595396406333 a28.02446118664244,28.02446118664244 0 0,0 -0.20314449247590097,0.43755516421063556 l -6.345587771157987 -3.0127347711301" fill="#ff5e08" stroke="none" /><path d="M 118.97047184881838 109.00673069616215 l 5.427699095821465 2.5769429693395707 a27.008373535492762,27.008373535492762 0 0,0 -0.2030087527005175,0.4182581597694012 l -5.382537086506233 -2.669990085074247" fill="#ff5007" stroke="none" /><line stroke="#e1ed5e" stroke-width="0.3" x1="174.80103733775053" x2="179.2010983576182" y1="140.37084112569926" y2="142.7455964860345" /><path d="M 175.68104954172406 140.8457921977663 a86.0,86.0 0 0,1 -30.038265399797805,32.042727171017184" fill="none" id="id53" stroke="none" /><text fill="#e1ed5e" style="font-size:6.75px; font-family:Arial;" text-anchor="middle"><textPath startOffset="22.206326154141568" xlink:href="#id53">May</textPath></text><path d="M 118.48025628344425 109.97397251340804 l 39.91155280261487 21.54064989766058 a66.35340830775014,66.35340830775014 0 0,0 -0.5511237962937054,1.0004497750010335 l -39.534852596869655 -22.224470191059417" fill="#37ff7b" stroke="none" /><path d="M 118.12598468904814 110.60418214915192 l 5.781383945507221 3.3822630595833667 a27.69806716371155,27.69806716371155 0 0,0 -0.24429579737687337,0.40945380827165084 l -5.72230727243212 -3.4812789617411215" fill="#ff5908" stroke="none" /><path d="M 117.75023020441432 111.22182372390056 l 5.669458669654105 3.5842727146702544 a27.707441576342337,27.707441576342337 0 0,0 -0.2583324909005878,0.4009377626899393 l -5.606921315376467 -3.6813320772816467" fill="#ff5908" stroke="none" /><path d="M 117.55443506779139 111.5257021239791 l 2.857998628299354 1.8764739926582914 a24.41896341081386,24.41896341081386 0 0,0 -0.23372075307918155,0.3493808142051727 l -2.8252747698094516 -1.925391721069271" fill="#ff2c04" stroke="none" /><path d="M 117.35343817320211 111.8261652097733 l 4.709189937694668 3.2092578802845253 a26.698754777269595,26.698754777269595 0 0,0 -0.2620789090327113,0.37754421523029813 l -4.653250121499821 -3.289843357701843" fill="#ff4b07" stroke="none" /><path d="M 117.14729908036423 112.12312394758627 l 2.7925731813183243 1.9743465516732694 a24.420015976442578,24.420015976442578 0 0,0 -0.24561908784453798,0.3411434305635587 l -2.7581743010981836 -2.0221235876879593" fill="#ff2c04" stroke="none" /><path d="M 116.71984013943494 112.70617746262583 l 5.260370104641938 3.9975977946719143 a27.60698734415137,27.60698734415137 0 0,0 -0.29078463798444504,0.37587834275856224 l -5.190778649439424 -4.08755413154373" fill="#ff5808" stroke="none" /><path d="M 116.498646956653 112.99209946851258 l 4.912743215245715 3.868611085710561 a27.253095044170163,27.253095044170163 0 0,0 -0.29340174431207156,0.3660637886098537 l -4.84542355887879 -3.9526027078986647" fill="#ff5307" stroke="none" /><path d="M 116.0416608686014 113.55231037782055 l 6.022180800612286 5.087656697754712 a28.883584988409247,28.883584988409247 0 0,0 -0.3241253882365548,0.37703105255415653 l -5.933712902804953 -5.190564849470396" fill="#ff6909" stroke="none" /><path d="M 115.80600337817218 113.82643327865902 l 1.5557935973483736 1.3609434247501568 a23.067041538750704,23.067041538750704 0 0,0 -0.26399806183966235,0.29660462110109903 l -1.5321366858603729 -1.3875222155921223" fill="#ff1902" stroke="none" /><path d="M 115.56566222782051 114.09645910891815 l 14.994786372510047 13.57946676815737 a41.22981799386004,41.22981799386004 0 0,0 -0.4809234292989825,0.5219473989731923 l -14.758816535215344 -13.835565421931898" fill="#f8ff18" stroke="none" /><path d="M 115.07121518719521 114.62390073753431 l 4.486804912285912 4.353636309413058 a27.25184512248606,27.25184512248606 0 0,0 -0.32956483587571006,0.33384743877743794 l -4.411199451354666 -4.43022424217116" fill="#ff5307" stroke="none" /><path d="M 114.55890576462653 115.13401014063108 l 2.4451454649020725 2.5417333458573506 a24.526917173109453,24.526917173109453 0 0,0 -0.3067782016305031,0.2900779377715251 l -2.401031428880762 -2.583445920374797" fill="#ff2d04" stroke="none" /><path d="M 114.29624159901734 115.38237550388516 l 2.3558210539224027 2.5348007600741536 a24.460506860472403,24.460506860472403 0 0,0 -0.31088191911090235,0.2839832621686516 l -2.3118395853446367 -2.5749767888293884" fill="#ff2c04" stroke="none" /><path d="M 114.0293411484842 115.62618273729858 l 4.134199228827098 4.604760261962193 a27.188329365327988,27.188329365327988 0 0,0 -0.3509335517222158,0.30965805705044613 l -4.054323324198295 -4.675241460784927" fill="#ff5207" stroke="none" /><path d="M 113.48314897796784 116.09983520530334 l 4.532326611994359 5.41191910502185 a28.05909717436251,28.05909717436251 0 0,0 -0.3729586755919918,0.3069195991148487 l -4.438497807857676 -5.489133822993877" fill="#ff5e08" stroke="none" /><path d="M 112.92097659922987 116.55440617244103 l 4.101808991054628 5.255253854707549 a27.666523087525846,27.666523087525846 0 0,0 -0.3779395550610786,0.28978793465144803 l -4.010740707500055 -5.325081131186368" fill="#ff5908" stroke="none" /><path d="M 112.63410532772338 116.77436683061366 l 3.5528028724821255 4.717074704854635 a26.905353674581793,26.905353674581793 0 0,0 -0.372338102573218,0.2754468269368087 l -3.4710797994903433 -4.777531480531213" fill="#ff4e07" stroke="none" /><path d="M 112.34349029814194 116.9893568818739 l 1.9461819754269223 2.6786896849244886 a24.311042541194162,24.311042541194162 0 0,0 -0.34067025958936425,0.2430591848606194 l -1.8997843879886733 -2.7117931316293276" fill="#ff2a04" stroke="none" /><path d="M 112.04921762599082 117.19931262002967 l 3.888460159691426 5.550471737916163 a27.77700958586555,27.77700958586555 0 0,0 -0.3939614795673443,0.27097029797898237 l -3.792341795501198 -5.61658282526024" fill="#ff5a08" stroke="none" /><line stroke="#e1ed5e" stroke-width="0.3" x1="143.8653032363475" x2="146.44561519142675" y1="172.8068346515853" y2="177.08958963109032" /><path d="M 144.38136562736335 173.6633856474863 a86.0,86.0 0 0,1 -40.68145358897372,12.25698825130547" fill="none" id="id54" stroke="none" /><text fill="#e1ed5e" style="font-size:6.75px; font-family:Arial;" text-anchor="middle"><textPath startOffset="21.466115282336833" xlink:href="#id54">June</textPath></text><path d="M 108.2653958097858 119.30500536409082 l 3.4267525253555746 8.003667024037595 a29.706395275985212,29.706395275985212 0 0,0 -0.47180622190432686,0.1972150390206262 l -3.2884748439537868 -8.061467106078194" fill="#ff740a" stroke="none" /><path d="M 107.93186726928326 119.44442032107085 l 1.2566326963946408 3.0805475568813883 a24.32699548900445,24.32699548900445 0 0,0 -0.38909166990386607,0.1548276053916558 l -1.2034199504489085 -3.101722006679113" fill="#ff2a04" stroke="none" /><path d="M 107.59598834532513 119.57807347666477 l 2.697989313212914 6.953859144063481 a28.458907649896624,28.458907649896624 0 0,0 -0.45822876957444153,0.17326291157586057 l -2.577890322878198 -6.999270305745972" fill="#ff6409" stroke="none" /><path d="M 106.91757812671514 119.82793768551818 l 2.424088663616541 6.948194597288009 a28.358913915168223,28.358913915168223 0 0,0 -0.4622911701995109,0.1568342646152806 l -2.3041277604798034 -6.988891848801413" fill="#ff6209" stroke="none" /><path d="M 106.2309692047433 120.05430185196036 l 5.263033560330632 16.939012247969575 a38.73780308251362,38.73780308251362 0 0,0 -0.6384820515268453,0.19236940457690566 l -4.97067653436354 -17.027097021652207" fill="#ffe815" stroke="none" /><path d="M 105.53697534728816 120.25689768951611 l 0.923794781095232 3.3796820814671347 a24.503662051249922,24.503662051249922 0 0,0 -0.4078220987156702,0.10770952290818353 l -0.8654822395680645 -3.395082953678902" fill="#ff2d04" stroke="none" /><path d="M 105.18746579009965 120.34920634021253 l 1.8342604076329916 7.195371502563496 a28.425488691184764,28.425488691184764 0 0,0 -0.4751749730766386,0.11678644743258063 l -1.7101321498131419 -7.225879208310107" fill="#ff6309" stroke="none" /><path d="M 104.83641907484287 120.43548508189849 l 0.8247608081486781 3.4848897356159023 a24.58115719566443,24.58115719566443 0 0,0 -0.41258869600373205,0.09390384393698131 l -0.764651962752084 -3.498570313130568" fill="#ff2e04" stroke="none" /><path d="M 104.13013068566511 120.58985236759428 l 8.654035343569472 43.142777715602456 a65.00217718188082,65.00217718188082 0 0,0 -1.0989465725198035,0.21061572613830704 l -7.910121156477965 -43.28535064008923" fill="#36ff6b" stroke="none" /><path d="M 103.41894727170886 120.7198165907248 l 0.5695157311555753 3.451431261523387 a24.498103189023244,24.498103189023244 0 0,0 -0.4166592318446152,0.06507360298423727 l -0.510020635702443 -3.46072317185473" fill="#ff2d04" stroke="none" /><path d="M 103.06178313531738 120.77559828337769 l 0.4224554795910465 2.8665535567676534 a23.89751581981079,23.89751581981079 0 0,0 -0.40747700746355503,0.05647260029550068 l -0.37304988094066105 -2.8734007225557567" fill="#ff2403" stroke="none" /><path d="M 102.70371172650421 120.8252237178851 l 0.07568139882268744 0.5829327314427722 a21.587825010964224,21.587825010964224 0 0,0 -0.36891801868574264,0.04467083437243313 l -0.06563595708556451 -0.5841490945405563" fill="#ff0300" stroke="none" /><path d="M 102.34483914955558 120.86867818915974 l 0.4005479180680766 3.5648098092719307 a24.58724234070547,24.58724234070547 0 0,0 -0.4209890897655357,0.0436372404747338 l -0.3391262316969383 -3.5711764182024233" fill="#ff2e04" stroke="none" /><path d="M 101.62511606390274 120.93702456842531 l 0.2558888347722792 3.2967188863709365 a24.306634922623896,24.306634922623896 0 0,0 -0.41742274824997716,0.02878791665542539 l -0.1991033257433717 -3.3006351475426468" fill="#ff2a04" stroke="none" /><path d="M 100.90346689309514 120.98055641714683 l 0.1428588274414837 3.3175069410184315 a24.320581417204437,24.320581417204437 0 0,0 -0.4184062429274098,0.014410756998517738 l -0.08573223283942161 -3.319474496443043" fill="#ff2a04" stroke="none" /><line stroke="#e1ed5e" stroke-width="0.3" x1="102.19456741930631" x2="102.32365962044197" y1="184.97166512339345" y2="189.96999836594603" /><path d="M 102.22038585953345 185.97133177190398 a86.0,86.0 0 0,1 -42.740103519485714,-10.115201625700543" fill="none" id="id55" stroke="none" /><text fill="#e1ed5e" style="font-size:6.75px; font-family:Arial;" text-anchor="middle"><textPath startOffset="22.20632615414155" xlink:href="#id55">July</textPath></text><path d="M 100.54218724476979 120.99299961872073 l 0.09101279215271424 3.5239329759073685 a24.52510807593509,24.52510807593509 0 0,0 -0.42211250801818156,0.007267049630170048 l -0.030340594241864725 -3.5249775028166983" fill="#ff2d04" stroke="none" /><path d="M 100.18074693466247 120.99922214144158 l 0.0515504163880999 5.989139717578494 a26.98936156882401,26.98936156882401 0 0,0 -0.4645947021011066,0.0 l 0.05155041638809578 -5.989139717578494" fill="#ff4f07" stroke="none" /><path d="M 99.81925306533755 120.99922214144158 l -0.030186017732988023 3.50701876700875 a24.507148674895056,24.507148674895056 0 0,0 -0.4218034008047886,-0.007261728069168891 l 0.09054910843044457 -3.5059795616604212" fill="#ff2d04" stroke="none" /><path d="M 99.09653310690486 120.98055641714683 l -1.3644396344002683 31.685392067057805 a52.71475628093478,52.71475628093478 0 0,0 -0.9062217137186872,-0.046841311365984496 l 1.9096494165324442 -31.657210948929617" fill="#77ff27" stroke="none" /><path d="M 98.37488393609728 120.93702456842531 l -0.572102250708689 7.370623640242517 a28.39279337134265,28.39279337134265 0 0,0 -0.48694408894663543,-0.04201558494818485 l 0.6988906573968662 -7.359683803015669" fill="#ff6309" stroke="none" /><path d="M 98.01472825383883 120.90594882070398 l -2.5022714106378747 26.350225427556722 a47.46876918739427,47.46876918739427 0 0,0 -0.8127724799542752,-0.08424719077342427 l 2.9554764871977435 -26.303248868327536" fill="#b0ff20" stroke="none" /><path d="M 97.2962882734958 120.8252237178851 l -0.4652134018727918 3.5832862932786647 a24.613359125368085,24.613359125368085 0 0,0 -0.41968286560214374,-0.05816422101347377 l 0.5268248586617665 -3.574747506772586" fill="#ff2e04" stroke="none" /><path d="M 96.58105272829116 120.7198165907248 l -7.403099372133372 44.86493911818831 a66.47162458492576,66.47162458492576 0 0,0 -1.1273303554211944,-0.19600083249126837 l 8.174278699026615 -44.73085970717604" fill="#37ff7c" stroke="none" /><path d="M 96.22490169976321 120.6578951692458 l -0.9088937642185609 4.973600846375449 a26.055966104880646,26.055966104880646 0 0,0 -0.4405100857549922,-0.08442480635778245 l 0.9943714645452482 -4.9572188416691985" fill="#ff4306" stroke="none" /><path d="M 95.86986931433489 120.58985236759428 l -1.3851178990975057 6.905198703061701 a28.04274951444145,28.04274951444145 0 0,0 -0.47246496300982394,-0.09900962668950118 l 1.5037743235367165 -6.880333095645659" fill="#ff5e08" stroke="none" /><path d="M 95.51606077576429 120.51570834832081 l -0.7060919018980037 3.2306360104422978 a24.306898064031074,24.306898064031074 0 0,0 -0.4079853237301233,-0.09285613139479881 l 0.7615973750209897 -3.218003145469812" fill="#ff2a04" stroke="none" /><path d="M 95.16358092515715 120.4354850818985 l -1.6702023757646796 7.057162583620728 a28.25211139652904,28.25211139652904 0 0,0 -0.4722767097533536,-0.11607412482211331 l 1.7914323702612436 -7.027367200484584" fill="#ff6108" stroke="none" /><path d="M 94.81253420990036 120.34920634021253 l -0.8843896277228795 3.4692521836044614 a24.580203308063403,24.580203308063403 0 0,0 -0.4090959987526098,-0.10804597148623675 l 0.9439760692869786 -3.453514862814643" fill="#ff2e04" stroke="none" /><path d="M 94.11515582081647 120.15858648285463 l -2.0666362679064645 7.07928105939695 a28.374768184950817,28.374768184950817 0 0,0 -0.46767701729848576,-0.14090724889896175 l 2.1881882596451963 -7.042658441392263" fill="#ff6209" stroke="none" /><path d="M 93.76903079525671 120.05430185196036 l -0.7476694581119203 2.4063654474578353 a23.519842115155694,23.519842115155694 0 0,0 -0.3855895050990121,-0.12345358301746466 l 0.7889803083018727 -2.3931390177806637" fill="#ff1f03" stroke="none" /><path d="M 92.7421414339146 119.70592522655815 l -2.614370600020243 7.098318476368154 a28.564460246851702,28.564460246851702 0 0,0 -0.45992831606522094,-0.173905534634262 l 2.7361691368457466 -7.052264691627259" fill="#ff6509" stroke="none" /><path d="M 92.40401165467489 119.57807347666478 l -2.663783332239271 6.865695869134889 a28.36434120669131,28.36434120669131 0 0,0 -0.4536659239659553,-0.18052303374368245 l 2.781570332247085 -6.81882599098514" fill="#ff6209" stroke="none" /><path d="M 92.06813273071674 119.44442032107085 l -2.6551951773959637 6.509026098268622 a28.029756907461937,28.029756907461937 0 0,0 -0.4451773291422241,-0.18608415968640074 l 2.76684396603565 -6.462356895562248" fill="#ff5e08" stroke="none" /><path d="M 91.7346041902142 119.30500536409082 l -0.6506002146246711 1.5195691679202732 a22.65298853455297,22.65298853455297 0 0,0 -0.3571398171907464,-0.15655960048466658 l 0.6766607064731607 -1.5081450141411545" fill="#ff1302" stroke="none" /><path d="M 91.40352486487194 119.15986991738527 l -3.11237803240667 6.936884862373424 a28.603109141031265,28.603109141031265 0 0,0 -0.4474779415898213,-0.20541517557681632 l 3.2313239697639107 -6.882282616462534" fill="#ff6609" stroke="none" /><path d="M 90.42595943632237 118.69057910512821 l -2.5980854516294047 5.072019627720183 a26.6987218845937,26.6987218845937 0 0,0 -0.40723064335953846,-0.21304382569689392 l 2.685006997515439 -5.026546383078573" fill="#ff4b07" stroke="none" /><path d="M 90.10565033884886 118.52300852407294 l -1.580315658945622 2.9584764460375945 a24.35409905394399,24.35409905394399 0 0,0 -0.3680683560577783,-0.20070021472636432 l 1.6310068268720408 -2.9308355795514642" fill="#ff2b04" stroke="none" /><line stroke="#e1ed5e" stroke-width="0.3" x1="58.666819895761336" x2="56.23545636021788" y1="174.27360380694188" y2="178.64263932499728" /><path d="M 58.180547188652646 175.14741091055294 a86.0,86.0 0 0,1 -31.652253787137756,-30.449443065178592" fill="none" id="id56" stroke="none" /><text fill="#e1ed5e" style="font-size:6.75px; font-family:Arial;" text-anchor="middle"><textPath startOffset="22.20632615414155" xlink:href="#id56">August</textPath></text><path d="M 89.7882731507175 118.34994917583269 l -1.2817761332638162 2.303285942459282 a23.63592036839797,23.63592036839797 0 0,0 -0.3538086053694312,-0.20090175996615173 l 1.3212335055544546 -2.2808810166984967" fill="#ff2103" stroke="none" /><path d="M 89.4739219176387 118.17145234162733 l -1.7031261604973382 2.940152601481897 a24.397813420211765,24.397813420211765 0 0,0 -0.36158968633451516,-0.21363356021996466 l 1.7534837178602354 -2.910400468968183" fill="#ff2b04" stroke="none" /><path d="M 89.1626897886671 117.98757091392108 l -3.8703103106555967 6.423870851181905 a28.499694568009524,28.499694568009524 0 0,0 -0.41802374869157755,-0.2567843287683822 l 3.980313259279483 -6.356298055585145" fill="#ff6409" stroke="none" /><path d="M 88.8546689885994 117.79835938074946 l -3.7881975275263606 6.04950188838831 a28.137710669757535,28.137710669757535 0 0,0 -0.4082891661815986,-0.2605894633903968 l 3.891768495754883 -5.983397996174109" fill="#ff5f08" stroke="none" /><path d="M 88.54995079064634 117.60387380957326 l -1.9181935079813797 2.949125880547457 a24.51806904329303,24.51806904329303 0 0,0 -0.3518054543230804,-0.23315747176025253 l 1.9686736610444218 -2.915670387695886" fill="#ff2d04" stroke="none" /><path d="M 88.24862548938628 117.40417183066458 l -1.9559180339912048 2.8967788848473 a24.49527441889606,24.49527441889606 0 0,0 -0.3474166116638678,-0.23895631341620371 l 2.005491530277963 -2.8626817820659953" fill="#ff2d04" stroke="none" /><path d="M 87.95078237400918 117.19931262002967 l -1.602592749061792 2.2875753886501786 a23.793081573836226,23.793081573836226 0 0,0 -0.33341208064010464,-0.23788066689692808 l 1.6417321575507835 -2.2596504599090315" fill="#ff2303" stroke="none" /><path d="M 87.36589467227662 116.77436683061367 l -4.007455729296303 5.320719648676057 a27.661062903326858,27.661062903326858 0 0,0 -0.3778649660142391,-0.2897307429509707 l 4.098449423804028 -5.25094956389772" fill="#ff5908" stroke="none" /><path d="M 87.07902340077011 116.55440617244103 l -1.1979488234785023 1.53481675671814 a22.94698327172483,22.94698327172483 0 0,0 -0.30928436570484935,-0.24571420541440495 l 1.2241906819007098 -1.5139686372986045" fill="#ff1702" stroke="none" /><path d="M 86.24171649860922 115.8653595955263 l -1.460928690886827 1.6846693864098663 a23.22989317711923,23.22989317711923 0 0,0 -0.29984000889625,-0.26457394605089146 l 1.4897110526896649 -1.6592722985866861" fill="#ff1b02" stroke="none" /><path d="M 85.44109423537348 115.13401014063109 l -20.87532821440745 21.699943250779683 a51.11090940417267,51.11090940417267 0 0,0 -0.6287859942230704,-0.6153994372561393 l 21.245764161006313 -21.337393710600974" fill="#88ff25" stroke="none" /><path d="M 85.18274418774928 114.88116024355367 l -14.491129506452614 14.553627407668667 a41.53779211828833,41.53779211828833 0 0,0 -0.5023291296635096,-0.508856756261176 l 14.739499261171657 -14.302030157426826" fill="#f4ff19" stroke="none" /><path d="M 84.9287848128048 114.62390073753433 l -5.584994251493208 5.419231331985008 a28.782045297913665,28.782045297913665 0 0,0 -0.3419491304639781,-0.3585322961968728 l 5.677449933336144 -5.322291919205635" fill="#ff6809" stroke="none" /><path d="M 84.67929136418377 114.36230785411682 l -4.920029460508207 4.612252568915101 a27.743853768560868,27.743853768560868 0 0,0 -0.32361698269762934,-0.3512223195879479 l 4.998692851201565 -4.526878994525808" fill="#ff5a08" stroke="none" /><path d="M 84.43433777217949 114.09645910891817 l -2.5154377373456005 2.2780119911728813 a24.393636050372784,24.393636050372784 0 0,0 -0.27918069283839814,-0.31366246797814756 l 2.5542772798323368 -2.2343753534538697" fill="#ff2b04" stroke="none" /><path d="M 84.19399662182784 113.82643327865904 l -2.4757968733590494 2.1657239633571512 a24.28936626777771,24.28936626777771 0 0,0 -0.2725700523228893,-0.3170605495643476 l 2.5127094352527175 -2.122786314631273" fill="#ff2a04" stroke="none" /><path d="M 83.72743513129214 113.27417163493432 l -5.222161829232106 4.259922943059315 a27.739281686611115,27.739281686611115 0 0,0 -0.2986359391336857,-0.37259425144406216 l 5.294715680420652 -4.169400858036993" fill="#ff5a08" stroke="none" /><path d="M 83.50135304334701 112.99209946851258 l -2.1041951137858996 1.6569790414504686 a23.67828613495395,23.67828613495395 0 0,0 -0.24940359395294023,-0.322387765126971 l 2.1324055249569085 -1.6205132822102448" fill="#ff2103" stroke="none" /><path d="M 83.28015986056508 112.70617746262583 l -5.3980434954272996 4.102222152357877 a27.779904141344527,27.779904141344527 0 0,0 -0.28605196585030007,-0.38321335420064506 l 5.467856727972685 -4.008695918647923" fill="#ff5a08" stroke="none" /><path d="M 82.85270091963577 112.12312394758628 l -6.149704076234255 4.347834863540554 a28.53143600025061,28.53143600025061 0 0,0 -0.2800687778311094,-0.403459962982212 l 6.223633761227498 -4.24133363837133" fill="#ff6509" stroke="none" /><path d="M 82.6465618267979 111.8261652097733 l -5.860821762079729 3.9940815031353574 a28.09238456237078,28.09238456237078 0 0,0 -0.26888009803066976,-0.4019392644250802 l 5.9287049655211295 -3.8926053245044563" fill="#ff5f08" stroke="none" /><path d="M 82.24976979558568 111.22182372390057 l -25.845068051614135 16.339438670226404 a51.576867050936656,51.576867050936656 0 0,0 -0.46796271182610233,-0.7545048940349414 l 26.122495403108193 -15.892137444826197" fill="#83ff25" stroke="none" /><line stroke="#e1ed5e" stroke-width="0.3" x1="26.63291911575756" x2="22.317208475507996" y1="142.92168965132927" y2="145.44649492493687" /><path d="M 25.769776987707644 143.4266507060508 a86.0,86.0 0 0,1 -11.730757126820373,-40.83630448921669" fill="none" id="id57" stroke="none" /><text fill="#e1ed5e" style="font-size:6.75px; font-family:Arial;" text-anchor="middle"><textPath startOffset="21.46611528233685" xlink:href="#id57">September</textPath></text><path d="M 81.69416730710424 110.29060199501025 l -2.915044149107103 1.6386885884730145 a24.34406678779525,24.34406678779525 0 0,0 -0.20219902560377775,-0.3670499641480188 l 2.9428195841623976 -1.588268105927173" fill="#ff2b04" stroke="none" /><path d="M 81.35079622478065 109.6543875284942 l -3.1486670217067303 1.6300133770933003 a24.545567320343338,24.545567320343338 0 0,0 -0.19101282201624994,-0.37688641922918675 l 3.176258513509247 -1.5755727461614286" fill="#ff2e04" stroke="none" /><path d="M 81.02952815118164 109.00673069616217 l -6.016982971684139 2.856720995726217 a27.660701083891986,27.660701083891986 0 0,0 -0.20050765814164184,-0.43187565763842756 l 6.065265246665607 -2.7527252708089627" fill="#ff5908" stroke="none" /><path d="M 80.58989483394504 108.01547362559985 l -4.751407925211034 1.962111208732609 a26.140598959964915,26.140598959964915 0 0,0 -0.1681679324398718,-0.41737901696399715 l 4.784478471908294 -1.8800328239258064" fill="#ff4406" stroke="none" /><path d="M 79.50377843672027 104.57218783832718 l -3.378967971897624 0.7537621614554416 a24.462019923563687,24.462019923563687 0 0,0 -0.0881401072503966,-0.4117612377212492 l 3.391442117872461 -0.6954871043180287" fill="#ff2c04" stroke="none" /><path d="M 79.23777060512086 103.15116336523772 l -3.4258133785072182 0.5199488652772424 a24.465046049746256,24.465046049746256 0 0,0 -0.05960844276466061,-0.41690130986236723 l 3.4342558722884777 -0.46090208343447464" fill="#ff2c04" stroke="none" /><path d="M 79.0235259727143 100.99374915477108 l -3.4123733099427755 0.1616593469478251 a24.41620042603847,24.41620042603847 0 0,0 -0.01627498713533997,-0.41998510168341147 l 3.4146504299293166 -0.10289699825041689" fill="#ff2c04" stroke="none" /><line stroke="#e1ed5e" stroke-width="0.3" x1="15.007084014347285" x2="10.007500721073583" y1="101.09737516637583" y2="101.16192664675087" /><path d="M 14.007167355692545 101.11028546245083 a86.0,86.0 0 0,1 10.666146001902534,-42.60595125391555" fill="none" id="id58" stroke="none" /><text fill="#e1ed5e" style="font-size:6.75px; font-family:Arial;" text-anchor="middle"><textPath startOffset="22.20632615414155" xlink:href="#id58">October</textPath></text><path d="M 79.00175016825051 100.2711162175752 l -3.382565321637548 0.04367355960861143 a24.382847252678403,24.382847252678403 0 0,0 -0.0018063076933631332,-0.41972229410718076 l 3.382815926620414 0.014558212702244704" fill="#ff2b04" stroke="none" /><path d="M 79.00486145842228 99.54816195383935 l -4.073176578689238 -0.08765915706331694 a25.074119729340268,25.074119729340268 0 0,0 0.013000698898514055,-0.4314299040595504 l 4.071064185335079 0.15775920854786174" fill="#ff3505" stroke="none" /><path d="M 79.01574976396665 99.18683210126434 l -0.3558619091935564 -0.013790127247056834 a21.356129001942236,21.356129001942236 0 0,0 0.017396490920150574,-0.3672124280060754 l 0.35557181003990707 0.01991366187614132" fill="#ff0000" stroke="none" /><path d="M 79.03285615573316 98.82574320788736 l -3.6772305874358726 -0.20594187866182065 a24.68299292024309,24.68299292024309 0 0,0 0.02740918129249155,-0.42400790300403707 l 3.673140815138968 0.2692088459188695" fill="#ff2f04" stroke="none" /><path d="M 79.05617556472873 98.46500227214037 l -1.1713241577686182 -0.08584773646851092 a22.174465885596142,22.174465885596142 0 0,0 0.031176788157103758,-0.38043578342529455 l 1.1696728857920173 0.10599743710158385" fill="#ff0c01" stroke="none" /><path d="M 79.08570108090925 98.10471618934814 l -2.6383975772860233 -0.239095378412554 a23.64920900946056,23.64920900946056 0 0,0 0.040229415293317375,-0.40510472191372404 l 2.633891036310477 0.2844756310307084" fill="#ff2103" stroke="none" /><path d="M 79.46518482838121 95.60439243477599 l -3.2511420298653393 -0.695927593341336 a24.324791679719315,24.324791679719315 0 0,0 0.09116655429524022,-0.40868178694069 l 3.2386810885680615 0.7517875498319854" fill="#ff2a04" stroke="none" /><path d="M 79.62865764111835 94.90015583598534 l -3.227653556031377 -0.8080238337367677 a24.327258630411627,24.327258630411627 0 0,0 0.1051906818657666,-0.4053426072084895 l 3.2132665422953033 0.8634628664941211" fill="#ff2a04" stroke="none" /><path d="M 79.81627453868168 94.20196356495316 l -6.651012383744137 -1.9105894105030854 a27.919994047991977,27.919994047991977 0 0,0 0.1366671781338008,-0.46077378377359784 l 6.617139308498629 2.0247925810232226" fill="#ff5c08" stroke="none" /><path d="M 79.91906864156998 93.8553929516997 l -5.897649137418988 -1.8046342478519468 a27.167574086836662,27.167574086836662 0 0,0 0.14068212863164448,-0.446000792620714 l 5.865711525019139 1.9058852068990753" fill="#ff5207" stroke="none" /><path d="M 80.14247586403 93.16781622104843 l -3.3250871150865735 -1.1440301467464715 a24.516391516822253,24.516391516822253 0 0,0 0.14073216509587821,-0.3978687819232153 l 3.3049018691808856 1.201096555096298" fill="#ff2d04" stroke="none" /><path d="M 80.38941819471856 92.48833698450439 l -3.090930433403077 -1.1839540535105775 a24.309924190213646,24.309924190213646 0 0,0 0.15304422761111197,-0.38948086593837783 l 3.0700926559102744 1.2369839243447187" fill="#ff2a04" stroke="none" /><path d="M 80.65960295795068 91.81776055985345 l -6.317315736407377 -2.6726333415962666 a27.859405738988787,27.859405738988787 0 0,0 0.19065025823594406,-0.44004708166340883 l 6.270374768328752 2.7809795678462748" fill="#ff5b08" stroke="none" /><path d="M 80.803312248108 91.48605970444005 l -52.62040510200033 -23.337723317526667 a78.56349852766118,78.56349852766118 0 0,0 0.5589145072040816,-1.2314940296987822 l 52.2108882778329 24.24003935606752" fill="#46fffa" stroke="none" /><path d="M 81.10775173730289 90.83032412892265 l -2.9671754868071636 -1.4401693799647068 a24.298214397594137,24.298214397594137 0 0,0 0.18586975457546293,-0.3747020832979687 l 2.9419457192782876 1.491031051761637" fill="#ff2a04" stroke="none" /><line stroke="#e1ed5e" stroke-width="0.3" x1="26.266209847984243" x2="21.928928074336255" y1="57.711370442889674" y2="55.22380399835377" /><path d="M 25.398753493254645 57.213857153982495 a86.0,86.0 0 0,1 29.58750427330803,-30.492523968695096" fill="none" id="id59" stroke="none" /><text fill="#e1ed5e" style="font-size:6.75px; font-family:Arial;" text-anchor="middle"><textPath startOffset="21.46611528233685" xlink:href="#id59">November</textPath></text><path d="M 81.78341655067845 89.55222093294921 l -7.114180165068353 -4.08020432671184 a29.20119666687551,29.20119666687551 0 0,0 0.2538283783536913,-0.4338749782841939 l 7.042892112244337 4.202058717349925" fill="#ff6e0a" stroke="none" /><path d="M 81.96595687620814 89.24020034530311 l -47.14855441400475 -28.130630276356936 a75.90280997431239,75.90280997431239 0 0,0 0.6790923266598407,-1.1162492297241513 l 46.657346289058694 28.93804727928816" fill="#43ffdf" stroke="none" /><path d="M 82.15384107792192 88.93136811851018 l -6.10695088707175 -3.7876829172304483 a28.18619447403045,28.18619447403045 0 0,0 0.25927594948701077,-0.410112286834504 l 6.040847341338776 3.8922428517791676" fill="#ff6008" stroke="none" /><path d="M 82.34701348167596 88.62581576622439 l -2.9420077353176453 -1.8955964172952173 a24.499813608169916,24.499813608169916 0 0,0 0.23146883109355826,-0.3525429099191945 l 2.908942268866167 1.945957391192079" fill="#ff2d04" stroke="none" /><path d="M 82.54541684631803 88.32363383020206 l -4.469066615186667 -2.989613546006186 a26.37683415826076,26.37683415826076 0 0,0 0.2556989575111883,-0.3752066685535273 l 4.416943192006738 3.0660982378301287" fill="#ff4706" stroke="none" /><path d="M 82.7489923806493 88.02491185347247 l -2.7139722703702858 -1.8839512382140395 a24.303773259820815,24.303773259820815 0 0,0 0.24151860811774115,-0.3416109432497173 l 2.681141042448666 1.9303886817955431" fill="#ff2a04" stroke="none" /><path d="M 83.39014120810768 87.1503855733568 l -6.326648488522611 -4.894381987768773 a28.998840924754088,28.998840924754088 0 0,0 0.3088320209678956,-0.3921853042464665 l 6.241462386960745 5.002559685968287" fill="#ff6b09" stroke="none" /><path d="M 83.84228863543731 86.58626213691792 l -5.564545318509378 -4.61954979548835 a28.232178434935154,28.232178434935154 0 0,0 0.3136317898575268,-0.37124111463243886 l 5.484202915164727 4.714649859749905" fill="#ff6008" stroke="none" /><path d="M 84.07557802195018 86.31012108654704 l -2.501429275911099 -2.1504242945201706 a24.2987077877326,24.2987077877326 0 0,0 0.2753947694297512,-0.3148238282577352 l 2.4640426429035047 2.193163678980849" fill="#ff2a04" stroke="none" /><path d="M 84.80347519578584 85.50635884689758 l -35.97211459861526 -34.30829924786657 a70.70968141093917,70.70968141093917 0 0,0 0.847626367300033,-0.8735534799638796 l 35.37622396761211 34.922416923380574" fill="#3dffaa" stroke="none" /><path d="M 85.05521093208273 85.24692304244772 l -0.6180256891346914 -0.6100976408641312 a21.8684324290458,21.8684324290458 0 0,0 0.2667575949896046,-0.26561205310143476 l 0.6074322939777735 0.6206455446156753" fill="#ff0701" stroke="none" /><path d="M 85.57189188830299 84.74124197986013 l -2.4052797923880846 -2.543755705089823 a24.500866173798634,24.500866173798634 0 0,0 0.30893505728662696,-0.28712146678907824 l 2.3611368513066013 2.5847817579535484" fill="#ff2d04" stroke="none" /><path d="M 86.93701828274178 83.55741782278169 l -39.18894515177469 -49.32774653165494 a84.0,84.0 0 0,0 1.1398697793622974,-0.889686443107113 l 38.334042817252964 49.99501136398527" fill="#4dd2ff" stroke="none" /><line stroke="#e1ed5e" stroke-width="0.3" x1="56.762969772571076" x2="54.21961505331055" y1="26.818313649435495" y2="22.513508569990535" /><path d="M 56.25429882871897 25.957352633546506 a86.0,86.0 0 0,1 42.265352541879196,-11.944610805530505" fill="none" id="id60" stroke="none" /><text fill="#e1ed5e" style="font-size:6.75px; font-family:Arial;" text-anchor="middle"><textPath startOffset="22.20632615414155" xlink:href="#id60">December</textPath></text></svg>