<?xml version="1.0" encoding="utf-8" ?>
<svg baseProfile="full" height="200mm" version="1.1" viewBox="0,0,200,200" width="200mm" xmlns="http://www.w3.org/2000/svg" xmlns:ev="http://www.w3.org/2001/xml-events" xmlns:xlink="http://www.w3.org/1999/xlink"><defs /><rect fill="#1a1a1a" height="200" width="200" x="0" y="0" /><text alignment-baseline="middle" fill="#e1ed5e" style="dominant-baseline: central; font-size:9.0px; font-family:Arial;" text-anchor="middle" x="100.0" y="100.0">2025</text><line stroke="#e1ed5e" stroke-width="0.3" x1="100.0" x2="100.0" y1="15.0" y2="10.0" /><path d="M 100.0 14.0 a86.0,86.0 0 0,1 42.46469731375804,11.215312516191453" fill="none" id="id49" stroke="none" /><text fill="#e1ed5e" style="font-size:6.75px; font-family:Arial;" text-anchor="middle"><textPath startOffset="22.20632615414155" xlink:href="#id49">January</textPath></text><path d="M 100.36148047927253 79.00311137660856 l 0.09400726103872305 -5.460488471721914 a26.461297621896826,26.461297621896826 0 0,0 0.4553527694635666,0.011760418613716551 l -0.18798666569715744 5.458061260965838" fill="#ff4206" stroke="none" /><path d="M 101.08401301168833 79.027996857942 l 0.6738541492361728 -13.036809690189429 a34.05421335480081,34.05421335480081 0 0,0 0.5851453607297643,0.03529756612188573 l -0.898161558805549 13.023278854687238" fill="#ffa90f" stroke="none" /><path d="M 101.44485096284872 79.0497635885617 l 0.9654387186931175 -13.998792897987407 a35.03204455951785,35.03204455951785 0 0,0 0.601232978378374,0.04666725055021618 l -1.2062618864338328 13.980100385248727" fill="#ffb510" stroke="none" /><path d="M 101.80526077348638 79.07773832637324 l 0.9160831361376545 -10.617042906246533 a31.656491373120687,31.656491373120687 0 0,0 0.5424940861747899,0.051516350249350376 l -1.0987023494026886 10.599701011482004" fill="#ff890c" stroke="none" /><path d="M 102.16513564639614 79.11191278185805 l 0.5604168687319018 -5.406606487715754 a26.435573638519614,26.435573638519614 0 0,0 0.4522161077512765,0.05081174877983638 l -0.6533996799929036 5.396158785465317" fill="#ff4206" stroke="none" /><path d="M 102.52436894288641 79.15227682838746 l 1.647543305608683 -13.606381446485283 a34.7057657579252,34.7057657579252 0 0,0 0.5924526600034721,0.07691735877364404 l -1.8815106941200013 13.576005764547501" fill="#ffb110" stroke="none" /><path d="M 102.88285421437855 79.19881850522331 l 0.6353117965487287 -4.584080568441603 a25.627895389569417,25.627895389569417 0 0,0 0.43644430274473633,0.06432054506552294 l -0.7141250797221208 4.572465539215112" fill="#ff3705" stroke="none" /><path d="M 103.2404852339499 79.25152402106235 l 1.4560785252726616 -9.323113090764302 a30.43613280825047,30.43613280825047 0 0,0 0.516937126227682,0.08529905511578267 l -1.6163448576392188 9.296667772708894" fill="#ff790b" stroke="none" /><path d="M 103.59715602781102 79.31037775812273 l 2.3287478303236067 -13.394168207739984 a34.595102369400145,34.595102369400145 0 0,0 0.5858184375477755,0.10705457500463778 l -2.558961388974283 13.352098151384608" fill="#ffb010" stroke="none" /><path d="M 103.95276090670814 79.375362276772 l 3.138446234591205 -16.37572272393765 a37.67375601053067,37.67375601053067 0 0,0 0.6358497434129453,0.12754547676482025 l -3.4198623874712757 16.31927329109562" fill="#ffd714" stroke="none" /><path d="M 104.307194497241 79.44645832069477 l 1.031942362564327 -4.924335405144304 a26.031300450381845,26.031300450381845 0 0,0 0.4377687216094235,0.09567928675144592 l -1.1165538083272784 4.905842620296988" fill="#ff3c05" stroke="none" /><path d="M 104.66035177308747 79.52364482259891 l 2.5642226645215995 -11.266517333712125 a32.554637627553795,32.554637627553795 0 0,0 0.5453309712805702,0.12906222196507366 l -2.757777322764693 11.220709199606182" fill="#ff950d" stroke="none" /><path d="M 105.01212808612495 79.60689891045804 l 1.3471055250123565 -5.4810369323775125 a26.644152651160766,26.644152651160766 0 0,0 0.4444385639152829,0.11329728577942727 l -1.4412529776126644 5.457036650429218" fill="#ff4506" stroke="none" /><path d="M 106.0581310904928 79.89281104454417 l 3.389698400571305 -11.250549917821187 a32.75010334849111,32.75010334849111 0 0,0 0.5383721295778484,0.16727484132107942 l -3.582855902859872 11.190534941617587" fill="#ff980e" stroke="none" /><path d="M 106.40334571778207 80.00007090966166 l 5.604254538327515 -17.50408275778369 a39.37935205935467,39.37935205935467 0 0,0 0.6437908576638044,0.21224772384203486 l -5.904728218233737 17.405021309682418" fill="#ffec16" stroke="none" /><path d="M 106.74666289553966 80.11325718540242 l 4.177702298462558 -12.314368222014535 a34.00372489719545,34.00372489719545 0 0,0 0.5526706302997388,0.19281593093928576 l -4.38905493282557 12.24063143790304" fill="#ffa80f" stroke="none" /><path d="M 107.76421540070413 80.48803036053334 l 5.822190200066754 -14.631536163795795 a36.74737277256805,36.74737277256805 0 0,0 0.585711353201287,0.23892636730705274 l -6.073185422856429 14.529148910305164" fill="#ffcb12" stroke="none" /><path d="M 108.09893153111575 80.62456947434976 l 8.240589263929742 -19.7143245575375 a42.367309240442985,42.367309240442985 0 0,0 0.6704449999676031,0.2870495598893639 l -8.57871802168766 19.569555469685344" fill="#eeff19" stroke="none" /><path d="M 108.43124777332544 80.76684994638697 l 10.129622944879118 -23.107440716160966 a46.2302016927395,46.2302016927395 0 0,0 0.7260736754834672,0.3257680936497947 l -10.525878738829364 22.92965229199464" fill="#c1ff1e" stroke="none" /><path d="M 108.76106565485865 80.91482961587045 l 6.710113547487485 -14.61736110602413 a37.08393202932921,37.08393202932921 0 0,0 0.5778414557467254,0.27130431148109263 l -6.960733214533809 14.499691811903036" fill="#ffcf13" stroke="none" /><path d="M 109.41281617654863 81.2277094730956 l 2.1010644336900848 -4.190222269849762 a25.68747633863493,25.68747633863493 0 0,0 0.3935560053460848,0.2015946717364437 l -2.1728809266249254 4.153435072800818" fill="#ff3705" stroke="none" /><path d="M 109.73455568895987 81.39251694778311 l 2.4498945987728464 -4.68294328811368 a26.285067774852592,26.285067774852592 0 0,0 0.39910114582622913,0.21318601035240942 l -2.5301407911273865 4.640078551259516" fill="#ff4006" stroke="none" /><line stroke="#e1ed5e" stroke-width="0.3" x1="143.23703022742887" x2="145.7803849466894" y1="26.81831364943548" y2="22.513508569990506" /><path d="M 143.74570117128098 25.957352633546492 a86.0,86.0 0 0,1 28.547481713284135,27.462654790039103" fill="none" id="id50" stroke="none" /><text fill="#e1ed5e" style="font-size:6.75px; font-family:Arial;" text-anchor="middle"><textPath startOffset="19.985693538727396" xlink:href="#id50">February</textPath></text><path d="M 110.99172775467656 82.1063720568725 l 7.45885860293521 -12.142407790670921 a35.250355736385195,35.250355736385195 0 0,0 0.5142873271282357,0.3220466770668911 l -7.666765082435709 12.012216772281086" fill="#ffb811" stroke="none" /><path d="M 111.2981086023043 82.29822771554956 l 8.863856731257567 -13.88780891933656 a37.475411762146166,37.475411762146166 0 0,0 0.5407754993448535,0.3517354274230327 l -9.1015992563867 13.733174567754" fill="#ffd413" stroke="none" /><path d="M 111.60114157652 82.49532879139004 l 10.712396347066193 -16.16366584916357 a40.39122299340745,40.39122299340745 0 0,0 0.5762390855239724,0.3890792028216371 l -10.989040126996708 15.976874734043266" fill="#fff817" stroke="none" /><path d="M 112.77801427241765 83.33499621200491 l 6.295509470800891 -8.210562841890267 a31.346341463414635,31.346341463414635 0 0,0 0.42536603961567965,0.33200494096435823 l -6.435908065576 8.100979511702684" fill="#ff850c" stroke="none" /><path d="M 113.06298171725822 83.55741782278167 l 3.2288396140366875 -4.064191609540065 a26.190670350949716,26.190670350949716 0 0,0 0.35057659166522437,0.28347522282552423 l -3.298319604266403 4.008010289450411" fill="#ff3f05" stroke="none" /><path d="M 113.34407831869373 83.78471172551755 l 6.790669963746641 -8.251800417325502 a31.686693065860183,31.686693065860183 0 0,0 0.4181775315187118,0.35021165650492564 l -6.93170503222447 8.133687603426756" fill="#ff8a0c" stroke="none" /><path d="M 113.6212207817346 84.01681056812373 l 2.887867140912002 -3.3886336846681298 a25.452259524379365,25.452259524379365 0 0,0 0.3310080911695221,0.2870469548543153 l -2.9457690307282887 3.338421736394143" fill="#ff3405" stroke="none" /><path d="M 114.16331599549186 84.49514656593476 l 6.14167925966258 -6.723413979495813 a30.106290115532737,30.106290115532737 0 0,0 0.37961467956086664,0.35281047274947563 l -6.256501823018294 6.6166989206716975" fill="#ff740a" stroke="none" /><path d="M 114.68862486808459 84.99185889309783 l 11.687461500257044 -11.94169453932127 a37.709303539957794,37.709303539957794 0 0,0 0.4599892175028972,0.45801387761884776 l -11.891286517927263 11.738744811052303" fill="#ffd714" stroke="none" /><path d="M 115.4437574822437 85.77008943001954 l 4.009711669363462 -3.6945567509753263 a26.452296512260396,26.452296512260396 0 0,0 0.3056579985242974,0.3375151962276001 l -4.072713308503795 3.624988767478177" fill="#ff4206" stroke="none" /><path d="M 115.68641384162765 86.03803664274999 l 4.0298803645486085 -3.5868645664961507 a26.394954417876026,26.394954417876026 0 0,0 0.299153043426015,0.34198364246839735 l -4.091025271552472 3.5169653678248056" fill="#ff4106" stroke="none" /><path d="M 116.38621287248628 86.86637796730983 l 16.300290518702223 -13.064754886416628 a41.889884902417265,41.889884902417265 0 0,0 0.4461191344197207,0.5665259966056327 l -16.52276373371591 12.782236495857957" fill="#f3ff19" stroke="none" /><path d="M 116.60985879189232 87.15038557335679 l 17.321472397930382 -13.400128466100647 a42.89969974543635,42.89969974543635 0 0,0 0.4468188805470668,0.5879612712794824 l -17.54956721870156 13.09998241894013" fill="#e7ff1a" stroke="none" /><path d="M 117.04232023915458 87.72973835380427 l 8.325377932804296 -5.994170048763294 a31.258751985378908,31.258751985378908 0 0,0 0.3106336695251856,0.43936929613260955 l -8.427324222133363 5.849974252298892" fill="#ff840c" stroke="none" /><path d="M 117.2510076193507 88.02491185347247 l 4.172693736104168 -2.896548213349605 a26.079504362394204,26.079504362394204 0 0,0 0.2528166207461428,0.3709771950124979 l -4.221934822519043 2.824292995066701" fill="#ff3d05" stroke="none" /><line stroke="#e1ed5e" stroke-width="0.3" x1="172.23445277983987" x2="176.4835382374775" y1="55.19839476539836" y2="52.563006222186495" /><path d="M 173.08426987136738 54.67131705675599 a86.0,86.0 0 0,1 12.851231095245387,41.99856678651699" fill="none" id="id51" stroke="none" /><text fill="#e1ed5e" style="font-size:6.75px; font-family:Arial;" text-anchor="middle"><textPath startOffset="22.20632615414155" xlink:href="#id51">March</textPath></text><path d="M 117.84615892207809 88.93136811851018 l 21.596838239495316 -13.3948965332435 a46.41351363112204,46.41351363112204 0 0,0 0.4152555217768966,0.6825708937134715 l -21.824209559558437 13.021157866322946" fill="#bfff1e" stroke="none" /><path d="M 118.03404312379186 89.2402003453031 l 13.196975392174696 -7.873820101962157 a36.36740714953983,36.36740714953983 0 0,0 0.3161199209403403,0.5403514166649793 l -13.330554987585364 7.645489272943283" fill="#ffc612" stroke="none" /><path d="M 118.21658344932153 89.55222093294921 l 7.637758709415825 -4.380492960461889 a29.80477578816823,29.80477578816823 0 0,0 0.25141372780315735,0.4472369682641909 l -7.712030078511415 4.248372482262904" fill="#ff700a" stroke="none" /><path d="M 118.56541770881063 90.18545643968196 l 4.519869921297112 -2.389413528169073 a26.112584582580883,26.112584582580883 0 0,0 0.20665072540159635,0.39918342587106814 l -4.560330079858825 2.31125738003766" fill="#ff3d05" stroke="none" /><path d="M 119.04729006885535 91.15688171328212 l 13.579311682256037 -6.304490508849406 a35.97144970736059,35.97144970736059 0 0,0 0.25590720198805533,0.5638575977956061 l -13.68582120120744 6.069810902211737" fill="#ffc112" stroke="none" /><path d="M 119.196687751892 91.48605970444005 l 16.194493023930807 -7.1824342045163325 a38.71578294641108,38.71578294641108 0 0,0 0.264943699291123,0.6115265867297129 l -16.31572743306461 6.902608473200017" fill="#ffe415" stroke="none" /><path d="M 119.34039704204932 91.81776055985345 l 1.5502278606407547 -0.6558466982332822 a22.683253192924436,22.683253192924436 0 0,0 0.14903795292823763,0.36090722460011243 l -1.5612875004551898 0.6290649031798666" fill="#ff0d01" stroke="none" /><path d="M 119.47837535516314 92.15188598940014 l 4.058669417578516 -1.6352955387548707 a25.37572724701377,25.37572724701377 0 0,0 0.15975403897609053,0.40655660398814003 l -4.086217006436307 1.5651899298709464" fill="#ff3304" stroke="none" /><path d="M 119.61058180528143 92.48833698450437 l 7.267363058686179 -2.783700292533406 a28.782258871652054,28.782258871652054 0 0,0 0.1732354978064385,0.4641850068505124 l -7.314203144994242 2.6581921486535602" fill="#ff6209" stroke="none" /><path d="M 119.7369772167798 92.82701384747503 l 4.47280158388228 -1.625544959179616 a25.759028306607778,25.759028306607778 0 0,0 0.14786530969973696,0.41803514227790256 l -4.5001199743918265 1.548312190475099" fill="#ff3805" stroke="none" /><path d="M 119.97218684219823 93.5106431181261 l 17.43004697915034 -5.663365569790816 a39.32703596527491,39.32703596527491 0 0,0 0.2036475952797227,0.6456185287605121 l -17.52495005819827 5.3624968746038855" fill="#ffeb16" stroke="none" /><path d="M 120.08093135843002 93.85539295169968 l 17.963347972191624 -5.496643188049296 a39.7854985748787,39.7854985748787 0 0,0 0.19474831590325253,0.6565945066519415 l -18.055302185206582 5.186619294650824" fill="#fff116" stroke="none" /><path d="M 120.18372546131832 94.20196356495316 l 2.385896312772622 -0.6853796033943894 a23.482387241356804,23.482387241356804 0 0,0 0.1082574163641421,0.38945952594779026 l -2.397340499703127 0.6442087740276472" fill="#ff1802" stroke="none" /><path d="M 120.28053869075195 94.5502522615342 l 4.456414622253218 -1.1975192513187582 a25.61450795239442,25.61450795239442 0 0,0 0.11075672759117693,0.4267908519214383 l -4.476367681714698 1.1206319738484696" fill="#ff3605" stroke="none" /><path d="M 120.37134235888165 94.90015583598534 l 9.401418156882453 -2.353589011277628 a30.69154500554818,30.69154500554818 0 0,0 0.12388744408520724,0.5135934370542679 l -9.44053840122848 2.191410342563954" fill="#ff7c0b" stroke="none" /><path d="M 120.45610955862082 95.25157060432595 l 4.739385188202475 -1.1001425212644453 a25.865396749417986,25.865396749417986 0 0,0 0.09694056698087843,0.434565553640289 l -4.757620142185392 1.0183987980741926" fill="#ff3a05" stroke="none" /><path d="M 120.98425023603335 99.18683210126433 l 4.745277657213487 -0.18388588670218872 a25.748839233262984,25.748839233262984 0 0,0 0.0133505347135353,0.4430392516253483 l -4.747739886382667 0.10217648765184136" fill="#ff3805" stroke="none" /><line stroke="#e1ed5e" stroke-width="0.3" x1="184.98032266829074" x2="189.97916517819016" y1="98.17113171792111" y2="98.06355123074" /><path d="M 185.9800911702706 98.14961562048488 a86.0,86.0 0 0,1 -9.607161424134198,41.387399972396054" fill="none" id="id52" stroke="none" /><text fill="#e1ed5e" style="font-size:6.75px; font-family:Arial;" text-anchor="middle"><textPath startOffset="21.466115282336823" xlink:href="#id52">April</textPath></text><path d="M 120.99513854157772 99.54816195383933 l 4.766834266205517 -0.10258741931846126 a25.76793803442049,25.76793803442049 0 0,0 0.0057266087332279595,0.44353215733275025 l -4.767893882056461 0.020519003925248292" fill="#ff3905" stroke="none" /><path d="M 120.99980553446 99.90962569577887 l 2.564561443057604 -0.011036790586862364 a23.564585191793043,23.564585191793043 0 0,0 -0.0017456899549814092,0.4056368665188091 l -2.5643714558131196 -0.033109554135631464" fill="#ff1902" stroke="none" /><path d="M 120.99824983174949 100.27111621757518 l 4.634454134337453 0.05983716192991713 a25.634840408172145,25.634840408172145 0 0,0 -0.009494580084504801,0.4411758282908811 l -4.632737491567941 -0.13960280601091304" fill="#ff3705" stroke="none" /><path d="M 120.9764740272857 100.99374915477107 l 10.152739394847401 0.48098055846357196 a31.164126106916733,31.164126106916733 0 0,0 -0.029997176667714398,0.5356197403655182 l -10.142955867292157 -0.6556720151645135" fill="#ff830c" stroke="none" /><path d="M 120.92983693683757 101.71520430193887 l 4.649045892645253 0.38099023604630283 a25.664630882704902,25.664630882704902 0 0,0 -0.039872330664194655,0.43998784637166155 l -4.641798965703983 -0.46095947096653495" fill="#ff3705" stroke="none" /><path d="M 120.89721153311464 102.0752229133903 l 4.617064771334815 0.45850321182316506 a25.639775026653034,25.639775026653034 0 0,0 -0.047394145550736996,0.43881092622026524 l -4.608488324283026 -0.5379104599282217" fill="#ff3705" stroke="none" /><path d="M 120.81339534386255 102.79330883721812 l 4.68997650656528 0.6294289137210486 a25.732024977698483,25.732024977698483 0 0,0 -0.06269540367849812,0.43849150730393377 l -4.678447051870181 -0.7100658930053917" fill="#ff3805" stroke="none" /><path d="M 120.70491114924044 103.5080841355445 l 4.340278430810295 0.7353840737215691 a25.402136594068885,25.402136594068885 0 0,0 -0.07675504471807403,0.4304830526258412 l -4.326976943753032 -0.8099858770806287" fill="#ff3304" stroke="none" /><path d="M 120.64145759157962 103.86396538481128 l 6.744750424405518 1.2625795466946825 a27.86190683405496,27.86190683405496 0 0,0 -0.0923026059938574,0.4706489993853719 l -6.722017885435996 -1.3784922731479994" fill="#ff5607" stroke="none" /><path d="M 120.5718875245553 104.21870165774334 l 10.18022195828513 2.087670331677112 a31.39207806618655,31.39207806618655 0 0,0 -0.11311008396739672,0.528412656009797 l -10.142777835593291 -2.2625968071030784" fill="#ff860c" stroke="none" /><path d="M 120.49622156327973 104.57218783832717 l 7.938590060722797 1.7708983490952088 a29.133713365679597,29.133713365679597 0 0,0 -0.11339872585010187,0.4885187430418484 l -7.906930768942142 -1.9072857494856221" fill="#ff6709" stroke="none" /><path d="M 120.41448212921028 104.9243191809786 l 3.974208107985228 0.9586463713105904 a25.088194338678445,25.088194338678445 0 0,0 -0.10487902893822264,0.41893958639820905 l -3.957117764751944 -1.0269137971061955" fill="#ff2f04" stroke="none" /><path d="M 120.32669344350535 105.2749913415812 l 4.669244171547538 1.2117181107245685 a25.823909401449054,25.823909401449054 0 0,0 -0.11536145796788572,0.4293029006142412 l -4.6476946372378745 -1.291911944514358" fill="#ff3905" stroke="none" /><path d="M 120.23288151984713 105.62410040840565 l 9.44189398433422 2.6245475594431413 a30.799878157568372,30.799878157568372 0 0,0 -0.146383553482682,0.509580353391278 l -9.395317793965438 -2.7866853883390017" fill="#ff7e0b" stroke="none" /><path d="M 120.02730092923936 106.31721596034902 l 10.314881358907948 3.2536253077650596 a31.81586127368856,31.81586127368856 0 0,0 -0.16924182118395764,0.5208727668594282 l -10.257347286707743 -3.430696974602283" fill="#ff8b0c" stroke="none" /><path d="M 119.79798401119884 107.00284435728193 l 9.000520800652648 3.183619416289868 a30.54697896042297,30.54697896042297 0 0,0 -0.1796100381521913,0.4942096855529079 l -8.94438650149523 -3.3380768988489073" fill="#ff7a0b" stroke="none" /><path d="M 119.54520255179757 107.68017299344265 l 4.359301828908788 1.7129621495568106 a25.683775374774264,25.683775374774264 0 0,0 -0.1652290909110649,0.41008505330214234 l -4.329170123740331 -1.7877465707017663" fill="#ff3705" stroke="none" /><path d="M 119.41010516605496 108.01547362559984 l 9.17829676453745 3.7902110789557746 a30.930097256369532,30.930097256369532 0 0,0 -0.2074511357231479,0.4903532047746915 l -9.111694647621993 -3.9476388093966293" fill="#ff7f0b" stroke="none" /><path d="M 119.26925614724726 108.34839909993367 l 3.7868547077826027 1.6406535982733377 a25.12698592284763,25.12698592284763 0 0,0 -0.175361133372625,0.3953930617680866 l -3.758052489678705 -1.705594996534112" fill="#ff3004" stroke="none" /><path d="M 119.12269723197855 108.67885076344098 l 8.88532854543992 4.032613155693232 a30.757614064097822,30.757614064097822 0 0,0 -0.22295664695237538,0.48022878238095656 l -8.814597281647714 -4.184962005353019" fill="#ff7d0b" stroke="none" /><path d="M 118.97047184881838 109.00673069616215 l 7.539566612424134 3.5796076441878015 a29.346176105828853,29.346176105828853 0 0,0 -0.2205808728150557,0.45446193189540424 l -7.476832482994364 -3.708858532048481" fill="#ff6a09" stroke="none" /><line stroke="#e1ed5e" stroke-width="0.3" x1="174.80103733775053" x2="179.2010983576182" y1="140.37084112569926" y2="142.7455964860345" /><path d="M 175.68104954172406 140.8457921977663 a86.0,86.0 0 0,1 -30.038265399797805,32.042727171017184" fill="none" id="id53" stroke="none" /><text fill="#e1ed5e" style="font-size:6.75px; font-family:Arial;" text-anchor="middle"><textPath startOffset="22.206326154141568" xlink:href="#id53">May</textPath></text><path d="M 118.48025628344425 109.97397251340804 l 55.44076885033275 29.921917540224147 a84.0,84.0 0 0,0 -0.6976943621939617,1.2665179264087798 l -54.91749807868728 -30.871805985030733" fill="#4dd2ff" stroke="none" /><path d="M 118.12598468904814 110.60418214915192 l 8.030866965839797 4.698270333022354 a30.304223145710495,30.304223145710495 0 0,0 -0.2672819844616196,0.44797997998869643 l -7.948804105679951 -4.835812406897155" fill="#ff770b" stroke="none" /><path d="M 117.75023020441432 111.22182372390056 l 7.875392600365454 4.978880076486754 a30.31724505559061,30.31724505559061 0 0,0 -0.28266519703289567,0.43870266296581506 l -7.788522539955508 -5.113704339374022" fill="#ff770b" stroke="none" /><path d="M 117.55443506779139 111.5257021239791 l 3.970019460524008 2.6065926674196804 a25.749250451469724,25.749250451469724 0 0,0 -0.2464533037498573,0.3684142498826721 l -3.9245630513634295 -2.674543831508159" fill="#ff3805" stroke="none" /><path d="M 117.35343817320211 111.8261652097733 l 6.541492186466316 4.457950438608498 a28.916087552490154,28.916087552490154 0 0,0 -0.28384457411859837,0.40889927914652907 l -6.463786705185582 -4.569890979942047" fill="#ff6409" stroke="none" /><path d="M 117.14729908036423 112.12312394758627 l 3.8791375772521755 2.7425465339098 a25.750712560649248,25.750712560649248 0 0,0 -0.2590033739779289,0.3597330333800923 l -3.8313544108986437 -2.8089131727410233" fill="#ff3805" stroke="none" /><path d="M 116.71984013943494 112.70617746262583 l 7.307131458426922 5.553026122213043 a30.17770501077,30.17770501077 0 0,0 -0.31786202954221243,0.4108795214160907 l -7.2104626116666415 -5.677983637742386" fill="#ff750a" stroke="none" /><path d="M 116.498646956653 112.99209946851258 l 6.8242461616184915 5.373851877811734 a29.686116490067665,29.686116490067665 0 0,0 -0.3195951999551109,0.3987441519524674 l -6.730733049608527 -5.490523863342451" fill="#ff6f0a" stroke="none" /><path d="M 116.0416608686014 113.55231037782055 l 8.365355650100975 7.067216862371399 a31.951014990970606,31.951014990970606 0 0,0 -0.3585474290208838,0.417071662574208 l -8.242465711509311 -7.210165624107135" fill="#ff8d0d" stroke="none" /><path d="M 115.80600337817218 113.82643327865902 l 2.161138496314474 1.8904739237559889 a23.87130828310959,23.87130828310959 0 0,0 -0.27320274729341476,0.3069461827865904 l -2.1282768993727212 -1.9273942762834457" fill="#ff1e03" stroke="none" /><path d="M 115.56566222782051 114.09645910891815 l 20.829119061085077 18.863111689176453 a49.101053066730486,49.101053066730486 0 0,0 -0.5727371104708716,0.6215930164630177 l -20.50133554261848 -19.218855960440806" fill="#a0ff22" stroke="none" /><path d="M 115.07121518719521 114.62390073753431 l 6.232579204542583 6.047595929987754 a29.68438023541698,29.68438023541698 0 0,0 -0.35898222143811,0.3636470950406426 l -6.127556358048937 -6.153983519009061" fill="#ff6f0a" stroke="none" /><path d="M 114.55890576462653 115.13401014063108 l 3.3965289497880375 3.5306982818675996 a25.899208024194426,25.899208024194426 0 0,0 -0.3239425650292347,0.30630791471057117 l -3.335250550367995 -3.5886408333240922" fill="#ff3a05" stroke="none" /><path d="M 114.29624159901734 115.38237550388516 l 3.2724492366706968 3.521068291076658 a25.806958073148976,25.806958073148976 0 0,0 -0.3279947017434864,0.29961538336335714 l -3.2113549854603463 -3.576876441026598" fill="#ff3905" stroke="none" /><path d="M 114.0293411484842 115.62618273729858 l 5.7427779109514 6.396429889791655 a29.59615108461522,29.59615108461522 0 0,0 -0.38201252742937825,0.3370816396214731 l -5.631823030615434 -6.494334671185417" fill="#ff6d0a" stroke="none" /><path d="M 113.48314897796784 116.09983520530334 l 6.2958129765707405 7.517646773155828 a30.80572659428646,30.80572659428646 0 0,0 -0.40946659544526526,0.33696313170756337 l -6.165476252580785 -7.6249050237205696" fill="#ff7e0b" stroke="none" /><path d="M 112.92097659922987 116.55440617244103 l 5.697784931243699 7.300024522964007 a30.260405561236702,30.260405561236702 0 0,0 -0.41337338188831074,0.31695708208668066 l -5.571282820861894 -7.397020946878059" fill="#ff760a" stroke="none" /><path d="M 112.63410532772338 116.77436683061366 l 4.935165609772391 6.552444843600867 a29.203072169883164,29.203072169883164 0 0,0 -0.4041357944056856,0.29896999917901934 l -4.821644844948142 -6.636424791519655" fill="#ff6809" stroke="none" /><path d="M 112.34349029814194 116.9893568818739 l 2.703423381544274 3.7209430657365807 a25.599338569656883,25.599338569656883 0 0,0 -0.3587231317235259,0.25593942979485995 l -2.6389729219718636 -3.76692675737566" fill="#ff3605" stroke="none" /><path d="M 112.04921762599082 117.19931262002967 l 5.401424042891567 7.710108954015783 a30.413881334174626,30.413881334174626 0 0,0 -0.43136024606097667,0.29669351059346244 l -5.267906912207707 -7.801943253974339" fill="#ff790b" stroke="none" /><line stroke="#e1ed5e" stroke-width="0.3" x1="143.8653032363475" x2="146.44561519142675" y1="172.8068346515853" y2="177.08958963109032" /><path d="M 144.38136562736335 173.6633856474863 a86.0,86.0 0 0,1 -40.68145358897372,12.25698825130547" fill="none" id="id54" stroke="none" /><text fill="#e1ed5e" style="font-size:6.75px; font-family:Arial;" text-anchor="middle"><textPath startOffset="21.466115282336833" xlink:href="#id54">June</textPath></text><path d="M 108.2653958097858 119.30500536409082 l 4.760070238436966 11.117819836005664 a33.09397315114989,33.09397315114989 0 0,0 -0.5256087887872967,0.21970451634122495 l -4.567989990152208 -11.198109395366863" fill="#ff9c0e" stroke="none" /><path d="M 107.93186726928326 119.44442032107085 l 1.745576855782498 4.279160118829774 a25.62149866190901,25.62149866190901 0 0,0 -0.4097962571788934,0.16306638796237247 l -1.6716595225617383 -4.308573351198215" fill="#ff3705" stroke="none" /><path d="M 107.59598834532513 119.57807347666477 l 3.747752000886954 9.659541419759988 a31.361099627945432,31.361099627945432 0 0,0 -0.5049581759005818,0.19093197457205288 l -3.580923604226097 -9.722621644438671" fill="#ff850c" stroke="none" /><path d="M 106.91757812671514 119.82793768551818 l 3.3672791418797337 9.6516728502264 a31.222199255890864,31.222199255890864 0 0,0 -0.5089668480741063,0.1726691887643243 l -3.2006425608684004 -9.708205025888848" fill="#ff830c" stroke="none" /><path d="M 106.2309692047433 120.05430185196036 l 7.3108312400894 23.52982524225691 a45.63941820238898,45.63941820238898 0 0,0 -0.7522354662778188,0.226642375307884 l -6.9047207993713355 -23.652182986670518" fill="#c7ff1d" stroke="none" /><path d="M 105.53697534728816 120.25689768951611 l 1.2832347861065678 4.694685120192938 a25.866904549509364,25.866904549509364 0 0,0 -0.43051096928268,0.1137018598408664 l -1.2022333740123903 -4.716078329337388" fill="#ff3a05" stroke="none" /><path d="M 105.18746579009965 120.34920634021253 l 2.5479541669006482 9.995024003169291 a31.314677661495615,31.314677661495615 0 0,0 -0.5234721301139609,0.12865671356836175 l -2.375528752043476 -10.037401975051683" fill="#ff850c" stroke="none" /><path d="M 104.83641907484287 120.43548508189849 l 1.1456676102661865 4.840828099490038 a25.974552337851655,25.974552337851655 0 0,0 -0.4359764917920589,0.09922683011427874 l -1.0621709690812655 -4.859831663182001" fill="#ff3b05" stroke="none" /><path d="M 104.13013068566511 120.58985236759428 l 12.021240453315842 59.929233490892784 a82.12301734078892,82.12301734078892 0 0,0 -1.3883967021461703,0.2660895323783149 l -10.987876136597968 -60.12728022161957" fill="#4be3ff" stroke="none" /><path d="M 103.41894727170886 120.7198165907248 l 0.7911090346140546 4.794351242590439 a25.859182785405018,25.859182785405018 0 0,0 -0.439808223206604,0.06868899935192743 l -0.7084649477989334 -4.807258549289473" fill="#ff3a05" stroke="none" /><path d="M 103.06178313531738 120.77559828337769 l 0.5868289993475073 3.9819030325335425 a25.02491242575227,25.02491242575227 0 0,0 -0.4267002689388241,0.05913676917321549 l -0.5182001392218527 -3.9914143671993605" fill="#ff2e04" stroke="none" /><path d="M 102.70371172650421 120.8252237178851 l 0.10512833111628686 0.8097464656172053 a21.816542285851046,21.816542285851046 0 0,0 -0.37282660715389976,0.04514411000346101 l -0.0911743009110068 -0.8114361043460172" fill="#ff0000" stroke="none" /><path d="M 102.34483914955558 120.86867818915974 l 0.5563974082621849 4.951844334613196 a25.983005156545765,25.983005156545765 0 0,0 -0.44488769983439985,0.04611442912389269 l -0.4710771118221823 -4.960688132192847" fill="#ff3c05" stroke="none" /><path d="M 101.62511606390274 120.93702456842531 l 0.35545281362897635 4.579441713223514 a25.593215987467634,25.593215987467634 0 0,0 -0.43951746459566043,0.030311697655266555 l -0.2765725882543856 -4.584881755395066" fill="#ff3605" stroke="none" /><path d="M 100.90346689309514 120.98055641714683 l 0.19844387587681048 4.608318207662601 a25.6125889340963,25.6125889340963 0 0,0 -0.44063367251485736,0.015176314616026667 l -0.11908985168730085 -4.611051320704721" fill="#ff3605" stroke="none" /><line stroke="#e1ed5e" stroke-width="0.3" x1="102.19456741930631" x2="102.32365962044197" y1="184.97166512339345" y2="189.96999836594603" /><path d="M 102.22038585953345 185.97133177190398 a86.0,86.0 0 0,1 -42.740103519485714,-10.115201625700543" fill="none" id="id55" stroke="none" /><text fill="#e1ed5e" style="font-size:6.75px; font-family:Arial;" text-anchor="middle"><textPath startOffset="22.20632615414155" xlink:href="#id55">July</textPath></text><path d="M 100.54218724476979 120.99299961872073 l 0.12642502778873158 4.895062703462288 a25.896695024042124,25.896695024042124 0 0,0 -0.4457194990592756,0.007673465389608338 l -0.04214583883678799 -4.896513646131055" fill="#ff3a05" stroke="none" /><line stroke="#e1ed5e" stroke-width="0.3" x1="58.666819895761336" x2="56.23545636021788" y1="174.27360380694188" y2="178.64263932499728" /><path d="M 58.180547188652646 175.14741091055294 a86.0,86.0 0 0,1 -31.652253787137756,-30.449443065178592" fill="none" id="id56" stroke="none" /><text fill="#e1ed5e" style="font-size:6.75px; font-family:Arial;" text-anchor="middle"><textPath startOffset="22.20632615414155" xlink:href="#id56">August</textPath></text><line stroke="#e1ed5e" stroke-width="0.3" x1="26.63291911575756" x2="22.317208475507996" y1="142.92168965132927" y2="145.44649492493687" /><path d="M 25.769776987707644 143.4266507060508 a86.0,86.0 0 0,1 -11.730757126820373,-40.83630448921669" fill="none" id="id57" stroke="none" /><text fill="#e1ed5e" style="font-size:6.75px; font-family:Arial;" text-anchor="middle"><textPath startOffset="21.46611528233685" xlink:href="#id57">September</textPath></text><line stroke="#e1ed5e" stroke-width="0.3" x1="15.007084014347285" x2="10.007500721073583" y1="101.09737516637583" y2="101.16192664675087" /><path d="M 14.007167355692545 101.11028546245083 a86.0,86.0 0 0,1 10.666146001902534,-42.60595125391555" fill="none" id="id58" stroke="none" /><text fill="#e1ed5e" style="font-size:6.75px; font-family:Arial;" text-anchor="middle"><textPath startOffset="22.20632615414155" xlink:href="#id58">October</textPath></text><line stroke="#e1ed5e" stroke-width="0.3" x1="26.266209847984243" x2="21.928928074336255" y1="57.711370442889674" y2="55.22380399835377" /><path d="M 25.398753493254645 57.213857153982495 a86.0,86.0 0 0,1 29.58750427330803,-30.492523968695096" fill="none" id="id59" stroke="none" /><text fill="#e1ed5e" style="font-size:6.75px; font-family:Arial;" text-anchor="middle"><textPath startOffset="21.46611528233685" xlink:href="#id59">November</textPath></text><line stroke="#e1ed5e" stroke-width="0.3" x1="56.762969772571076" x2="54.21961505331055" y1="26.818313649435495" y2="22.513508569990535" /><path d="M 56.25429882871897 25.957352633546506 a86.0,86.0 0 0,1 42.265352541879196,-11.944610805530505" fill="none" id="id60" stroke="none" /><text fill="#e1ed5e" style="font-size:6.75px; font-family:Arial;" text-anchor="middle"><textPath startOffset="22.20632615414155" xlink:href="#id60">December</textPath></text></svg>