<?xml version="1.0" encoding="utf-8" ?>
<svg baseProfile="full" height="200mm" version="1.1" viewBox="0,0,200,200" width="200mm" xmlns="http://www.w3.org/2000/svg" xmlns:ev="http://www.w3.org/2001/xml-events" xmlns:xlink="http://www.w3.org/1999/xlink"><defs /><rect fill="#1a1a1a" height="200" width="200" x="0" y="0" /><text alignment-baseline="middle" fill="#e1ed5e" style="dominant-baseline: central; font-size:9.0px; font-family:Arial;" text-anchor="middle" x="100.0" y="100.0">2026</text><line stroke="#e1ed5e" stroke-width="0.3" x1="100.0" x2="100.0" y1="15.0" y2="10.0" /><path d="M 100.0 14.0 a86.0,86.0 0 0,1 42.46469731375804,11.215312516191453" fill="none" id="id61" stroke="none" /><text fill="#e1ed5e" style="font-size:6.75px; font-family:Arial;" text-anchor="middle"><textPath startOffset="22.20632615414155" xlink:href="#id61">January</textPath></text><path d="M 100.72285384407766 79.0124445844662 l 0.24976637968585597 -7.2517920151379585 a28.25609196987194,28.25609196987194 0 0,0 0.48594984075092584,0.020926022365378695 l -0.37455705282611335 7.246418266248385" fill="#ff5d08" stroke="none" /><path d="M 101.44485096284872 79.0497635885617 l 0.48188677082686887 -6.987323974552075 a28.003921129285235,28.003921129285235 0 0,0 0.480613710062744,0.03730487387079395 l -0.6020906702519541 6.977993838492817" fill="#ff5a08" stroke="none" /><path d="M 101.80526077348638 79.07773832637324 l 0.28202940721070446 -3.2686098008569675 a24.280754580396078,24.280754580396078 0 0,0 0.4160968318463338,0.03951340793074421 l -0.33825136614728246 3.263270848411045" fill="#ff2603" stroke="none" /><path d="M 102.52436894288641 79.15227682838746 l 0.9750923803568059 -8.052886274691492 a29.111706509936397,29.111706509936397 0 0,0 0.496958000562593,0.06451941126314084 l -1.113565109427245 8.034908540264215" fill="#ff6909" stroke="none" /><path d="M 103.2404852339499 79.25152402106235 l 2.79760570030393 -17.91276629288676 a39.12991433840638,39.12991433840638 0 0,0 0.6645951243236768,0.10966388998417045 l -3.1055300307664817 17.861956139962967" fill="#ffea16" stroke="none" /><path d="M 103.59715602781102 79.31037775812273 l 0.6588203757859593 -3.789311499106092 a24.84615729330047,24.84615729330047 0 0,0 0.42073403596868525,0.0768864558089985 l -0.7239495328575455 3.777409561946355" fill="#ff2e04" stroke="none" /><path d="M 103.95276090670814 79.375362276772 l 1.2836679441564522 -6.697897224245807 a27.819796963063823,27.819796963063823 0 0,0 0.46953669169115586,0.09418464318138724 l -1.3987710453147335 6.674808624987212" fill="#ff5708" stroke="none" /><path d="M 104.307194497241 79.44645832069477 l 1.1196671581083486 -5.34295017693544 a26.459008255916167,26.459008255916167 0 0,0 0.44496148939326985,0.09725134719650716 l -1.2114713716551464 5.322885331643063" fill="#ff4406" stroke="none" /><path d="M 104.66035177308747 79.52364482259891 l 0.9656058665233193 -4.242617220119128 a25.35111429014633,25.35111429014633 0 0,0 0.42466292935139804,0.10050399506851063 l -1.0384924828372408 4.225367312909749" fill="#ff3505" stroke="none" /><path d="M 105.71112130821622 79.79150937346287 l 3.6100873962398032 -12.774096954119523 a34.27442217204708,34.27442217204708 0 0,0 0.5663599893132095,0.16533601149400998 l -3.82943760327644 12.71006261370681" fill="#ffad10" stroke="none" /><path d="M 106.0581310904928 79.89281104454417 l 5.446073884868053 -18.075745643778696 a39.87835536634551,39.87835536634551 0 0,0 0.6555519802239284,0.20368319131910148 l -5.756411237802699 17.979322317577076" fill="#fff417" stroke="none" /><path d="M 106.40334571778207 80.00007090966166 l 2.3667844714437156 -7.392310783648249 a28.7619538427067,28.7619538427067 0 0,0 0.4702129914319962,0.1550218304039867 l -2.4936802851181294 7.350475228985025" fill="#ff6409" stroke="none" /><path d="M 107.08798089147638 80.2323363322302 l 2.2454211342032067 -6.2622530242439325 a27.65264827039418,27.65264827039418 0 0,0 0.4466793825005762,0.1645157862573398 l -2.3528828424763595 6.222673970180268" fill="#ff5507" stroke="none" /><path d="M 107.4271985657038 80.35727306442388 l 2.0124189029850568 -5.322248306899992 a26.690004998362603,26.690004998362603 0 0,0 0.42833242908053487,0.16618632793969926 l -2.103734497065259 5.286819275069746" fill="#ff4806" stroke="none" /><path d="M 110.36928655335952 81.73862282372117 l 6.1110500890918855 -10.76218600438653 a33.37616987538565,33.37616987538565 0 0,0 0.4971511902291861,0.28798205826968326 l -6.2953980117864 10.655399788726797" fill="#ffa20e" stroke="none" /><line stroke="#e1ed5e" stroke-width="0.3" x1="143.23703022742887" x2="145.7803849466894" y1="26.81831364943548" y2="22.513508569990506" /><path d="M 143.74570117128098 25.957352633546492 a86.0,86.0 0 0,1 28.547481713284135,27.462654790039103" fill="none" id="id62" stroke="none" /><text fill="#e1ed5e" style="font-size:6.75px; font-family:Arial;" text-anchor="middle"><textPath startOffset="19.985693538727396" xlink:href="#id62">February</textPath></text><path d="M 110.68208982089419 81.91981866633111 l 1.8823227167285883 -3.1859623554530505 a24.70047225908754,24.70047225908754 0 0,0 0.364200152083449,0.2194265165669626 l -1.9368849350296748 3.1530892294274735" fill="#ff2c04" stroke="none" /><path d="M 112.19680574252982 82.90503203632743 l 4.120497595583834 -5.775264104213332 a28.09451731329392,28.09451731329392 0 0,0 0.39125586538344664,0.28426402553261276 l -4.219298777321069 5.703480843864045" fill="#ff5b08" stroke="none" /><path d="M 112.77801427241765 83.33499621200491 l 10.051748647812326 -13.109425746483614 a37.519524638480505,37.519524638480505 0 0,0 0.5091353841838375,0.39738824312713167 l -10.275916587155596 12.93445911413326" fill="#ffd714" stroke="none" /><path d="M 113.06298171725822 83.55741782278167 l 7.663230183677284 -9.645829318706292 a33.31937985832227,33.31937985832227 0 0,0 0.44599830667205415,0.36063294689223907 l -7.828131888913829 9.512490274549924" fill="#ffa10e" stroke="none" /><path d="M 113.34407831869373 83.78471172551755 l 6.622153249777158 -8.04702440876029 a31.421492959203018,31.421492959203018 0 0,0 0.41467761672072745,0.347280578513775 l -6.759688403457003 7.931842672852696" fill="#ff880c" stroke="none" /><path d="M 113.6212207817346 84.01681056812373 l 2.058431540876139 -2.4153709698685737 a24.173508678191627,24.173508678191627 0 0,0 0.3143778632609712,0.2726253850890071 l -2.0997032027838745 2.379580591359895" fill="#ff2403" stroke="none" /><path d="M 113.89432698308785 84.25364557470407 l 8.714469964764625 -9.876054656033745 a34.17112152915425,34.17112152915425 0 0,0 0.43769791585069545,0.39296951051216916 l -8.88317886821131 9.724586136752277" fill="#ffac0f" stroke="none" /><line stroke="#e1ed5e" stroke-width="0.3" x1="172.23445277983987" x2="176.4835382374775" y1="55.19839476539836" y2="52.563006222186495" /><path d="M 173.08426987136738 54.67131705675599 a86.0,86.0 0 0,1 12.851231095245387,41.99856678651699" fill="none" id="id63" stroke="none" /><text fill="#e1ed5e" style="font-size:6.75px; font-family:Arial;" text-anchor="middle"><textPath startOffset="22.20632615414155" xlink:href="#id63">March</textPath></text><path d="M 118.3937258080291 89.86733742301442 l 6.602167898874277 -3.6369760153050295 a28.53765318257812,28.53765318257812 0 0,0 0.23331828184576495,0.4323033413543372 l -6.663794279938507 3.5227916906182335" fill="#ff6109" stroke="none" /><path d="M 118.56541770881063 90.18545643968196 l 6.05485600282469 -3.2008785863716036 a27.848861579827297,27.848861579827297 0 0,0 0.22039133770461694,0.42572591529144904 l -6.109056773689423 3.0961799488198096" fill="#ff5808" stroke="none" /><path d="M 118.89224826269711 90.83032412892265 l 7.761096703957443 -3.766981049041988 a29.626979093055724,29.626979093055724 0 0,0 0.21873430236189942,0.46071022497602343 l -7.824789200161098 3.6328284084254245" fill="#ff700a" stroke="none" /><path d="M 119.04729006885535 91.15688171328212 l 7.362091624831553 -3.4180110052764516 a29.11684620555335,29.11684620555335 0 0,0 0.20714235049734442,0.4564107115618409 l -7.419836292292245 3.290778284872548" fill="#ff6909" stroke="none" /><path d="M 119.85752413597 93.16781622104841 l 3.6633690616755703 -1.2604195018529842 a24.874136058877266,24.874136058877266 0 0,0 0.13581598836190786,0.40607251821681306 l -3.684522343809248 1.1971738807138572" fill="#ff2e04" stroke="none" /><path d="M 120.28053869075195 94.5502522615342 l 3.4971074542046052 -0.939736055848169 a24.621168927420328,24.621168927420328 0 0,0 0.106461545345271,0.4102397626128547 l -3.512765331420179 0.8793998676864639" fill="#ff2b04" stroke="none" /><path d="M 120.37134235888165 94.90015583598534 l 5.751299142913825 -1.4398034676739744 a26.928783674313586,26.928783674313586 0 0,0 0.1086989325930345,0.4506272512668036 l -5.775230875767679 1.3405909847477646" fill="#ff4b07" stroke="none" /><path d="M 120.53481517161879 95.60439243477599 l 7.895174374485952 -1.6900122021657076 a29.074027473758598,29.074027473758598 0 0,0 0.10054173074909872,0.4902771858015096 l -7.923095401150048 1.5538593602007862" fill="#ff6809" stroke="none" /><path d="M 120.67395015179393 96.31383870115 l 7.8222781488344495 -1.394710675481216 a28.945643668453435,28.945643668453435 0 0,0 0.0832368351541355,0.49126851284678524 l -7.8451268455088075 1.2598563743185929" fill="#ff6709" stroke="none" /><path d="M 120.73433829027371 96.67025291283417 l 4.003990523866782 -0.6430046426964612 a25.055292231855084,25.055292231855084 0 0,0 0.06471914008258232,0.42641827061622745 l -4.014465557388664 0.5739872596881517" fill="#ff3104" stroke="none" /><path d="M 120.94382443527127 98.46500227214037 l 7.6797512423623635 -0.5628580751326728 a28.700349885382373,28.700349885382373 0 0,0 0.03187024749017181,0.49301862256753 l -7.688302080856951 0.4305803883121076" fill="#ff6309" stroke="none" /><path d="M 120.98425023603335 99.18683210126433 l 3.2729412030703164 -0.12683087033607413 a24.27539771454179,24.27539771454179 0 0,0 0.012586568929841264,0.41768694654261423 l -3.274639466455803 0.07047377636846082" fill="#ff2603" stroke="none" /><line stroke="#e1ed5e" stroke-width="0.3" x1="184.98032266829074" x2="189.97916517819016" y1="98.17113171792111" y2="98.06355123074" /><path d="M 185.9800911702706 98.14961562048488 a86.0,86.0 0 0,1 -9.607161424134198,41.387399972396054" fill="none" id="id64" stroke="none" /><text fill="#e1ed5e" style="font-size:6.75px; font-family:Arial;" text-anchor="middle"><textPath startOffset="21.466115282336823" xlink:href="#id64">April</textPath></text><path d="M 120.99980553446 99.90962569577887 l 2.9362230034505905 -0.012636265156811965 a23.936250193901998,23.936250193901998 0 0,0 -0.0017732233002755887,0.4120346463067041 l -2.936005482860812 -0.03790785935357685" fill="#ff2103" stroke="none" /><path d="M 120.9904718944345 100.63252640178507 l 5.715642654596495 0.1722350455189034 a26.71823712921629,26.71823712921629 0 0,0 -0.017809444465943798,0.4595826271784812 l -5.711831077279348 -0.27059491971139077" fill="#ff4806" stroke="none" /><path d="M 120.9764740272857 100.99374915477107 l 62.92942208185712 2.9812474643131925 a84.0,84.0 0 0,0 -0.0808545964498828,1.4437131346583068 l -62.86878113451971 -4.064032315306923" fill="#4dd2ff" stroke="none" /><path d="M 120.89721153311464 102.0752229133903 l 7.4516303322213275 0.7399931796180202 a28.48828314862373,28.48828314862373 0 0,0 -0.05265950409599716,0.4875616069906135 l -7.437788526624278 -0.8681511084934251" fill="#ff6008" stroke="none" /><path d="M 120.70491114924044 103.5080841355445 l 5.398572103681197 0.9146933795082655 a26.475513193953702,26.475513193953702 0 0,0 -0.07999835728819578,0.4486732719258764 l -5.382027304053812 -1.0074854021673603" fill="#ff4506" stroke="none" /><path d="M 120.5718875245553 104.21870165774334 l 6.718209236332219 1.3777112289064979 a27.85801892483497,27.85801892483497 0 0,0 -0.10037637053239497,0.46892498611295214 l -6.693498827075381 -1.493150034435619" fill="#ff5808" stroke="none" /><path d="M 120.49622156327973 104.57218783832717 l 3.5391741689715714 0.7895001058187296 a24.626163842879055,24.626163842879055 0 0,0 -0.09585374741992458,0.41293543515939174 l -3.525059855621094 -0.8503041983266862" fill="#ff2b04" stroke="none" /><path d="M 120.41448212921028 104.9243191809786 l 0.6295453459312117 0.15185701026572151 a21.647601647736085,21.647601647736085 0 0,0 -0.0904959284437536,0.361486249603624 l -0.6268381031923972 -0.16267109926674148" fill="#ff0000" stroke="none" /><path d="M 119.9155931802556 106.66101706037122 l 7.410739858434173 2.478613826875204 a28.81425567486513,28.81425567486513 0 0,0 -0.1613724127100088,0.4690237680872826 l -7.366976614780934 -2.6058102980517868" fill="#ff6509" stroke="none" /><line stroke="#e1ed5e" stroke-width="0.3" x1="174.80103733775053" x2="179.2010983576182" y1="140.37084112569926" y2="142.7455964860345" /><path d="M 175.68104954172406 140.8457921977663 a86.0,86.0 0 0,1 -30.038265399797805,32.042727171017184" fill="none" id="id65" stroke="none" /><text fill="#e1ed5e" style="font-size:6.75px; font-family:Arial;" text-anchor="middle"><textPath startOffset="22.206326154141568" xlink:href="#id65">May</textPath></text><line stroke="#e1ed5e" stroke-width="0.3" x1="143.8653032363475" x2="146.44561519142675" y1="172.8068346515853" y2="177.08958963109032" /><path d="M 144.38136562736335 173.6633856474863 a86.0,86.0 0 0,1 -40.68145358897372,12.25698825130547" fill="none" id="id66" stroke="none" /><text fill="#e1ed5e" style="font-size:6.75px; font-family:Arial;" text-anchor="middle"><textPath startOffset="21.466115282336833" xlink:href="#id66">June</textPath></text><line stroke="#e1ed5e" stroke-width="0.3" x1="102.19456741930631" x2="102.32365962044197" y1="184.97166512339345" y2="189.96999836594603" /><path d="M 102.22038585953345 185.97133177190398 a86.0,86.0 0 0,1 -42.740103519485714,-10.115201625700543" fill="none" id="id67" stroke="none" /><text fill="#e1ed5e" style="font-size:6.75px; font-family:Arial;" text-anchor="middle"><textPath startOffset="22.20632615414155" xlink:href="#id67">July</textPath></text><line stroke="#e1ed5e" stroke-width="0.3" x1="58.666819895761336" x2="56.23545636021788" y1="174.27360380694188" y2="178.64263932499728" /><path d="M 58.180547188652646 175.14741091055294 a86.0,86.0 0 0,1 -31.652253787137756,-30.449443065178592" fill="none" id="id68" stroke="none" /><text fill="#e1ed5e" style="font-size:6.75px; font-family:Arial;" text-anchor="middle"><textPath startOffset="22.20632615414155" xlink:href="#id68">August</textPath></text><line stroke="#e1ed5e" stroke-width="0.3" x1="26.63291911575756" x2="22.317208475507996" y1="142.92168965132927" y2="145.44649492493687" /><path d="M 25.769776987707644 143.4266507060508 a86.0,86.0 0 0,1 -11.730757126820373,-40.83630448921669" fill="none" id="id69" stroke="none" /><text fill="#e1ed5e" style="font-size:6.75px; font-family:Arial;" text-anchor="middle"><textPath startOffset="21.46611528233685" xlink:href="#id69">September</textPath></text><line stroke="#e1ed5e" stroke-width="0.3" x1="15.007084014347285" x2="10.007500721073583" y1="101.09737516637583" y2="101.16192664675087" /><path d="M 14.007167355692545 101.11028546245083 a86.0,86.0 0 0,1 10.666146001902534,-42.60595125391555" fill="none" id="id70" stroke="none" /><text fill="#e1ed5e" style="font-size:6.75px; font-family:Arial;" text-anchor="middle"><textPath startOffset="22.20632615414155" xlink:href="#id70">October</textPath></text><line stroke="#e1ed5e" stroke-width="0.3" x1="26.266209847984243" x2="21.928928074336255" y1="57.711370442889674" y2="55.22380399835377" /><path d="M 25.398753493254645 57.213857153982495 a86.0,86.0 0 0,1 29.58750427330803,-30.492523968695096" fill="none" id="id71" stroke="none" /><text fill="#e1ed5e" style="font-size:6.75px; font-family:Arial;" text-anchor="middle"><textPath startOffset="21.46611528233685" xlink:href="#id71">November</textPath></text><line stroke="#e1ed5e" stroke-width="0.3" x1="56.762969772571076" x2="54.21961505331055" y1="26.818313649435495" y2="22.513508569990535" /><path d="M 56.25429882871897 25.957352633546506 a86.0,86.0 0 0,1 42.265352541879196,-11.944610805530505" fill="none" id="id72" stroke="none" /><text fill="#e1ed5e" style="font-size:6.75px; font-family:Arial;" text-anchor="middle"><textPath startOffset="22.20632615414155" xlink:href="#id72">December</textPath></text></svg>